<svg width="99" height="18" viewBox="0 0 99 18" fill="none" xmlns="http://www.w3.org/2000/svg">
<path d="M7.52531 17.8722C7.57183 17.8565 7.72912 17.8826 7.84959 17.8912C7.88248 17.8936 7.91229 17.8946 7.93537 17.8927C7.91573 17.929 7.88533 17.9545 7.84959 17.9715C7.66178 18.0553 7.3454 17.9335 7.52531 17.8722ZM18.2645 2.27597C18.1789 2.32926 18.0906 2.38256 18.0039 2.43584C18.2537 2.46968 18.5801 2.42984 18.8102 2.47954C18.8477 2.48789 18.751 2.64181 18.8396 2.64841C18.9283 2.65497 18.9106 2.44507 19.0397 2.42222C19.1863 2.39726 19.844 2.54143 20.0749 2.53706C20.9302 2.51993 21.7944 2.39654 22.6521 2.47966C21.7684 2.63908 22.6601 2.7931 22.908 2.72453C22.9627 2.70864 22.9529 2.31854 23.8409 2.41209C24.4055 2.47131 23.8874 3.03237 24.8276 2.74727C24.1011 2.36118 24.8137 2.38446 25.3804 2.36784C25.4789 2.36495 26.2678 2.41835 26.6171 2.39846C26.7366 2.39158 26.9169 2.18579 27.0749 2.17922C27.1836 2.17485 27.2665 2.28599 27.4278 2.27903C28.183 2.24787 28.9223 2.23269 29.6765 2.26305C29.2394 2.79276 30.0258 2.48354 30.0604 2.50824C30.2418 2.64908 29.4288 2.69784 29.7516 2.78384C30.2006 2.7631 30.6494 2.74208 31.0977 2.72072C30.7302 2.66037 31.5773 2.27282 31.7393 2.44267C31.6644 1.97988 33.7869 2.82026 34.1032 2.65945C34.1712 2.62555 33.7243 2.4034 34.7453 2.49197C34.8549 2.50183 34.8158 2.64256 34.8729 2.62855C34.9081 2.62011 35.1032 2.17159 35.3337 2.41359C35.4145 2.50182 34.9079 2.80383 36.037 2.66543C35.6527 2.29713 36.9925 2.35028 37.6607 2.43671C37.8033 2.45457 37.916 2.47406 37.9802 2.49195C37.9044 2.43289 37.8282 2.37381 37.7516 2.31471C38.1265 2.47012 38.1852 2.31438 38.2674 2.32076C38.599 2.34623 39.0568 2.48918 39.3682 2.46592C39.7331 2.43888 39.7122 2.15768 40.1439 2.25366C40.0426 2.19471 39.9372 2.13582 39.837 2.07671C40.1328 2.08254 40.4135 2.08836 40.7069 2.09318C40.0493 2.48879 40.8529 2.10615 40.9055 2.09597C40.9898 2.07937 40.8737 2.23635 41.0144 2.21226C41.029 2.20858 41.0023 2.06573 41.2188 2.04157C41.6813 1.99088 41.6115 2.17422 41.8007 2.1647C41.8173 2.16305 41.7532 2.03619 42.084 1.9918C43.1242 1.84907 42.0831 2.0916 42.0433 2.11079C41.9921 2.13628 42.3722 2.66359 41.4719 2.50698C41.7754 2.55642 41.8108 2.79458 41.8461 2.79915C41.8802 2.80286 42.3978 2.74734 42.4235 2.73776C42.6796 2.64503 42.4441 2.49154 42.4933 2.46C42.5359 2.43473 43.1666 2.61913 43.2873 2.11967C43.6048 2.5584 43.1337 2.54127 42.6412 2.63327C42.5739 2.72978 43.1223 2.79512 43.1544 2.79305C43.8537 2.75744 43.4501 2.40328 43.5909 2.15703C43.6666 2.02802 43.9623 2.26744 43.6831 1.94684C44.3088 1.87759 43.9402 2.09187 43.9807 2.11854C44.0469 2.15722 44.2627 2.04877 44.2899 2.05995C44.331 2.07653 44.1987 2.20041 44.3586 2.23203C44.3841 2.2365 44.6279 2.02216 44.2947 1.9462C44.7378 1.94851 44.6909 1.78022 44.8583 2.11348C45.1222 1.44624 45.1041 2.48191 45.2251 2.51032C45.5463 2.5845 45.4205 2.08219 45.4351 2.05635C45.5369 1.89081 46.4029 1.99982 46.6012 1.90708C46.553 2.28044 45.9336 1.9668 45.8069 2.04697C45.377 2.31707 46.4461 2.18169 46.1589 2.66626C46.2874 2.52901 46.4036 2.39236 46.5297 2.25443C46.7978 2.52819 46.466 2.68917 47.1047 2.52081C47.185 2.25652 46.6517 2.60359 46.7449 2.3924C46.8061 2.26853 47.1717 2.20833 47.1735 2.14516C47.1735 2.07 46.8477 2.19035 46.8896 2.0703C46.9886 1.814 48.1962 1.92341 47.3048 2.1546C47.5615 2.12405 47.7433 2.60258 47.9426 2.42396C48.0622 2.30761 47.232 1.72178 48.375 1.70538C48.433 1.93459 47.9335 1.83175 47.9236 1.84994C47.9089 1.87781 48.0592 2.39174 48.0774 2.41576C48.1591 2.49753 49.2384 2.05967 49.5161 2.27221C49.4553 2.15384 49.5877 2.09975 49.7844 2.06363C50.0586 2.01382 50.4541 1.99778 50.5157 1.92966C50.5421 1.89809 50.387 1.73888 50.4167 1.71264C50.5898 1.55788 51.2816 1.75317 51.6498 1.69044C52.049 1.62313 51.978 1.47391 51.9991 1.46993C52.187 1.4448 52.0573 1.57963 52.1719 1.55868C52.3349 1.52039 53.6009 1.35788 53.6556 1.33608C53.6735 1.32682 53.4474 1.16795 53.7157 1.10085C53.7601 1.09142 53.7671 1.30234 54.5277 1.13696C55.4342 0.946068 53.8616 0.922968 54.2211 0.662152C54.8558 0.930747 54.7988 0.615403 54.9603 0.627789C54.9918 0.630631 55.1345 0.707346 55.3292 0.768414C55.4815 0.817425 55.6644 0.856707 55.8472 0.839432C55.6802 0.873538 55.5113 0.908614 55.3405 0.944973C55.2071 0.972861 55.0773 1.00117 54.9425 1.03063C55.053 1.03933 55.1941 1.03289 55.3455 1.02309C55.6197 1.00519 55.9066 0.977776 56.0601 1.00571C56.176 1.02678 56.0919 1.25639 56.3367 1.2394C56.3869 1.23519 56.5745 0.674649 55.9363 0.952192C55.8743 0.758617 56.1913 0.870894 56.3304 0.809562C56.352 0.800001 56.4211 0.468523 56.61 0.665197C56.6518 0.715023 56.2343 1.68334 57.3881 0.953994C57.4254 0.930602 57.2902 0.814572 57.3265 0.788684C57.3524 0.77097 57.6507 0.811479 57.6836 0.793792C57.717 0.774704 57.5693 0.647543 57.6089 0.620799C57.8116 0.482994 58.0903 0.995694 57.6692 0.966083C57.811 1.0267 57.9538 1.08764 58.094 1.14894C57.9364 0.761019 58.3116 1.03433 58.5035 1.01937C59.7312 0.925788 58.9057 0.682636 59.1156 0.548241C59.4535 0.333742 59.2005 1.00482 59.7012 0.800351C59.7474 0.781844 59.139 0.498877 60.3252 0.655835C60.1501 0.667002 59.9755 0.678537 59.8006 0.69045C59.903 1.06788 60.4316 0.662798 60.4728 0.657793C60.9381 0.606842 60.6219 0.741435 61.316 0.550857C61.3785 0.533832 61.5117 0.62827 61.6455 0.583101C62.1966 0.396803 60.9214 0.459845 60.8876 0.308148C60.8703 0.231249 62.2446 0.263086 62.2947 0.301663C62.4932 0.462415 61.6673 0.362209 61.8226 0.560659C61.8633 0.610916 62.8794 0.563569 63.6463 0.581102C63.9498 0.587563 64.21 0.603247 64.3316 0.630537C64.8298 0.743306 65.0184 1.27093 65.057 0.695586C65.1598 1.26866 65.3025 0.891442 65.3628 0.899415C66.0672 1.00045 66.0435 1.0069 66.548 0.98539C66.6562 0.980474 66.7363 1.15711 66.7753 1.13036C66.7982 1.11415 66.768 0.928505 66.8786 0.878046C67.0245 0.811066 67.9303 1.03893 68.0029 1.14124C68.0677 1.24536 67.6053 1.17075 67.6827 1.34054C68.0158 1.37053 68.3477 1.33952 68.6986 1.36605C68.8428 1.37747 68.7656 1.49239 68.8285 1.49625C68.837 1.49691 68.894 1.48821 68.9697 1.47457C69.1233 1.44515 69.3637 1.39262 69.3479 1.3629C69.3346 1.33186 69.1691 1.31374 68.9737 1.29742C68.5163 1.26097 67.8774 1.22813 68.1582 1.09559C68.2393 1.05881 68.5035 1.33577 68.4707 1.00728C68.6362 1.02103 68.8052 1.03438 68.9794 1.04742C70.2071 1.13952 71.512 1.21705 72.8104 1.29394C71.9551 1.53128 71.0025 1.30288 70.1294 1.31273C70.0077 1.31386 69.6077 1.27556 69.6538 1.44178C70.3895 1.49758 71.3252 1.42207 72.0511 1.53694C72.0743 1.54073 71.9878 1.68856 72.0743 1.71296C72.2364 1.75857 72.7713 1.52365 72.8593 1.58638C72.8746 1.60097 72.5701 1.79426 72.6611 1.91962C72.8947 2.24133 72.9605 1.53395 73.1643 1.54407C73.3205 1.55227 74.3786 1.90299 74.6452 1.68875C74.9283 1.46045 73.8633 1.54883 73.9441 1.36097C74.6641 1.17729 75.3927 1.38501 76.0773 1.36697C76.0894 1.36647 75.9858 1.21794 76.1388 1.19852C76.4045 1.16473 76.4731 1.37481 76.6023 1.40942C76.741 1.44624 77.2354 1.42062 77.3023 1.49766C77.3107 1.50776 77.208 1.7146 77.1926 1.7203C76.9773 1.80399 76.9026 1.53366 76.883 1.53002C76.809 1.51914 76.7361 1.62181 76.6692 1.61508C76.5591 1.60388 76.4986 1.5078 76.3529 1.49815C76.2527 1.49115 76.3479 1.67546 76.2513 1.66627C76.216 1.66214 75.8357 1.24 75.7969 1.66748C75.7807 1.80131 78.9255 2.00291 79.2546 1.90221C78.9795 1.84703 78.7096 1.79229 78.438 1.73778C78.988 1.86899 79.6633 1.53702 79.7031 2.04349C80.051 2.05576 80.3991 2.06877 80.753 2.08334C82.6087 2.15424 84.7862 2.34298 86.8129 2.79011C87.1904 2.90792 86.9585 3.19432 87.5053 3.20604C87.3987 3.07976 87.2768 2.94964 87.1392 2.81665C87.2507 2.86626 87.4992 2.95418 87.7011 3.02462C87.9072 3.09603 88.058 3.14673 88.16 3.16746C88.2572 3.16373 88.5413 3.24279 88.6386 3.24676C88.779 3.28145 88.8871 3.29939 88.9376 3.29189C88.9628 3.28771 89.0533 3.00681 89.3338 3.03414C89.5833 3.05794 89.5829 3.28115 89.7085 3.34616C89.8138 3.39995 89.9491 3.36408 89.9804 3.38159C90.0044 3.39546 89.9925 3.53009 90.0506 3.56342C90.2359 3.66703 90.1354 3.26668 90.264 3.7282C90.2131 3.73701 90.1626 3.74578 90.112 3.75445C90.3398 3.85512 90.6497 4.10171 90.2719 4.14262C90.2075 4.14963 90.2807 4.02911 90.2347 4.02214C88.4726 3.74785 89.8172 4.24339 90.4939 4.13807C90.6186 4.35402 91.6261 4.37629 91.6653 4.41978C91.7057 4.48105 91.507 4.60927 91.7211 4.77363C91.7408 4.78883 92.02 4.81375 92.2931 4.8546L91.8894 4.81346C92.1158 4.83029 92.3111 4.86197 92.1277 5.00154C92.0977 5.02399 91.996 5.02223 91.8772 5.01052L92.2654 5.05008C92.0402 5.01268 91.794 4.96293 91.7043 4.95469C91.8216 5.12179 92.0273 5.16743 92.2497 5.16048L91.8703 5.12182C92.1284 5.0719 92.3661 4.84043 92.4046 4.84994C92.6605 4.9154 91.9048 5.20026 92.4894 5.25223C92.9412 5.28063 92.5126 5.01592 92.6804 4.89533C92.766 4.83166 93.2886 5.09525 93.2378 4.70536C93.4002 4.64686 93.3249 4.86205 93.347 4.87474C93.3703 4.88677 93.6894 4.72864 93.8122 4.79004C93.8274 4.79794 93.8171 5.00492 93.8337 5.01905C93.8662 5.04419 94.1963 4.94276 94.2058 4.92183C94.2116 4.90855 94.0983 4.75013 94.1223 4.7015C94.1495 4.64701 94.475 4.61819 94.4817 4.56312C94.4874 4.48468 94.1111 4.61896 94.1357 4.40988C94.3217 4.42387 94.5809 4.22387 94.6529 4.0379C94.6363 4.09009 94.4691 4.14015 94.4076 4.13797C94.367 3.8506 94.7177 3.76122 94.6579 4.01528C94.7029 3.87488 94.6326 3.82621 94.6445 3.70193C94.648 3.67047 94.754 3.63377 94.7606 3.57918C94.7598 3.56909 94.62 3.49536 94.6258 3.4322C94.6351 3.3202 94.9597 3.24494 94.9958 3.26099C95.0956 3.31195 94.8609 3.4892 94.8736 3.61248C94.8744 3.63262 95.1793 3.78763 95.1914 3.80524C95.2765 4.01769 94.9611 3.94612 95.0521 4.13182C95.1314 4.15269 95.2109 4.17279 95.292 4.19165C95.0942 4.47882 94.5824 4.50624 94.5127 4.76252C94.8874 4.6034 95.2963 4.47962 95.462 4.98464C95.5317 5.19781 95.3871 5.38054 95.4107 5.43251C95.4975 5.61984 95.6891 5.32629 95.7011 5.33286C95.7129 5.34204 95.7203 5.35231 95.724 5.36347C95.724 5.36347 95.724 5.36348 95.724 5.36348C95.762 5.47805 95.4182 5.67692 95.4137 5.73346C95.4085 5.83613 95.6932 6.16622 95.7205 6.24969C95.7206 6.269 95.4664 6.44249 95.6043 6.56204C95.7458 6.68326 95.9995 6.60705 96.0128 6.61916C96.0913 6.693 95.6699 6.91204 95.6711 6.9667C95.6706 6.99626 95.963 7.08696 95.985 7.1308C96.0062 7.17598 95.8496 7.33563 95.8171 7.50595C95.7925 7.63306 95.9817 7.67023 95.9581 7.69584C95.9417 7.71514 95.4884 7.83743 95.4717 7.86053C95.4457 7.89811 95.5863 8.00432 95.5796 8.04156C95.5704 8.09535 95.4082 8.08472 95.4401 8.12918C95.4603 8.16663 96.1718 8.46579 96.2076 8.58443C96.2639 8.79536 95.4793 8.49629 96.3157 9.14899C96.3215 9.15336 96.4537 9.05109 96.4594 9.05465C96.5988 9.17639 96.1803 9.55614 96.7639 9.33385C95.7261 9.92639 96.7169 9.68979 96.6563 10.0873C96.6322 10.2423 96.1877 10.4234 96.1908 10.4426C96.2796 10.6034 96.3934 10.4305 96.4649 10.501C96.5076 10.541 96.1366 10.8324 96.2605 10.9258C96.3246 10.9761 96.7697 10.8313 96.7905 10.8365C96.9995 10.8961 96.8172 11.0789 96.8786 11.1465C96.9197 11.1926 97.1965 11.1143 97.2059 11.1212C97.225 11.1379 96.914 11.4629 96.8526 11.56C96.8076 11.6353 97.0626 11.661 97.0272 11.6983C96.8128 11.9249 96.1535 11.6805 96.833 12.082C96.8743 12.1068 97.0744 12.0365 97.0825 12.041C97.2524 12.1581 96.8801 12.2778 96.8438 12.4209C96.783 12.6697 97.3051 12.3988 96.8845 12.6758C97.2699 12.7243 97.4658 12.662 97.8534 12.4963C96.7805 12.9437 96.4856 13.6109 97.7816 13.2308C97.371 13.3443 97.5041 13.6437 97.3807 13.6848C97.3049 13.7117 96.6099 13.5523 97.0724 14.1888C97.1308 14.2692 97.482 14.0554 97.4114 14.2676C96.4789 14.4594 97.4211 14.3903 97.4301 14.4113C97.541 14.8588 95.1242 15.0134 94.7131 15.0717C94.2451 15.187 93.836 15.5559 93.726 15.5636C93.3718 15.5862 93.6554 15.3959 93.5724 15.3376C93.4942 15.2864 92.4999 15.6456 92.445 15.6209C92.2498 15.5478 92.4491 15.3442 92.4279 15.3338C92.2826 15.2582 91.7167 15.2815 91.2403 15.2739C91.1574 15.255 90.8999 15.2564 90.8188 15.231C90.6052 15.2159 90.4042 15.2006 90.3058 15.1684C90.2974 15.3008 90.8118 15.3835 90.4603 15.5489C90.0487 15.7417 90.1021 15.1601 90.0966 15.1334C88.9487 14.9808 87.5832 14.7774 86.3108 14.5138L86.7294 14.5831C85.7796 14.4647 85.0449 14.2945 84.5362 14.2016C84.5168 14.3557 84.7551 14.4218 85.0672 14.4695C85.3728 14.5164 85.7715 14.5406 85.7855 14.5632C85.8707 14.7026 85.2322 14.6455 84.7725 14.567C84.3031 14.4877 83.9243 14.3951 83.8376 14.3264C83.9644 14.4145 84.0889 14.504 84.2187 14.596C83.9128 14.9012 83.4961 14.3655 83.13 14.4825C83.0155 14.5204 83.2069 14.6818 83.2018 14.6909C83.0656 14.8134 82.8771 14.6854 83.0482 14.5172C82.7254 14.661 82.7909 14.4706 82.5505 14.4335C82.538 14.4319 82.6294 14.5842 82.4326 14.6272C82.3445 14.6464 81.8483 14.6122 81.7746 14.7353C81.7461 14.7866 81.9584 15.3592 82.021 14.882C82.5292 15.154 82.2058 14.6756 82.4085 14.7026C82.4387 14.7086 82.35 14.966 82.8528 14.8897C82.7149 15.3595 82.1805 14.9499 82.0672 15.0026C81.8557 15.1069 82.677 15.4203 82.8531 15.0645C82.7446 15.4329 82.9048 15.1205 83.078 15.1569C83.2675 15.1972 83.1681 15.2983 83.2701 15.3121C83.5432 15.3527 83.4688 15.0729 83.6586 15.3451C83.5529 14.5747 84.0621 15.3102 84.2312 15.5442C83.8989 15.5191 83.6219 15.511 83.3311 15.5087C83.3419 15.5496 83.352 15.5905 83.3631 15.6315C83.291 15.6157 83.2146 15.5998 83.1418 15.585C83.1586 15.5494 83.1753 15.5138 83.1921 15.4782C82.7737 15.6707 82.6962 15.3918 82.6646 15.3848C82.2331 15.3098 81.6938 15.277 81.1966 15.2563C81.1193 15.2537 81.17 15.4962 80.6205 15.2902C80.465 15.2334 80.5783 15.085 80.4718 15.0639C80.4556 15.0609 80.4344 15.0605 80.4063 15.0635C80.1161 15.5723 80.1295 15.1622 80.0459 15.16C79.8011 15.1556 79.655 15.2809 79.6306 15.2818C79.3312 15.2968 78.887 15.2695 78.5502 15.2845C78.5438 15.2863 78.7166 15.4465 78.4998 15.3972C78.4251 15.3795 77.7443 14.6967 77.1358 14.9113C77.2939 14.9583 77.4485 15.0054 77.6065 15.0525C77.4234 14.9867 76.1223 15.1455 76.4385 15.329C76.6321 15.441 77.1103 15.0102 77.1595 15.4291C76.7324 15.2993 74.3314 15.4681 74.1423 15.3694C74.1164 15.3553 74.2773 15.2208 74.2415 15.2031C74.2138 15.1897 73.6615 15.2175 73.5882 15.1648C73.5448 15.1334 73.7898 15.0522 73.7704 15.0031C73.7533 14.9681 73.0626 14.9044 73.0223 15.0741C73.1919 15.0073 73.6689 15.0708 73.4178 15.2122C73.3853 15.2297 73.2192 15.1186 73.18 15.1409C72.8154 15.3464 73.9005 15.3053 74.0668 15.3082C73.3861 15.5197 72.3349 15.2555 71.5367 15.3884C71.2178 15.2435 72.0153 15.1767 71.6528 15.0556C70.9009 14.8045 71.4499 15.2494 71.4272 15.2672C71.2357 15.4082 70.6079 14.6349 70.5977 15.2175C70.3225 15.1262 70.4137 15.054 70.0222 15.1247C70.0725 15.1658 70.1231 15.2069 70.1741 15.248C69.7359 15.5802 68.8202 14.7109 68.888 14.6469C69.0823 14.4772 69.5582 14.7569 69.6015 14.7509C69.6624 14.7422 69.8399 14.1542 70.4909 14.6917C70.7666 14.299 69.449 14.4091 70.0523 14.1475C69.83 14.1685 69.2322 14.088 68.6856 14.0342C68.2278 13.9896 67.8131 13.963 67.693 14.038C67.6611 14.0595 67.793 14.46 67.3633 14.2435C67.16 14.1402 67.6572 14.1536 67.5666 14.0601C67.4438 13.9291 66.5308 13.8689 65.5061 13.8032C64.4685 13.7325 63.6943 13.7248 63.2039 13.7288C63.1191 13.7292 63.0421 13.7293 62.9907 13.729C62.9502 13.7283 62.9687 13.6061 62.9283 13.6061C62.8053 13.6057 62.3423 13.7779 62.1145 13.718C62.5812 13.9532 61.667 13.9548 61.4295 13.9288C61.0724 13.8876 61.0958 13.6722 60.9404 13.6254C60.3406 13.4446 59.4162 13.9621 58.9494 13.4902C58.9812 13.9647 58.1463 13.2693 57.7767 13.2765C57.4855 13.2809 57.0872 13.6102 57.4755 13.7887C57.022 13.783 56.556 13.878 56.1755 13.9368C56.1437 13.9416 56.1127 13.9462 56.0825 13.9504C56.0162 13.9598 56.0984 13.8131 55.9854 13.8338C55.9754 13.8368 55.9694 13.9752 55.8763 13.9967C55.1238 14.1822 55.4722 13.8602 55.3216 13.7875C55.2389 13.7479 55.1817 13.7305 55.1397 13.7275C55.4844 13.6625 55.9233 13.587 56.1511 13.5578C56.1924 13.5523 56.2267 13.5483 56.2508 13.5462C56.2297 13.504 56.1924 13.4764 56.1448 13.4599C55.8384 13.3591 55.1903 13.6777 54.991 13.6368C54.9824 13.6349 54.9895 13.4648 54.9811 13.4647C54.9809 13.4648 54.9807 13.4648 54.9805 13.4648C54.8892 13.4601 54.3315 13.6124 54.4817 13.7913C54.5245 13.8384 54.7756 13.7944 55.079 13.7388C55.0001 13.7865 55.0861 13.9651 55.0724 13.9749C54.911 14.087 54.4708 13.9712 54.2937 13.9805C54.2549 13.9821 54.2795 14.1 54.2734 14.1015C54.115 14.1036 54.1138 13.7538 54.0145 14.1345C53.6392 13.7711 54.54 13.9685 54.4182 13.7111C54.3782 13.6085 53.9559 13.6595 53.3862 13.8243C52.8239 13.9874 52.189 14.2254 52.2279 14.389C52.2123 14.3552 52.1693 14.3179 52.0867 14.2815C52.0817 14.2793 52.0762 14.2772 52.0703 14.2754C51.8732 14.2101 51.1704 14.3679 51.0545 14.4458C51.0344 14.4614 51.0949 14.7834 51.0677 14.7908C50.999 14.8119 50.0447 14.6923 49.7375 14.9224C49.9231 14.9455 50.1136 14.9669 50.3038 14.987C49.1959 15.1359 49.387 15.203 49.7618 15.2579C49.7805 15.2564 49.8 15.2665 49.8178 15.2657C50.1094 15.3026 50.4955 15.3189 50.5036 15.3436C50.5275 15.4495 48.6635 15.7261 48.9922 15.3794C49.0375 15.3344 49.9082 15.3683 49.459 15.203C49.375 15.1754 48.8427 15.2963 48.8123 15.2747C48.6037 15.1393 49.7683 14.7958 49.5935 14.5869C49.3323 14.8355 48.9496 14.7645 48.6296 14.8528C48.4865 14.8926 48.4667 15.0594 48.4487 15.0643C48.1791 15.1337 48.3139 14.9475 48.2256 14.9603C48.1811 14.9681 47.6804 15.381 47.7377 14.8686C46.0481 15.3779 47.2778 15.2876 48.3573 15.1557C48.0324 15.3729 47.3647 15.3408 47.0714 15.4059C46.9692 15.4294 47.0445 15.5927 46.8695 15.6399C46.5025 15.7412 44.7717 15.6555 44.3323 15.6294C44.6012 15.5555 44.5123 15.3764 44.3027 15.4002C44.0912 15.4239 44.2822 15.6594 44.2421 15.6879C44.1974 15.7183 43.2191 15.6496 43.0541 15.6879C43.7857 15.5659 43.6145 15.3907 42.9858 15.3996C43.0753 15.3429 43.1639 15.2861 43.2515 15.2294C42.883 15.3207 42.1158 15.0724 41.9092 15.1631C41.8767 15.1777 42.0012 15.327 41.9829 15.3352C41.7958 15.4081 41.1743 15.2733 41.1433 15.3267C41.1203 15.3713 41.3926 15.4909 41.2955 15.5579C41.2767 15.572 41.0051 15.3733 40.7609 15.4325C40.6684 15.4543 40.7292 15.598 40.706 15.6072C40.5117 15.6836 40.6203 15.4349 40.259 15.4856C40.0034 15.5227 39.8092 15.7683 39.4448 15.6991C40.6533 15.9697 39.6302 15.8725 39.1462 15.9779C39.0675 15.9947 39.1396 16.2575 38.6603 16.141C39.6638 15.6368 38.3686 15.8962 38.0988 15.8968C38.0849 15.8956 38.0763 15.7452 37.9684 15.7241C37.9604 15.7225 37.9519 15.7216 37.9428 15.7216C37.932 15.722 37.9505 15.8394 37.8312 15.8512C36.6857 15.9616 37.4159 15.8124 37.195 15.701C37.0996 15.6536 36.5527 15.8313 36.3988 15.8382C36.3641 15.8393 36.3772 15.7166 36.243 15.7239C36.011 15.7371 35.8023 15.8712 35.6461 15.8843C35.628 15.8852 35.6234 15.6922 35.3281 15.7599C35.2466 15.7789 35.1556 15.849 35.273 15.9025C35.6697 16.0785 36.4012 15.749 36.849 15.9221C37.2565 16.08 35.9802 16.121 35.9187 16.1226C35.8947 16.1237 36.1397 16.0233 35.8885 16.0089C35.674 15.997 35.2827 16.3375 34.9645 16.2701C34.9402 16.2651 34.6791 15.9864 34.6906 15.9698C34.7017 15.9576 35.0933 15.8898 35.0348 15.8088C35.028 15.7996 34.7786 15.8056 34.7447 15.7452C34.7034 15.6717 34.5837 14.9456 34.5297 14.9282C34.3913 14.8853 34.4824 15.0499 34.3949 15.0397C34.2088 15.0183 33.5474 14.8127 33.5284 15.0653C33.6381 15.0787 33.7474 15.0921 33.8563 15.1055C33.2494 15.1402 33.5108 15.2438 33.4257 15.2924C33.3351 15.3448 33.358 15.1227 33.1553 15.1047C33.1124 15.1008 32.2593 15.1582 32.2781 15.251C32.7425 15.097 32.5751 15.3731 32.5959 15.3778C32.6792 15.3946 32.7831 15.2395 32.8939 15.241C33.6707 15.2546 32.8914 15.5078 33.0754 15.5677C33.1389 15.5879 33.2624 15.4549 33.2891 15.4613C33.376 15.4818 33.3798 15.6536 33.4373 15.6389C33.5712 15.6048 33.4109 15.3638 33.4213 15.351C33.5389 15.1972 34.0213 15.3795 33.7274 15.6484C33.9073 15.7412 33.9233 15.4193 34.0659 15.5458C34.3488 15.7961 33.9299 15.7371 33.8159 15.781C33.4048 15.9394 33.2906 15.8176 32.7105 15.8676C32.4993 15.8852 32.2608 16.0445 32.1636 16.0542C32.1041 16.0604 31.521 15.5239 31.5153 16.3746C31.2933 16.2948 30.9381 15.7382 30.7079 15.7664C30.501 15.792 30.5705 16.0921 30.5513 16.104C30.5223 16.1226 30.2744 16.1015 30.1907 16.1449C30.0927 16.1961 30.1431 16.3105 29.987 16.3589C29.598 16.4789 29.6045 16.1716 29.5644 16.152C29.0998 15.9257 29.3062 16.3607 29.2038 16.3967C29.108 16.43 27.7633 16.2734 27.4802 16.386C27.5946 16.3236 27.71 16.2612 27.8246 16.1987C27.6166 16.0088 27.4008 16.323 27.3945 15.9794C27.3572 16.5345 26.9298 16.1669 26.8021 16.1822C26.7518 16.1884 26.7564 16.2829 26.6934 16.2875C26.4466 16.3059 25.8934 16.2344 25.7599 16.2832C25.1847 16.4934 26.6604 16.8268 26.7782 16.8465C26.5445 16.8422 25.2313 16.9752 25.8375 17.2378C25.9313 17.2783 26.0952 17.029 26.1476 17.0189C26.5021 16.9525 26.2245 17.1769 26.2525 17.1979C26.3001 17.2317 26.5318 17.015 26.5942 17.0402C26.6148 17.0482 26.4835 17.2506 26.823 17.2524C26.6566 17.449 25.7043 17.2964 25.579 17.343C25.5348 17.3597 25.8158 17.7752 24.9987 17.375C25.0084 17.4137 25.0181 17.4524 25.0278 17.491C24.5741 17.5098 24.1202 17.5283 23.6668 17.5466C23.7157 17.4571 23.9693 17.2765 23.6488 17.3162C23.4644 17.3392 23.602 17.5373 23.5852 17.5431C23.4192 17.5993 20.4867 17.546 19.9192 17.5695C19.7249 17.5774 19.1906 17.7388 19.1477 17.7419C18.8998 17.7587 18.034 17.657 17.8585 17.68C17.7501 17.6947 17.8535 17.8607 17.7568 17.8531C17.6669 17.8459 17.7596 17.685 17.7329 17.6784C17.5154 17.6208 15.8297 17.8349 15.4344 17.684C15.6752 17.7291 16.8932 17.4059 16.8681 17.2926C16.8626 17.2771 16.5669 17.1555 16.5065 17.2152C16.4071 17.0764 16.0603 17.5004 15.8715 17.4176C15.8504 17.4082 15.9331 17.1705 15.5981 17.128C15.4838 17.1135 15.1807 17.2991 14.8744 17.092C14.4362 17.1926 12.116 16.8867 11.9558 17.1418C11.9508 17.1553 12.2769 17.2429 12.0566 17.3478C11.7652 17.4872 12.0259 17.0181 11.6882 16.9779C11.6296 16.9718 10.6904 17.0196 10.6524 17.0486C10.3635 17.3119 11.1965 17.4183 11.183 17.4488C11.1562 17.5259 10.4634 17.5727 10.4356 17.5546C10.4087 17.5357 10.9722 17.1868 10.296 17.3192C10.3728 17.3609 10.4501 17.4025 10.5279 17.4442C10.2096 17.5254 10.1816 17.2842 10.1055 17.2695C9.86433 17.2229 9.60219 17.5893 9.22327 17.1368C9.11981 17.0167 9.29158 16.8833 9.27874 16.8653C9.15391 16.7036 8.99613 17.1361 8.81415 16.8136C8.80086 16.7895 9.22313 16.5963 8.48449 16.5958C8.53788 16.6267 8.58741 16.6576 8.63773 16.6886C8.56436 16.7409 8.09661 16.7771 7.84959 16.7845C7.76443 16.7869 7.70063 16.7863 7.6757 16.7823C7.37755 16.7346 7.63562 16.5126 7.3404 16.5392C7.5338 16.8434 6.62241 16.8831 6.67887 16.6212C6.55515 16.9501 5.77657 16.6964 5.42364 16.6886C5.18802 16.6839 4.72887 16.8274 4.65466 16.8106C4.56677 16.7901 4.5956 16.5657 4.43662 16.5157C4.38657 16.5015 3.91373 16.666 3.49786 16.4337C3.41539 16.3889 3.24943 16.0083 3.39726 15.9132C3.66133 15.7504 4.14308 16.057 4.13448 15.8321C4.13535 15.5915 3.46833 15.7346 3.29764 15.7032C2.48719 15.558 2.95636 15.3022 2.93347 15.2247C2.8779 15.0365 2.4348 15.0423 2.41456 15.0254C2.33625 14.9503 2.6569 14.8014 2.65789 14.6865C2.66798 14.537 2.23411 14.2672 2.33332 14.2168C2.47175 14.1452 2.86354 14.3701 2.89335 14.3594C3.21175 14.2143 2.77038 13.8689 2.6477 13.6992C2.61093 13.647 2.75737 13.5612 2.72699 13.5459C2.2599 13.3135 2.62518 14.0313 2.31638 13.9834C2.03517 13.9407 2.39697 13.7137 2.38432 13.7012C2.37378 13.6874 2.03514 13.675 1.98627 13.5947C1.95636 13.5545 2.82725 13.113 2.79057 12.915C2.52024 12.9586 2.23293 13.0022 1.96052 13.0459C1.94146 12.7877 2.34005 12.9777 2.37735 12.9511C2.4581 12.8977 2.2345 12.7671 2.24042 12.6855C2.2504 12.6336 2.51112 12.4484 2.27322 12.372C2.18391 12.3456 2.00931 12.5266 1.7029 12.3417C2.77231 12.1056 2.02684 11.9605 2.00138 11.8691C1.96812 11.7776 2.47741 11.5624 1.85883 11.6005C1.83202 11.0982 1.87239 11.4417 2.04932 11.3534C2.26306 11.2449 1.76334 11.0795 2.55561 11.205C2.50419 10.9698 1.87913 10.9864 1.84196 10.9677C1.81289 10.9506 1.95371 10.835 1.90338 10.7958C1.31031 10.3413 1.71673 10.5488 1.54782 10.2586C1.52836 10.2327 0.969887 10.1251 1.39685 10.0829C2.17378 10.006 2.50012 10.3393 2.6314 9.62678C2.05449 9.31728 1.35726 9.77719 1.18387 9.78499C0.913251 9.79622 1.19507 9.65091 1.16147 9.61018C1.14736 9.59702 0.918794 9.60903 0.914324 9.59748C0.753312 9.05404 1.93886 9.58846 2.31782 9.49397C2.21926 9.41258 2.11224 9.3312 2.01711 9.24982C2.14709 9.24656 2.29201 9.2433 2.42383 9.24005C1.77481 9.07645 2.39807 9.17811 2.56604 8.73808C2.60048 8.63921 2.17148 8.80877 2.66007 8.53397C2.29797 8.47053 2.42173 8.38063 2.08991 8.50467C2.0988 8.32829 2.83282 8.12934 3.11883 8.03883C2.10248 7.84063 2.68132 8.48757 1.79991 8.14528C1.63909 8.36368 2.0568 8.32116 2.02388 8.3572C1.89491 8.48682 1.61456 8.28101 1.26197 8.73515C1.2053 8.80971 1.445 9.03922 1.09026 9.02813C1.05133 9.02655 0.82636 8.83042 0.829022 8.81621C0.858001 8.6626 1.08171 8.72016 1.09101 8.65604C1.09984 8.59535 0.848725 8.63185 0.850891 8.61503C0.840096 8.42259 1.0599 8.54148 1.02662 8.48123C0.959677 8.35021 0.0617133 7.93609 1.2322 8.05739C0.258104 8.27495 1.11233 8.26987 1.48738 8.1863C1.58873 8.16535 1.60386 8.0504 1.74784 8.01051C1.92073 7.95885 2.12967 8.01403 2.2232 7.99293C2.32198 7.96968 1.75745 7.69798 2.574 7.77906C2.1567 7.50879 1.43096 7.79694 1.02519 7.60718C0.207187 7.22372 1.59251 7.14139 1.74087 7.10423C1.78059 7.09416 1.64759 6.93892 1.67417 6.92941C1.71836 6.91483 2.49987 6.98658 2.58398 6.85812C2.66439 6.72978 2.29006 6.86404 2.27128 6.73019C2.24747 6.64008 3.20683 6.48024 2.68787 6.41865C2.33217 6.37643 1.68367 6.73861 1.57101 6.34931C2.09313 6.31709 2.61104 6.28486 3.13426 6.25263C2.8544 6.10451 2.55976 5.9564 2.28062 5.80828C2.85928 5.7613 3.37061 5.92853 3.92549 5.71648C2.58693 5.24185 4.3609 5.3377 4.37908 5.27994C4.38263 5.24539 3.8602 4.86015 3.77404 4.78969C4.23902 4.64148 5.65645 4.56906 4.82823 4.09337C4.98494 4.20078 5.33869 3.93564 5.33803 3.91563C5.28895 3.70548 4.49654 3.84175 4.62635 3.65195C4.77469 3.43168 4.98996 3.7305 5.21717 3.70664C6.4033 3.58223 6.08196 2.48514 7.26762 2.65875C7.24453 2.61968 7.22152 2.58062 7.19858 2.54155C7.4091 2.552 7.62604 2.56244 7.84959 2.57288C8.91977 2.62462 9.99434 2.67631 11.0677 2.72761C11.5763 2.39243 12.9108 2.18756 13.5747 2.22388C13.7041 2.23098 14.3609 2.40604 14.4093 2.43679C14.5019 2.49576 13.9972 2.51892 14.2254 2.62941C14.2751 2.65214 15.3749 2.72445 15.2984 2.53709C15.1733 2.51556 14.7851 2.61035 14.7224 2.56626C14.2763 2.25199 17.6826 2.49782 17.846 2.36983C17.7704 2.30915 17.6949 2.24846 17.6196 2.18776C17.8336 2.2172 18.05 2.2466 18.2645 2.27597ZM8.39928 17.3409C8.28669 17.5016 8.03391 17.4219 7.84959 17.4282C7.81614 17.4293 7.78469 17.4329 7.75622 17.4406C7.48371 17.5145 7.04993 18.2387 7.23756 17.5128C7.43586 17.4828 7.63981 17.4527 7.84959 17.4226C8.02861 17.3954 8.2119 17.3682 8.39928 17.3409ZM14.077 17.6185C13.8156 17.5177 14.0172 17.1121 14.2328 17.2804C14.2569 17.2995 14.4323 17.754 14.077 17.6185ZM11.3439 17.4282C11.3546 17.4229 11.5817 17.4335 11.5899 17.4398C11.7936 17.6025 11.1096 17.5696 11.3439 17.4282ZM24.557 17.1842C24.2691 17.2034 24.4798 17.5708 24.658 17.418C24.6692 17.4084 24.5759 17.1833 24.557 17.1842ZM24.3521 17.1757C24.1267 16.8469 23.6802 17.5182 24.0377 17.4489C24.0724 17.4419 24.3626 17.1917 24.3521 17.1757ZM13.1475 17.4583C13.1756 17.3318 13.4511 17.3926 13.5621 17.4227C13.5607 17.5382 13.2606 17.444 13.1475 17.4583ZM19.9694 17.4092C19.9794 17.3097 19.0468 17.3182 18.9815 17.4494C19.1314 17.3934 19.9577 17.4986 19.9694 17.4092ZM22.3696 17.26C22.346 17.2429 22.022 17.2705 22.0319 17.3582C22.1905 17.4726 22.4769 17.3373 22.3696 17.26ZM27.1451 17.2373C27.1624 17.2151 26.9163 16.6587 27.4927 17.0217C27.5773 17.0749 27.2778 17.2231 27.3078 17.2429C27.3708 17.2815 27.4204 17.2993 27.4603 17.3023C27.1936 17.3506 26.9155 17.3745 26.8883 17.3408C26.7608 17.1818 27.1375 17.2466 27.1451 17.2373ZM29.6513 16.7997C29.7061 16.7081 30.0601 16.7533 30.1405 16.79C30.1543 16.7969 30.0968 17.0368 30.2552 17.0173C30.3822 17.0012 30.1899 16.7581 30.4378 16.7947C30.6879 16.8315 30.3561 17.0097 30.3779 17.0219C30.4068 17.038 30.7945 16.9238 30.7843 17.0664C30.7756 17.1722 30.3592 17.1052 30.2571 17.1286C30.1259 17.1588 30.2873 17.3331 30.0668 17.2976C29.9281 17.2754 30.0017 16.9652 29.9723 16.9499C29.948 16.9375 29.464 17.1203 29.6521 16.8007C29.6518 16.8003 29.6516 16.8 29.6513 16.7997ZM27.5324 17.288C27.5124 17.2986 27.4888 17.3044 27.4603 17.3023C27.4845 17.2979 27.5085 17.2928 27.5324 17.288ZM9.15173 17.2052C9.28907 17.3006 8.88103 17.423 8.73247 17.298C8.7286 17.1971 9.12846 17.1903 9.15173 17.2052ZM27.7794 17.0341C28.1782 17.1083 27.8866 17.2174 27.5324 17.288C27.6445 17.2289 27.6453 17.0093 27.7794 17.0341ZM16.5065 17.2152C16.5232 17.2383 16.5338 17.2742 16.5353 17.3333C16.4914 17.2688 16.4874 17.2341 16.5065 17.2152ZM17.4323 17.3187C17.7475 17.1379 17.1067 17.1467 17.1091 17.2755C17.1118 17.3241 17.42 17.3259 17.4323 17.3187ZM24.9264 17.1996C24.8973 17.1822 25.3455 16.6358 24.6924 17.0477C25.0427 17.1097 24.6738 17.1711 24.6796 17.2187C24.6947 17.3555 25.2817 17.2204 25.4121 17.2787C25.5124 17.0332 25.0228 17.2571 24.9272 17.1996C24.9269 17.1996 24.9267 17.1996 24.9264 17.1996ZM34.1895 16.8761C34.112 17.0208 33.8573 16.9785 33.6842 16.9725C33.763 16.8279 34.0188 16.8703 34.1895 16.8761ZM78.2879 15.4406C77.1415 15.561 76.994 14.9756 78.0448 15.2172C78.065 15.2222 78.358 15.3822 78.2879 15.4406ZM68.2021 15.1757C68.1019 14.9402 68.4156 14.8946 68.6644 14.9727C68.687 14.98 68.7092 14.9885 68.7304 14.9981C68.7857 15.023 68.9917 15.2853 68.75 15.3306C68.7547 15.2295 68.7183 15.148 68.6617 15.094C68.5383 14.9831 68.3339 14.9877 68.2021 15.1757ZM28.0031 16.8692C28.118 16.6984 28.4735 16.8163 28.6625 16.8401C28.5478 16.981 28.1701 16.921 28.0031 16.8692ZM74.4935 15.1025C74.371 15.0823 74.2865 15.3032 74.3075 15.3218C74.4016 15.4071 74.6323 15.2298 74.4935 15.1025ZM26.8522 16.8518C26.8353 16.7504 27.3063 16.6492 27.3409 16.8998C27.2402 16.8825 26.8645 16.9154 26.8522 16.8518ZM33.8651 16.8048C33.7907 16.7543 34.1713 16.6563 34.2861 16.7057C34.2789 16.8139 33.9145 16.8377 33.8651 16.8048ZM72.5112 15.1615C72.4002 15.1413 72.1248 15.1328 72.0924 15.2221C72.0539 15.3337 72.4592 15.2993 72.5112 15.1615ZM93.0948 16.5526C93.1207 16.5937 92.4813 16.8987 92.1962 16.8187C91.6591 16.6746 93.074 16.5365 93.0948 16.5526ZM75.6537 14.9973C75.9967 15.2108 75.6157 15.0037 75.6289 15.2257C75.8606 15.2355 76.4377 15.2512 76.043 15.0298C75.9659 14.9869 75.7618 15.0126 75.6537 14.9973ZM75.3356 14.9206C75.2981 14.9922 75.0471 15.2168 75.2626 15.2023C75.3622 15.1952 75.5243 14.9447 75.3356 14.9206ZM89.3171 16.384C89.0329 16.1462 90.4628 16.4521 90.475 16.4888C90.493 16.5097 90.5042 16.5286 90.5097 16.544C90.5316 16.5233 90.5815 16.5139 90.6358 16.5191C90.7366 16.5507 91.0567 16.5489 91.1597 16.5725C91.2914 16.5765 91.4527 16.6173 91.4771 16.7163C91.4052 16.7052 91.26 16.6995 91.1523 16.6916C91.0475 16.6676 90.7216 16.6695 90.619 16.6373C90.5714 16.6298 90.5333 16.6224 90.5247 16.6142C90.5154 16.6054 90.5087 16.5974 90.5043 16.5896C90.4074 16.7135 89.3879 16.4323 89.3171 16.384ZM86.7038 15.7485C87.1613 15.5411 87.1448 16.0373 87.1068 16.0469C86.6248 16.1626 86.9821 15.8593 86.9714 15.8401C86.9453 15.8067 86.6006 15.9124 86.7051 15.7488C86.7047 15.7487 86.7042 15.7486 86.7038 15.7485ZM88.8094 16.2284C88.8272 16.2248 89.1476 16.2869 89.1586 16.2962C89.3996 16.4987 88.4906 16.3229 88.8094 16.2284ZM31.5413 16.4348C31.7574 16.4813 31.5475 16.665 31.4053 16.6014C31.3935 16.5952 31.3524 16.3937 31.5413 16.4348ZM75.1651 14.9681C75.1165 14.9335 73.8507 14.7945 73.9244 15.0688C74.0333 15.0374 75.4703 15.1894 75.1651 14.9681ZM65.3165 14.6825C65.5599 14.7011 65.2752 14.9407 65.1566 14.8358C65.1121 14.7969 65.2565 14.678 65.3165 14.6825ZM26.2142 16.6219C25.9825 16.7654 26.0274 16.2892 26.2301 16.4509C26.2381 16.4572 26.2233 16.6163 26.2142 16.6219ZM67.2936 14.9357C66.4337 15.0563 66.6854 14.2524 67.7554 14.5657C67.7201 14.601 67.6851 14.6364 67.6504 14.6717C68.8864 14.831 67.7387 14.7339 67.4253 14.7676C67.3083 14.7808 67.402 14.9209 67.2944 14.9367C67.2941 14.9364 67.2939 14.9361 67.2936 14.9357ZM64.1907 14.5891C63.599 13.9709 64.7514 14.421 65.2365 14.3823C64.8012 14.5921 64.3233 14.5215 64.9871 14.815C63.9977 14.7925 64.4448 14.5931 64.3972 14.5701C64.3552 14.5456 64.2154 14.6155 64.1907 14.5891ZM66.1862 14.7169C66.2373 14.703 66.5912 14.8397 66.722 14.826C66.532 15.0171 65.8599 14.8144 66.1862 14.7169ZM84.2601 15.4344C84.3124 15.2861 84.3793 15.1819 84.5963 15.2842C84.5081 15.3463 84.3556 15.3848 84.2601 15.4344ZM8.15252 16.5226C8.06707 16.5171 7.94194 16.5004 7.84959 16.5037C7.74668 16.5071 7.68107 16.5326 7.73689 16.6163C7.74081 16.6209 7.78763 16.6222 7.84959 16.6188C7.96937 16.6117 8.15199 16.5843 8.15252 16.5226ZM71.4725 14.8106C71.4341 14.7913 70.4553 14.7669 70.7911 14.9425C70.8941 14.9958 71.7838 14.9833 71.4725 14.8106ZM76.4833 14.8723C76.4029 14.87 76.0762 14.8966 76.069 14.9333C76.0459 15.0603 76.4472 14.9937 76.4833 14.8723ZM7.27016 16.3634C7.25286 16.3472 6.70536 16.3758 6.76802 16.4513C6.87642 16.5939 7.35293 16.4189 7.27016 16.3634ZM32.3203 16.0611C32.3652 16.0548 32.4267 16.2229 32.4422 16.2246C32.4765 16.2267 33.3079 16.1506 32.9934 16.3717C32.9389 16.409 31.7522 16.3407 31.5937 16.3209C31.5311 16.0898 32.0443 16.3043 32.1668 16.2788C32.1884 16.274 32.2 16.0799 32.32 16.0621C32.3201 16.0617 32.3202 16.0614 32.3203 16.0611ZM85.701 15.5449C85.7402 15.4685 86.1852 15.4793 86.612 15.5195L86.1199 15.4379C86.3602 15.4777 86.5682 15.5437 86.5471 15.6204C86.3951 15.5995 86.2463 15.5785 86.0954 15.5564L86.597 15.6395C86.2818 15.6134 85.9772 15.5795 85.701 15.5449ZM85.0885 15.406C84.8766 15.258 85.4241 15.3313 85.6236 15.4123C85.5996 15.5099 85.1091 15.4265 85.0885 15.406ZM74.6636 14.3069C74.5664 14.3422 74.8627 14.5597 74.7957 14.601C74.7529 14.6267 74.5369 14.5444 74.4672 14.6111C74.4475 14.6323 74.6669 14.8362 74.7308 14.828C74.8217 14.817 74.7349 14.6572 74.8339 14.6569C75.1624 14.656 75.4525 14.7718 75.7598 14.7716C75.7875 14.7713 75.5735 14.6572 75.8098 14.6607C75.8459 14.661 76.0652 14.8301 76.3474 14.8077C76.9754 14.2947 77.4298 14.8075 78.2148 14.6292C78.1874 14.5799 77.6001 14.4429 77.5651 14.4378C76.9074 14.3459 75.7215 14.3269 75.0246 14.3205C74.8461 14.3186 74.9319 14.429 74.8549 14.4325C74.7941 14.4349 74.868 14.2324 74.6636 14.3069ZM8.24578 16.4102C8.18363 16.2605 8.00797 16.2912 7.84959 16.3134C7.78987 16.3212 7.7323 16.328 7.68248 16.3253C7.70805 16.3952 7.7706 16.4175 7.84959 16.4209C7.96995 16.4265 8.13191 16.3825 8.24578 16.4102ZM81.6944 14.7826C81.6182 14.7859 81.3764 14.7129 81.3542 14.7733C81.3242 14.8514 81.6714 14.9189 81.6944 14.7826ZM36.9942 16.0432C37.0026 16.0375 37.2312 16.0436 37.2413 16.0497C37.4498 16.2083 36.7622 16.1892 36.9942 16.0432ZM42.526 15.9186C42.7042 15.8862 42.8775 15.8153 42.943 15.9772C42.8322 15.9569 42.5103 16.034 42.526 15.9186ZM50.59 15.279C50.5199 15.0723 51.1443 15.1196 51.2664 15.1179C51.2388 15.2208 50.6448 15.4293 50.59 15.279ZM84.3571 14.7639C84.6143 14.8264 84.6247 14.4961 84.7782 14.6772C84.8073 14.7085 84.7611 15.3924 84.5035 15.0817C84.4606 15.0268 84.6933 14.907 84.3571 14.7639ZM67.9302 14.5779C68.021 14.438 68.2876 14.4878 68.4658 14.5035C68.4267 14.6087 68.0612 14.5718 67.9302 14.5779ZM6.29977 16.2003C6.156 15.9989 5.46795 16.1483 5.63839 16.2813C5.66096 16.2987 6.20615 16.1927 6.29977 16.2003ZM28.8034 16.2118C29.0856 16.0508 28.4969 16.0069 28.3153 16.1634C28.3982 16.1525 28.7842 16.2225 28.8034 16.2118ZM48.5279 15.4088C48.5401 15.4013 48.8769 15.3821 48.8921 15.3881C49.1823 15.5247 48.236 15.579 48.5279 15.4088ZM40.6893 15.724C40.7905 15.5905 41.5262 15.6705 41.6867 15.7949C41.5437 15.9917 40.5557 15.8918 40.6893 15.724ZM83.3818 14.6975C83.5452 14.7127 83.6924 14.7756 83.8324 14.8558C83.7817 14.9574 83.3894 14.78 83.3818 14.6975ZM49.7618 15.2579C49.7805 15.2564 49.8 15.2665 49.8178 15.2657C49.7988 15.2633 49.7801 15.2603 49.7618 15.2579ZM79.0875 14.3977C78.9028 14.3518 78.9378 14.5536 78.9495 14.5599C79.0897 14.6269 79.2945 14.4495 79.0875 14.3977ZM8.03135 16.1114C8.0044 16.0355 7.93413 16.0159 7.84959 16.0157C7.72454 16.0154 7.57114 16.0526 7.46566 16.0274C7.50167 16.126 7.68535 16.1378 7.84959 16.1293C7.9199 16.1254 7.98599 16.1174 8.03135 16.1114ZM63.5396 14.1824C63.3467 13.976 64.1761 13.7856 64.3512 13.927C64.349 14.0469 63.5686 14.2085 63.5396 14.1824ZM27.9238 15.9469C27.9038 15.8047 27.4976 15.9798 27.5847 16.0463C27.64 16.0887 27.936 16.0352 27.9238 15.9469ZM64.7921 14.0404C64.8815 14.0032 65.086 14.1586 65.0046 14.2386C64.8988 14.3411 64.7685 14.0512 64.7921 14.0404ZM73.2791 14.169C73.2397 14.1469 72.7031 14.2885 72.9232 14.4356C73.0767 14.5378 73.1017 14.3322 73.1379 14.3319C73.1782 14.3329 74.034 14.5917 73.2791 14.169ZM58.5153 14.0216C58.7021 13.9634 58.9318 14.0235 59.1297 14.0172C59.0497 14.1059 58.5968 14.1367 58.5153 14.0216ZM29.4909 15.8949C29.4434 15.838 28.1041 15.8153 28.8665 15.9857C28.9116 15.9953 29.6413 16.0679 29.4909 15.8949ZM84.3571 14.7639C84.3244 14.756 84.2905 14.7427 84.2511 14.7211C84.2918 14.7343 84.3253 14.7504 84.3571 14.7639ZM81.6086 14.4249C81.6763 14.3244 81.3664 14.2811 81.2734 14.3329C81.2401 14.4578 81.6011 14.4385 81.6086 14.4249ZM59.1431 13.8725C59.2568 13.8118 59.4654 13.8731 59.6075 13.8652C59.5839 13.9615 59.1936 13.9696 59.1431 13.8725ZM51.639 14.6041C51.8128 14.6088 52.0038 14.5779 52.1176 14.5278C52.1951 14.4945 52.2409 14.4529 52.2342 14.4067C52.2432 14.4238 52.2597 14.4405 52.2845 14.4558C52.3107 14.4708 52.584 14.3621 52.7123 14.3773C53.0296 14.4143 52.6156 14.5417 52.1352 14.6218C51.4543 14.7343 50.6653 14.7496 51.9048 14.3361C51.8191 14.4253 51.7271 14.5153 51.639 14.6041ZM39.7028 15.4768C39.5523 15.3377 39.1785 15.5278 39.2785 15.5816C39.3476 15.6185 39.8468 15.6172 39.7028 15.4768ZM45.1133 15.1666C45.0718 15.1435 44.6843 15.2661 44.6772 15.342C44.913 15.4089 45.3114 15.2741 45.1133 15.1666ZM38.6288 15.3378C38.5424 15.3183 38.4374 15.5522 38.4478 15.5621C38.5386 15.6443 38.7763 15.4629 38.6288 15.3378ZM83.9626 14.0607C83.8759 13.9785 83.5441 14.0985 83.46 14.2419C83.452 14.2111 83.4227 14.1682 83.3681 14.1145C83.3683 14.1145 83.3685 14.1145 83.3686 14.1145C83.3433 14.0159 80.6344 13.7615 82.4253 14.1817C82.4799 14.1958 82.4189 14.0525 82.6383 14.0963C82.6525 14.0993 82.6504 14.2115 82.6952 14.2212C82.7994 14.241 83.3264 14.3717 83.4394 14.2983C83.4375 14.319 83.4417 14.3394 83.4535 14.3593C83.5563 14.5348 84.0255 14.1222 83.9626 14.0607ZM45.8909 15.0979C45.8074 15.0619 45.56 15.117 45.5413 15.2171C45.6625 15.2583 46.0836 15.1822 45.8909 15.0979ZM29.4458 15.49C29.2921 15.4103 28.9037 15.5657 29.0222 15.6454C29.0953 15.6944 29.6235 15.5816 29.4458 15.49ZM43.408 15.2877C44.3245 15.3609 43.6247 15.268 43.7571 15.1167C43.6398 15.1739 43.5212 15.231 43.408 15.2877ZM87.8661 15.1554C87.7147 15.0957 87.9472 14.8458 88.0933 15.0271C88.1394 15.0846 87.9514 15.1883 87.8661 15.1554ZM96.1746 15.2124C95.9651 14.9976 96.7774 14.9806 96.509 15.2147C96.4973 15.2238 96.1868 15.2204 96.1746 15.2124ZM89.9415 15.2745C89.8216 15.432 89.7582 15.444 89.4864 15.3624C89.9018 15.3719 89.5472 15.168 89.9415 15.2745ZM52.2279 14.389C52.2309 14.3956 52.2333 14.4003 52.2342 14.4067C52.2312 14.4008 52.2292 14.3951 52.2279 14.389ZM37.7912 15.4027C37.6782 15.2591 37.3654 15.2767 37.4618 15.4218C37.4714 15.4352 37.7489 15.5118 37.7912 15.4027ZM83.46 14.2419C83.4673 14.2694 83.4595 14.2854 83.4394 14.2983C83.4412 14.2788 83.4483 14.2612 83.46 14.2419ZM39.4689 15.2412C39.4556 15.3508 39.9452 15.3791 39.9614 15.3657C40.2301 15.1684 39.667 15.2292 39.4689 15.2412ZM26.3328 15.3622C26.3088 15.3738 26.4665 15.6543 26.5621 15.5433C26.6359 15.4571 26.423 15.3183 26.3328 15.3622ZM91.2759 15.3706C91.4754 15.3834 91.7657 15.3946 91.8159 15.5297C91.6764 15.5059 91.2638 15.469 91.2759 15.3706ZM95.8306 15.0903C95.6224 15.2893 95.0661 15.3762 94.707 15.3911C94.6789 15.1908 95.6164 15.1849 95.8306 15.0903ZM84.2581 14.1902C84.2492 14.1795 83.9737 14.0692 83.9904 14.2128C84.0116 14.4217 84.325 14.2787 84.2581 14.1902ZM27.0597 15.5064C27.226 15.4097 26.8396 15.1195 26.6646 15.3472C26.5748 15.4638 27.0318 15.5226 27.0597 15.5064ZM36.8133 15.2322C36.5949 15.3168 37.1408 15.4486 37.219 15.302C37.1116 15.2926 36.8926 15.2022 36.8133 15.2322ZM44.4502 14.8271C43.7059 14.4476 44.1363 15.1883 44.2643 15.1147C44.2826 15.1042 44.4686 14.836 44.4502 14.8271ZM4.58466 15.3653C4.4874 15.4233 4.84949 15.6336 4.90082 15.4952C4.9298 15.4085 4.64444 15.3283 4.58466 15.3653ZM55.1397 13.7275C55.119 13.7313 55.0993 13.7351 55.079 13.7388C55.0937 13.7301 55.1127 13.7255 55.1397 13.7275ZM34.7896 14.7092C35.2906 15.2909 35.2295 14.8371 35.2723 14.8389C35.3617 14.8437 35.5849 14.9993 35.7579 14.97C35.5601 15.04 35.3563 15.11 35.1622 15.1797C35.3179 15.2201 36.6944 15.4118 36.7224 15.3151C36.7614 15.1781 36.3287 15.2294 36.3149 15.2176C36.2961 15.2008 36.2209 14.8235 36.1817 14.8099C36.1198 14.7883 34.9724 14.8007 34.7896 14.7092ZM42.9538 14.965C43.0729 15.0049 43.1123 15.1533 43.1646 15.115C43.1823 15.1019 43.1789 14.9589 43.2394 14.9191C43.1452 14.9344 43.05 14.9497 42.9538 14.965ZM33.9185 15.253C33.7774 15.0803 34.4 15.1373 34.4189 15.1565C34.5266 15.2734 34.0353 15.3942 33.9185 15.253ZM39.2298 15.1208C39.2087 15.1112 38.7167 15.0696 38.7252 15.1663C38.8574 15.2371 39.5046 15.2411 39.2298 15.1208ZM43.3153 14.9058C43.4836 14.9149 43.8223 15.0428 43.7734 14.8294C43.7731 14.8294 43.7729 14.8294 43.7726 14.8294C43.6181 14.8552 43.4655 14.8807 43.3153 14.9058ZM27.6277 15.0469C27.3143 14.7062 27.4644 15.1387 27.741 15.2472C27.8232 15.0924 27.6791 15.1023 27.6277 15.0469ZM26.633 14.7986C26.5454 14.7375 25.6581 14.8112 25.7946 14.9919C25.8434 15.0563 26.3534 14.8896 26.3768 14.9019C26.4127 14.9203 26.251 15.1223 26.5233 15.0806C26.5069 15.0127 26.6627 14.819 26.633 14.7986ZM27.3691 14.8292C27.0595 14.5706 26.9937 15.0524 27.2254 15.052C27.3159 15.0521 27.4133 14.8665 27.3691 14.8292ZM28.629 14.8598C28.5165 14.8151 28.2225 14.7511 28.0198 14.9128C28.2927 14.9242 28.5637 14.9356 28.8381 14.9468C28.8688 14.8558 28.7268 14.899 28.6282 14.8598C28.6285 14.8598 28.6287 14.8598 28.629 14.8598ZM97.8992 13.3173C97.5672 13.2772 98.2228 13.0186 98.2607 13.0383C98.3801 13.1163 98.0511 13.3353 97.8992 13.3173ZM2.6787 10.9921C2.6125 10.9377 2.56863 10.7586 2.41715 10.8524C2.57276 10.9846 2.71302 11.1167 2.86981 11.2489C2.98956 10.9461 2.75036 11.0521 2.6787 10.9921ZM2.10565 9.88558C2.12788 9.87825 2.00781 9.41258 2.28739 9.72347C2.46873 9.93338 1.46911 10.138 1.28274 9.93148C1.48286 9.83553 1.92392 9.94537 2.10565 9.88558ZM0.345394 7.86988C0.332042 7.83275 0.71451 7.77827 0.758803 7.80445C0.99134 7.94245 0.405441 8.06884 0.345394 7.86988ZM1.5642 7.95875C1.38538 7.86832 1.78509 7.81003 1.89889 7.86207C1.91098 7.94874 1.58878 7.97192 1.5642 7.95875ZM93.9091 7.31876C93.7144 7.02541 93.6518 7.71863 93.8826 7.55181C93.8936 7.54389 93.9181 7.33321 93.9091 7.31876ZM0.719289 7.40014C0.893974 7.49057 0.503621 7.54886 0.381622 7.49682C0.373785 7.41024 0.68728 7.38691 0.719289 7.40014ZM93.705 6.58501C93.4849 6.38219 93.6378 7.13318 93.668 7.16093C93.79 7.27102 94.1125 6.92199 94.1697 6.83541C93.6538 7.0306 93.8115 6.67784 93.705 6.58501ZM92.8247 7.11647C92.6365 7.20537 93.1335 7.34202 93.2113 7.11963C93.1183 7.13745 92.877 7.09163 92.8247 7.11647ZM91.9107 6.8681C91.7838 6.82241 91.41 6.70415 91.3307 6.81458C91.4723 6.81222 91.8378 6.98267 91.9107 6.8681ZM91.6675 6.47004C91.4886 6.28008 91.3753 6.74503 91.6264 6.63686C91.6362 6.63269 91.6736 6.48007 91.6675 6.47004ZM90.5885 6.14501C90.4914 5.93968 90.2833 6.37517 90.4829 6.41687C90.5425 6.4284 90.5986 6.16839 90.5885 6.14501ZM93.3783 5.79449C93.2412 5.72643 93.0943 6.07049 93.3862 6.0803C93.2894 6.14059 93.1924 6.19935 93.0925 6.25668C93.4938 6.41201 93.4205 5.95382 93.5295 5.96183C93.6819 5.97093 93.7211 6.34604 93.7035 6.46807C93.8047 6.225 94.3436 6.13681 94.6478 6.02004C94.3496 5.98877 93.8833 5.89851 93.617 5.86771C93.5403 5.85935 93.4797 5.97046 93.4146 5.96552C93.3104 5.95679 93.3866 5.79917 93.3789 5.79444C93.3787 5.79445 93.3785 5.79447 93.3783 5.79449ZM89.2312 5.92366C88.9225 5.65079 89.0592 6.14612 89.2712 6.09916C89.2805 6.09433 89.239 5.93036 89.2312 5.92366ZM0.204702 5.99286C0.719583 6.18643 0.349773 6.44298 1.4273 6.05341C0.972235 6.3292 1.40357 6.25174 1.31495 6.36299C1.24094 6.451 0.974755 6.37811 1.13183 6.55538C0.926814 6.36244 0.0433406 6.4158 0.00389031 6.38447C0.00425907 6.38447 0.00462787 6.38447 0.00499672 6.38447C-0.018685 6.36591 0.0403659 5.9313 0.204702 5.99286ZM92.0783 5.66877C92.025 5.09378 91.8485 5.96956 91.6587 5.4729C91.4034 5.84251 91.7764 5.81849 92.1498 5.86344L91.8263 5.83048C92.0095 5.83666 92.1786 5.86723 92.2191 6.10045C91.2142 5.99704 92.8672 6.68439 92.1896 5.81056C92.7405 6.12799 92.3698 5.70688 92.4546 5.59905C92.5416 5.48439 92.8457 5.6009 92.8213 5.39152C92.8212 5.39153 92.821 5.39154 92.8208 5.39154C92.6405 5.41405 92.4605 5.431 92.2767 5.44229C92.4542 5.89677 92.0656 5.75548 91.9523 5.37886C91.9181 5.43185 91.8804 5.48449 91.8445 5.53707L92.1911 5.5724C92.1533 5.60448 92.1157 5.6366 92.0783 5.66877ZM92.8601 6.08192C92.8408 6.07482 92.4177 6.14621 92.4439 6.23483C92.5025 6.29749 93.1124 6.2036 92.8601 6.08192ZM94.7251 5.71883C94.5701 5.75492 94.3176 5.71673 94.265 5.89933C94.4187 5.87226 94.6803 5.90497 94.7251 5.71883ZM85.3333 4.82682C84.9969 4.91317 85.9594 5.11445 85.7075 4.90481C85.6957 4.8943 85.3511 4.82245 85.3333 4.82682ZM91.4407 5.6654C91.1906 5.45721 91.2438 6.0165 91.4676 5.90381C91.4806 5.89715 91.4522 5.67492 91.4407 5.6654ZM0.623999 5.92645C0.640485 5.79253 1.39599 5.88659 1.52742 5.88543C1.45163 6.00991 0.601776 6.07997 0.623999 5.92645ZM94.8693 5.16673C94.4629 4.77766 94.2027 5.39573 94.1489 5.3925C94.1037 5.3883 94.1323 5.16888 94.1213 5.16516C94.0971 5.16037 93.6516 5.25029 93.6321 5.26502C93.6173 5.27853 93.7412 5.56033 93.6576 5.66556C93.8205 5.48535 94.6871 5.41878 94.727 5.36689C94.7545 5.33268 94.4259 5.09543 94.8688 5.16686C94.869 5.16681 94.8691 5.16677 94.8693 5.16673ZM94.0291 5.34868C94.1659 5.45084 93.8447 5.52224 93.7597 5.48677C93.5736 5.41082 94.0123 5.33912 94.0291 5.34868ZM93.2537 5.33758C93.2147 5.31475 92.8956 5.31188 92.8749 5.44965C93.039 5.62252 93.3427 5.39475 93.2537 5.33758ZM89.13 4.94511C89.0168 4.94275 88.7349 4.78061 88.6941 4.89524C88.8079 4.90002 89.0908 5.06085 89.13 4.94511ZM3.18586 4.87367C2.97548 4.77274 3.45681 4.73151 3.60518 4.77992C3.60777 4.86038 3.20785 4.88234 3.18586 4.87367ZM91.5531 4.51658C91.4614 4.4687 90.0491 4.35783 89.8735 4.38052C90.0209 4.50281 91.4109 4.71033 91.5063 4.6767C91.5279 4.66624 91.5617 4.52359 91.5531 4.51658ZM93.4341 4.48119C93.4956 4.29457 93.5791 4.49768 93.5905 4.4988C93.7004 4.51151 93.9145 4.43385 93.8956 4.6106C93.6947 4.57871 93.3053 4.85236 93.4341 4.48119ZM89.1828 4.13752C88.7289 4.1198 89.5443 4.46163 89.4654 4.25731C89.4605 4.24526 89.2289 4.13931 89.1828 4.13752ZM91.729 4.48879C91.7803 4.44088 92.0285 4.45909 92.3428 4.50495L91.9113 4.46097C92.2281 4.48496 92.5966 4.52785 92.6895 4.52378C92.566 4.79225 92.4535 4.59299 92.2777 4.60326C92.2296 4.6062 92.2394 4.71651 92.2343 4.71658C92.1494 4.71935 92.217 4.59403 92.1645 4.59045C92.1514 4.58966 92.0385 4.60981 91.9015 4.61794L92.3207 4.66066C91.9856 4.6391 91.615 4.59688 91.729 4.48879ZM93.4667 4.35303C93.5044 4.2505 94.0637 4.1106 94.0932 4.12749C94.3089 4.29337 93.5115 4.39227 93.4667 4.35303ZM91.6226 4.23636C91.8225 3.95328 92.571 4.26647 92.0193 4.34389C91.9673 4.35068 91.7735 4.18902 91.6226 4.23636ZM89.2828 3.85809C89.263 3.84602 88.82 3.69817 88.7916 3.7916C88.8508 3.84391 89.5099 4.00161 89.2828 3.85809ZM89.5766 3.57482C89.5651 3.57508 89.6388 3.77996 89.4303 3.71827C89.413 3.71266 89.4185 3.49899 89.1383 3.52492C89.0812 3.53034 88.9707 3.6518 88.9749 3.66149C89.1942 4.04612 90.1445 3.56253 89.5766 3.57482ZM93.4547 4.18125C93.4138 4.09625 93.4494 3.82382 93.5312 3.94791C93.567 4.00135 93.5386 4.16706 93.4547 4.18125ZM87.6283 3.47624C87.7532 3.41731 87.6537 3.35093 87.481 3.2941C87.3113 3.23787 87.0427 3.18652 87.0125 3.20168C87.0474 3.31114 87.6264 3.49334 87.6283 3.47624ZM3.67708 3.62949C3.67684 3.62949 3.6766 3.62949 3.67636 3.62949C3.9362 3.66601 3.77544 3.80009 3.7873 3.8043C4.35466 4.00123 4.19838 3.69755 4.28834 3.66171C4.48079 3.5842 4.44724 3.9535 4.76463 3.80039C4.2438 4.0265 4.71576 3.93171 4.73212 4.0631C4.78854 4.59926 4.0411 3.81204 3.77036 3.92442C3.73298 3.93998 4.00493 4.1111 3.91038 4.15978C3.61064 4.31751 2.66708 3.48983 3.67708 3.62949ZM93.5771 3.91744C93.6206 3.75648 94.1822 3.80178 94.068 3.95616C94.0488 3.98611 93.5053 4.16338 93.5771 3.91744ZM50.0896 2.7451C50.2006 2.63007 50.0226 2.56005 49.8777 2.56201C49.8089 2.56277 49.7467 2.58058 49.7276 2.61918C49.7101 2.65375 49.8107 2.71703 49.9125 2.74824C49.9872 2.77007 50.0586 2.77638 50.0896 2.7451ZM47.0264 2.58323C46.7989 2.63255 46.5948 3.2208 46.8835 3.10649C46.9159 3.09397 47.061 2.6592 47.0264 2.58323ZM65.432 1.66374C65.1428 1.44047 65.1343 1.81832 65.3583 1.82803C65.4366 1.83157 65.4408 1.6708 65.432 1.66374ZM53.6384 1.85856C53.5994 1.84912 53.1763 1.92982 53.2034 2.01441C53.3689 2.04203 53.8852 1.91951 53.6384 1.85856ZM65.5298 1.6167C65.3492 1.67228 65.6364 1.96591 65.8514 1.71394C65.7507 1.72867 65.5491 1.61105 65.5298 1.6167ZM91.1887 3.3334C91.0372 3.46857 90.6921 3.37129 90.4961 3.36791C90.5029 3.16647 91.0295 3.34825 91.1887 3.3334ZM48.0161 2.70834C47.8219 2.87384 48.2853 2.93534 48.2215 2.75424C48.2138 2.74509 48.024 2.70145 48.0161 2.70834ZM73.9711 1.82313C73.7881 1.94145 74.3649 2.10706 74.2075 1.89531C74.1996 1.88667 73.981 1.81655 73.9711 1.82313ZM76.5057 1.91255C76.3662 1.87094 75.7731 1.87857 76.0031 1.99728C76.0393 2.01551 76.4936 2.02212 76.5057 1.91255ZM4.30406 3.51718C4.22998 3.31094 4.66309 3.36003 4.7243 3.39608C4.74666 3.41107 4.40706 3.7855 4.30406 3.51718ZM63.3832 1.52976C63.2228 1.55046 62.82 1.49167 62.7462 1.59853C62.9344 1.57966 63.4296 1.74647 63.3832 1.52976ZM48.9396 2.58368C48.7378 2.38809 48.4422 2.45047 48.5556 2.73051C48.8853 2.66459 48.4797 2.47695 48.9396 2.58368ZM66.4349 1.43806C66.3335 1.41432 66.235 1.6894 66.2456 1.70341C66.351 1.83698 66.528 1.55372 66.4349 1.43806ZM57.1697 1.50467C57.1585 1.38452 56.7549 1.45285 56.8113 1.52843C56.8317 1.55347 57.1781 1.60153 57.1697 1.50467ZM86.7593 2.48832C86.5848 2.34278 87.2043 2.35365 87.3154 2.50726C87.3637 2.70487 86.7934 2.50689 86.7593 2.48832ZM69.3103 1.61906C69.3265 1.49077 69.0405 1.50153 68.9675 1.57452C68.9434 1.59653 68.9381 1.62427 68.9656 1.65565C68.9729 1.66443 68.9826 1.67349 68.9952 1.68279C69.0445 1.72097 69.3056 1.67866 69.3103 1.61906ZM74.7472 1.46492C74.3588 1.67457 75.9816 1.8382 75.557 1.56986C75.5267 1.55073 74.7807 1.44721 74.7472 1.46492ZM77.4078 1.61975C77.3408 1.5957 77.3795 0.99672 77.6562 1.2305C77.6927 1.26083 77.5192 1.41757 77.5491 1.45409C77.5667 1.47484 78.1731 1.56516 78.2017 1.55156C78.2319 1.536 78.1986 1.34356 78.2293 1.32234C78.263 1.2986 78.6369 1.4715 78.8347 1.47583C79.2046 1.4836 79.2505 1.32452 79.2803 1.32436C79.3688 1.32451 79.5185 1.44012 79.6998 1.44276C80.0122 1.44712 80.3793 1.43744 80.767 1.43825C81.5835 1.4399 82.4747 1.50038 83.0251 1.76522C82.2729 1.57584 81.5675 1.69153 80.8552 1.71908C80.9162 1.62723 80.8604 1.60478 80.7632 1.61235C80.5386 1.63236 80.0697 1.85285 80.5621 1.58484C80.2346 1.65795 77.6206 1.69326 77.4085 1.61976C77.4083 1.61976 77.408 1.61976 77.4078 1.61975ZM46.0772 2.49638C46.21 2.28134 45.458 2.38432 45.4045 2.62433C45.5111 2.65044 46.0653 2.52109 46.0772 2.49638ZM49.2112 1.63421C49.2646 1.58901 49.2435 1.1884 49.6005 1.32882C49.6008 1.32876 49.6011 1.32871 49.6014 1.32865C49.7076 1.3691 49.6168 1.48519 49.6405 1.51607C49.6426 1.51897 49.6615 1.52848 49.6868 1.5423C49.7744 1.58882 49.9346 1.6849 49.7433 1.74624C49.7374 1.74812 49.7316 1.74988 49.726 1.75152C49.3818 1.85207 49.6472 1.46169 49.4534 1.49276C49.4265 1.49793 49.1082 1.7721 49.1348 1.81529C49.1379 1.82044 49.2392 1.75709 49.2596 1.77358C49.339 1.83533 49.3281 1.96389 49.3385 1.96814C49.3601 1.97347 49.5449 1.87253 49.7376 1.81358C49.877 1.77109 50.009 1.7532 50.0635 1.82204C50.0788 1.8423 49.9421 1.90426 49.7668 1.96954C49.4833 2.07607 49.1281 2.18066 49.102 2.16496C49.0755 2.14933 49.0305 1.80544 49.0012 1.77559C48.9884 1.76117 48.6289 1.94677 48.5747 1.92142C48.559 1.91431 48.5465 1.90602 48.5372 1.89905C48.611 1.99746 48.2575 2.03744 48.2505 1.9158C48.2531 1.86776 48.4962 1.86309 48.5074 1.86967C48.5117 1.87263 48.5156 1.87698 48.5192 1.87987C48.4558 1.7595 49.2459 1.64407 49.0433 1.47797C49.2516 1.33547 49.0572 1.76514 49.2112 1.63421ZM50.3551 1.19995C50.3343 1.2414 50.3142 1.28268 50.2943 1.32392C50.7302 1.1463 51.4045 1.17408 52.2428 1.02662C52.4537 0.990646 52.1719 0.81183 52.4619 0.825397C52.6953 0.836477 52.978 1.00458 52.861 1.06842C52.833 1.0834 52.3522 1.02246 52.135 1.07622C51.5024 1.23292 51.7138 1.39121 51.6745 1.40308C51.6345 1.41595 51.2444 1.35636 51.072 1.39827C50.6363 1.50347 50.487 1.65639 49.9707 1.60135C50.227 1.4225 50.0143 1.18582 50.3551 1.19995ZM71.6871 1.11135C71.7076 0.991223 72.0506 1.10149 72.175 1.08498C72.1543 1.20546 71.8113 1.09499 71.6871 1.11135ZM19.9415 2.58439C19.836 2.78229 20.6334 2.82838 20.4227 2.66474C20.3766 2.62843 20.042 2.58546 19.9415 2.58439ZM23.5219 2.6892C23.6281 2.63404 23.1986 2.49406 23.2 2.6469C23.201 2.69593 23.5082 2.69638 23.5219 2.6892ZM58.5806 0.55714C58.6023 0.550502 58.9188 0.59015 58.9286 0.600187C59.1405 0.806631 58.0997 0.700898 58.5806 0.55714ZM27.8664 2.4171C27.4971 2.54965 28.6119 2.5964 28.2701 2.43421C28.2533 2.42633 27.8843 2.41067 27.8664 2.4171ZM29.4149 2.36717C29.3269 2.37497 28.9328 2.31437 28.928 2.37467C28.9212 2.47199 29.3722 2.53421 29.4149 2.36717ZM66.5504 0.69784C66.5304 0.473924 66.9631 0.669203 67.1209 0.648525C67.1451 0.873128 66.7103 0.680583 66.5504 0.69784ZM62.9549 0.345052C63.2187 0.33233 63.4525 0.327772 63.6548 0.329154C65.0818 0.350859 64.8568 0.580261 63.6484 0.519056C63.4019 0.508076 63.1202 0.486498 62.8082 0.450148C62.8082 0.30737 62.8024 0.352557 62.9549 0.345052ZM66.132 0.531577C66.0482 0.668659 65.8081 0.608984 65.6263 0.584756C65.6695 0.488325 66.0207 0.549463 66.132 0.531577ZM18.9914 2.28174C19.1309 2.10125 19.7393 2.32134 19.6317 2.39596C19.6065 2.41211 18.9418 2.38094 18.9914 2.28174ZM58.7767 0.363839C58.7186 0.147725 59.4313 0.228111 59.4852 0.27634C59.7055 0.467644 58.8344 0.314438 58.7767 0.363839ZM69.3503 0.612771C69.4634 0.445498 69.7806 0.538394 69.9854 0.543793C69.8918 0.687373 69.5215 0.619286 69.3503 0.612771ZM67.9375 0.442208C67.9496 0.436263 68.2149 0.460466 68.2284 0.468573C68.4432 0.641427 67.6871 0.573517 67.9375 0.442208ZM3.31066 2.00149C3.31905 1.99603 3.54492 2.00684 3.55428 2.01321C3.75606 2.17597 3.08015 2.14271 3.31066 2.00149Z" fill="black"/>
</svg>
