<svg width="83" height="17" viewBox="0 0 83 17" fill="none" xmlns="http://www.w3.org/2000/svg">
<path d="M7.24368 16.524C7.29249 16.5037 7.50623 16.5531 7.5902 16.5445C7.49163 16.7592 7.05897 16.5977 7.24368 16.524ZM16.302 0.938467C16.2271 0.991529 16.1527 1.04459 16.0786 1.09765C16.2914 1.13213 16.5711 1.09318 16.7598 1.14355C16.791 1.15201 16.71 1.30564 16.7839 1.3125C16.8579 1.31932 16.8435 1.10937 16.9518 1.08691C17.0442 1.06815 17.394 1.14916 17.6469 1.18681C17.7206 1.19843 17.7851 1.20591 17.8299 1.20508C18.5454 1.19091 19.2778 1.07099 20.0061 1.1581C19.2523 1.31351 20.0095 1.47153 20.2253 1.40417C20.2753 1.38858 20.2602 0.998282 21.0079 1.0964C21.4859 1.15864 21.0468 1.7168 21.8451 1.43699C21.2348 1.04681 21.8351 1.074 22.3095 1.06083C22.3881 1.0585 23.0703 1.11684 23.3589 1.09937C23.4582 1.0933 23.6101 0.888756 23.7433 0.883304C23.8349 0.879705 23.9044 0.991433 24.0414 0.985645C24.6904 0.959993 25.2996 0.950768 25.9461 0.987866C25.5703 1.51366 26.242 1.21146 26.2735 1.23654C26.4277 1.37901 25.7308 1.42039 26.0063 1.50931C26.3983 1.4926 26.761 1.47589 27.1442 1.4591C26.832 1.39501 27.5568 1.01612 27.6935 1.18782C27.6455 0.723709 29.4165 1.58916 29.7024 1.43347C29.759 1.4006 29.389 1.17191 30.244 1.27516C30.3369 1.28663 30.302 1.42677 30.3508 1.41361C30.38 1.4057 30.556 0.960137 30.7463 1.20573C30.8167 1.29536 30.37 1.58879 31.3494 1.46903C30.9676 1.01684 32.6828 1.22042 33.0114 1.33296C32.947 1.27227 32.8826 1.21157 32.8183 1.15087C33.1361 1.31422 33.1943 1.15999 33.2655 1.16818C33.5476 1.20111 33.9388 1.35521 34.2053 1.34022C34.5175 1.32295 34.5174 1.04115 34.8842 1.14958C34.797 1.08769 34.7099 1.02579 34.623 0.963894C34.8749 0.978065 35.1318 0.992192 35.3778 1.00633C34.8042 1.38129 35.5016 1.02372 35.5483 1.01551C35.622 1.00168 35.5166 1.15476 35.6399 1.13532C35.6527 1.13214 35.6336 0.988401 35.8241 0.97158C36.2229 0.93691 36.1609 1.11793 36.3291 1.11528C36.3446 1.11429 36.2897 0.98494 36.5812 0.953206C37.5107 0.852103 36.5763 1.05252 36.5414 1.07055C36.4953 1.09433 36.813 1.63462 36.0282 1.44549C36.2912 1.50566 36.319 1.74514 36.3486 1.75098C36.3746 1.75578 36.833 1.72032 36.8586 1.71196C37.0846 1.62973 36.8849 1.46677 36.9288 1.43726C36.9689 1.41347 37.5094 1.62472 37.6368 1.13173C37.9003 1.5849 37.4869 1.54498 37.0522 1.61648C36.9889 1.70995 37.468 1.79871 37.4936 1.79835C38.1144 1.79501 37.7693 1.42276 37.9042 1.18338C37.9751 1.05812 38.2304 1.31196 37.9944 0.977916C38.5608 0.940183 38.2181 1.13576 38.2547 1.16434C38.3101 1.20632 38.5087 1.10945 38.5337 1.12213C38.5704 1.14091 38.4437 1.25745 38.5882 1.29769C38.6122 1.30352 38.8441 1.10291 38.5436 1.0088C38.9443 1.03545 38.9128 0.865362 39.0482 1.20778C39.3168 0.557641 39.2471 1.59047 39.3544 1.62634C39.6401 1.72089 39.5552 1.21177 39.5701 1.18686C39.6724 1.0272 40.4685 1.19845 40.6673 1.12401C40.5905 1.49138 40.0343 1.13109 39.9117 1.20285C39.5011 1.44164 40.4934 1.38356 40.1963 1.84606C40.3214 1.71883 40.4467 1.59159 40.5723 1.46434C40.8048 1.75965 40.4788 1.89056 41.0991 1.77912C41.2001 1.52273 40.6601 1.82173 40.7676 1.61964C40.8322 1.50103 41.1906 1.47382 41.1964 1.41142C41.2034 1.33631 40.8813 1.42691 40.931 1.31119C41.0417 1.0615 42.2179 1.29261 41.3235 1.43323C41.5728 1.42769 41.7044 1.92262 41.9211 1.76704C42.0617 1.66605 41.2646 0.985842 42.4556 1.10495C42.482 1.33885 41.9796 1.17664 41.967 1.1945C41.9489 1.22053 42.0422 1.74814 42.0581 1.77413C42.1122 1.85971 43.3336 1.57016 43.5855 1.83396C43.4818 1.52936 44.5006 1.77408 44.6129 1.68035C44.6424 1.65449 44.5303 1.46821 44.5619 1.44822C44.7591 1.32924 45.2976 1.65963 45.5412 1.66669C45.8164 1.67472 45.7807 1.51346 45.7961 1.51367C45.9174 1.52188 45.8212 1.63198 45.8954 1.63119C46.0068 1.62996 46.7808 1.64715 46.8202 1.62401C46.8316 1.61682 46.7035 1.43323 46.8726 1.39708C46.9013 1.39081 46.8865 1.60965 47.3846 1.51169C47.9804 1.39386 46.9679 1.24265 47.2142 1.01188C47.6006 1.33528 47.5852 1.01221 47.6896 1.03684C47.7256 1.04583 47.9957 1.31866 48.2882 1.29913C48.0786 1.34527 47.8694 1.39138 47.6608 1.43747C47.8664 1.48418 48.2662 1.42165 48.4371 1.47481C48.5204 1.50068 48.4535 1.7269 48.6341 1.71946C48.6726 1.71664 48.8202 1.16565 48.3493 1.41588C48.31 1.21981 48.5358 1.34602 48.64 1.2897C48.6557 1.28092 48.7156 0.952446 48.8508 1.1553C48.8836 1.20519 48.5398 2.16475 49.4383 1.4653C49.4671 1.44275 49.3652 1.3237 49.3934 1.29864C49.4136 1.28166 49.6406 1.32838 49.6659 1.31118C49.6915 1.29274 49.5805 1.16277 49.6109 1.13679C49.7669 1.00292 49.9774 1.52017 49.653 1.48317C49.7617 1.54645 49.8706 1.60973 49.9796 1.673C49.8604 1.28287 50.1491 1.56163 50.2996 1.54838C51.265 1.46361 50.6161 1.2145 50.7811 1.08156C51.0472 0.868085 50.8478 1.53898 51.2445 1.3346C51.2809 1.31548 50.7979 1.03548 51.7383 1.18786C51.6024 1.20008 51.4612 1.21234 51.3229 1.22456C51.4067 1.60213 51.8232 1.1944 51.8542 1.18883C52.2194 1.13375 51.9728 1.27226 52.5155 1.07275C52.564 1.05484 52.6709 1.14725 52.7747 1.09977C53.205 0.90412 52.2039 0.988388 52.176 0.83545C52.1616 0.760584 53.2388 0.769978 53.2772 0.805212C53.436 0.961731 52.7882 0.879164 52.9133 1.07412C52.9593 1.14343 54.4958 0.986362 54.8023 1.05962C55.1583 1.145 55.324 1.65622 55.3206 1.08001C55.4266 1.64461 55.5118 1.25785 55.5575 1.2613C56.1101 1.3082 56.1121 1.31388 56.5804 1.25496C56.684 1.24213 56.7734 1.41284 56.8099 1.38348C56.8311 1.36576 56.7892 1.18253 56.8934 1.12479C57.0375 1.04582 57.917 1.22546 57.984 1.32624C58.0504 1.42706 57.6132 1.37422 57.6932 1.54029C58.0084 1.55383 58.3151 1.50922 58.6297 1.52337C58.7609 1.52974 58.6948 1.6473 58.7515 1.649C58.7755 1.65018 59.2279 1.54228 59.2083 1.49939C59.1629 1.39978 57.7598 1.48239 58.1272 1.27391C58.1984 1.23364 58.4549 1.50009 58.4111 1.17318C59.6589 1.23385 60.9233 1.29346 62.1752 1.35232C61.4559 1.60603 60.6474 1.39662 59.888 1.42824C59.7843 1.43227 59.434 1.40464 59.4785 1.56962C60.1206 1.60524 60.9232 1.50967 61.5372 1.6101C61.5569 1.61343 61.4864 1.76295 61.5604 1.78562C61.6988 1.82794 62.1458 1.58271 62.2225 1.64376C62.2356 1.65805 61.9817 1.85715 62.0612 1.98074C62.2651 2.29788 62.3073 1.5894 62.4796 1.59566C62.6135 1.60082 63.5119 1.93181 63.7298 1.71268C63.9625 1.47919 63.0722 1.58728 63.1359 1.39796C63.7356 1.20097 64.3504 1.39523 64.9235 1.36398C64.9336 1.36324 64.8439 1.21674 64.9716 1.19437C65.1938 1.15543 65.2552 1.3641 65.3642 1.39615C65.4832 1.43022 65.8915 1.39462 65.948 1.47022C65.9552 1.48014 65.8748 1.68905 65.8622 1.69506C65.6844 1.78315 65.6173 1.51435 65.601 1.51111C65.5398 1.50172 65.4811 1.60582 65.4246 1.60043C65.3318 1.59143 65.2795 1.49656 65.1573 1.48977C65.0729 1.48473 65.1567 1.66714 65.0754 1.65984C65.0455 1.65642 64.7187 1.24169 64.6945 1.6698C64.6902 1.80505 67.3077 1.94226 67.5717 1.83022C67.3455 1.78204 67.1197 1.73382 66.8941 1.68557C67.3522 1.80433 67.8982 1.45457 67.9439 1.95961C69.6316 1.97637 71.3259 1.99129 73.0205 2.00433C73.3225 2.04235 73.1626 2.37005 73.6573 2.26709C73.5272 2.16577 73.3973 2.06443 73.2674 1.96308C73.5222 2.0315 74.6537 2.15396 74.8361 2.08365C74.8597 2.07445 74.8874 1.77985 75.1698 1.7496C75.4197 1.72287 75.4631 1.94247 75.5975 1.98229C75.7101 2.01511 75.835 1.95513 75.8685 1.96669C75.8943 1.97597 75.9068 2.11051 75.9687 2.13289C76.1641 2.20202 75.9999 1.82555 76.2005 2.25764C76.1539 2.27509 76.1072 2.29254 76.0606 2.30998C76.296 2.3688 76.6201 2.5607 76.2764 2.66455C76.2174 2.68247 76.266 2.55121 76.2217 2.55224C74.4904 2.60748 75.8769 2.83624 76.4815 2.62272C76.6409 2.81305 77.5152 2.67891 77.5453 2.71637C77.5868 2.77074 77.4396 2.92789 77.6389 3.05747C77.6815 3.08496 78.847 2.95458 78.4313 3.21925C78.3452 3.27388 77.785 3.22886 77.6492 3.23895C77.9752 3.64233 78.7084 3.04167 78.7928 3.05505C79.1323 3.11232 78.1499 3.42229 78.9128 3.45517C79.4999 3.48028 78.9441 3.21767 79.1673 3.09663C79.2926 3.02874 79.9629 3.31673 79.9372 2.92717C80.1646 2.88101 80.0352 3.0901 80.0636 3.10439C80.092 3.1169 80.5365 2.99125 80.6832 3.07049C80.701 3.08035 80.6497 3.28413 80.6682 3.30034C80.7041 3.32803 81.1346 3.27876 81.1516 3.26123C81.1624 3.24907 81.0559 3.07375 81.0973 3.02985C81.1456 2.97925 81.5617 3.01248 81.5836 2.96128C81.6144 2.88394 81.1027 2.94497 81.1841 2.74481C81.4213 2.78995 81.8038 2.64962 81.9567 2.48664C81.9193 2.53311 81.6902 2.54442 81.6103 2.52996C81.6417 2.23862 82.1341 2.23235 81.9706 2.46584C82.075 2.34009 82.0006 2.27609 82.0584 2.15827C82.0736 2.12841 82.2256 2.11915 82.2539 2.06822C82.2574 2.05812 82.0982 1.95177 82.1284 1.89209C82.183 1.78426 82.6448 1.79856 82.6832 1.82572C82.7911 1.90277 82.4169 2.00666 82.3882 2.12987C82.3841 2.1488 82.7091 2.38223 82.7145 2.40334C82.738 2.63054 82.3784 2.47404 82.4234 2.6781C82.5124 2.71954 82.6014 2.76097 82.6904 2.80239C82.3548 3.01713 81.7247 2.92347 81.5678 3.16283C82.0692 3.08224 82.5967 3.07941 82.6068 3.61101C82.6112 3.83489 82.3966 3.9707 82.4062 4.02745C82.4425 4.23045 82.7397 4.00282 82.7511 4.01334C82.7605 4.02555 82.7649 4.03755 82.7652 4.04931C82.7652 4.04932 82.7652 4.04932 82.7652 4.04933C82.7677 4.16859 82.3392 4.26353 82.3188 4.31842C82.2846 4.4159 82.4845 4.81 82.4861 4.89806C82.4797 4.9159 82.1753 5.01654 82.2819 5.16804C82.3897 5.32108 82.6582 5.31885 82.6679 5.33477C82.7211 5.42656 82.2535 5.52112 82.2407 5.57623C82.2339 5.60412 82.4895 5.76917 82.4979 5.81797C82.5052 5.86699 82.3159 5.97823 82.2436 6.13491C82.1898 6.25132 82.3555 6.33624 82.3271 6.3549C82.3067 6.36732 81.8633 6.37459 81.8419 6.39528C81.8101 6.42592 81.9168 6.56149 81.9024 6.59623C81.882 6.6462 81.7378 6.59945 81.7575 6.65002C81.7722 6.68773 82.3372 7.15093 82.3364 7.27779C82.3345 7.49423 81.736 7.00883 82.3011 7.85094C82.305 7.85647 82.4371 7.79302 82.4409 7.7982C82.5265 7.95351 82.1041 8.20405 82.6259 8.15085C81.6594 8.44397 82.5116 8.47854 82.3755 8.84574C82.3228 8.9869 81.9472 9.05246 81.9459 9.07349C81.9862 9.25032 82.1034 9.1101 82.146 9.19632C82.1695 9.24452 81.8362 9.43927 81.9147 9.55961C81.9551 9.62164 82.3127 9.59183 82.3277 9.60377C82.4719 9.7164 82.3007 9.84454 82.3335 9.92599C82.3554 9.98062 82.5716 9.98044 82.5775 9.99023C82.587 10.0107 82.2981 10.2392 82.2386 10.3187C82.1934 10.3798 82.3698 10.4704 82.338 10.4973C82.1458 10.6583 81.722 10.2669 82.134 10.8191C82.1592 10.8529 82.3105 10.8359 82.3151 10.8426C82.4121 10.9996 82.1333 11.0191 82.0861 11.1502C82.005 11.3761 82.4035 11.2428 82.0733 11.4074C82.3265 11.5487 82.4659 11.5397 82.7581 11.4927C81.9492 11.6237 81.6751 12.2098 82.5754 12.1764C82.2886 12.1734 82.3273 12.5001 82.2419 12.5077C82.1888 12.512 81.7669 12.195 81.9724 12.9216C81.9981 13.0123 82.2481 12.8911 82.1729 13.0796C81.5664 13.0445 82.1625 13.1987 82.1637 13.2233C82.1643 13.6539 80.6787 13.3317 80.4268 13.3857C80.1323 13.4485 79.8765 13.7928 79.8123 13.7945C79.6011 13.7988 79.773 13.6232 79.7246 13.5608C79.6754 13.499 79.0818 13.8405 79.0516 13.823C78.9341 13.7525 79.048 13.5462 79.0357 13.5361C78.8892 13.4139 78.0888 13.589 77.8624 13.5458C77.8726 13.678 78.3239 13.68 78.046 13.8978C77.7217 14.1519 77.6912 13.5688 77.6822 13.5433C76.1726 13.577 74.6639 13.6092 73.1593 13.6398C73.1828 13.95 74.1632 13.6992 74.1867 13.7397C74.3214 13.9795 72.6606 14.003 72.4515 13.8967C72.6081 13.9612 72.7649 14.0257 72.9218 14.0901C72.6616 14.4514 72.0661 13.9974 71.6855 14.1611C71.5625 14.2142 71.8025 14.3481 71.7978 14.3576C71.6608 14.4984 71.4359 14.3952 71.5998 14.2064C71.2631 14.3902 71.3096 14.1926 71.0491 14.182C71.0357 14.1816 71.1497 14.3238 70.9448 14.3868C70.849 14.4161 70.3345 14.4246 70.2663 14.5517C70.2386 14.6051 70.5099 15.1596 70.5348 14.6784C71.0973 14.904 70.7099 14.4566 70.9273 14.4642C70.9607 14.4662 70.8879 14.7357 71.4338 14.6007C71.3369 15.0862 70.7008 14.7344 70.594 14.7947C70.3732 14.9186 71.2948 15.1541 71.4579 14.7742C71.3851 15.153 71.5239 14.8241 71.7293 14.8363C71.9542 14.8495 71.8581 14.9635 71.9797 14.9622C72.3125 14.9596 72.1702 14.6953 72.4486 14.9311C72.1684 14.1917 72.9182 14.8252 73.135 15.0164C72.7873 15.06 72.4363 15.1035 72.0878 15.147C72.1084 15.1857 72.1291 15.2244 72.1497 15.2632C72.0575 15.2591 71.9654 15.2551 71.8733 15.251C71.8874 15.2134 71.9016 15.1757 71.9157 15.138C71.4453 15.389 71.3257 15.1173 71.287 15.1149C70.7904 15.091 70.215 15.1023 69.7105 15.1091C69.635 15.1101 69.6902 15.3528 69.1371 15.1705C68.9609 15.1124 69.1236 14.9206 68.9253 14.9519C68.6845 15.4703 68.6832 15.0597 68.6093 15.0602C68.3976 15.0633 68.2702 15.1927 68.2506 15.1943C67.9901 15.2181 67.6022 15.2024 67.3144 15.2254C67.309 15.2275 67.4614 15.3834 67.2733 15.3393C67.2071 15.3236 66.6074 14.657 66.097 14.884C66.2312 14.9277 66.3656 14.9715 66.5 15.0152C66.3419 14.9538 65.242 15.1388 65.5138 15.3158C65.6831 15.424 66.0777 14.9835 66.1282 15.4012C65.7632 15.2812 63.7277 15.4954 63.5727 15.3999C63.5507 15.3863 63.683 15.2489 63.6527 15.2319C63.6292 15.219 63.1668 15.257 63.1029 15.2057C63.0656 15.1752 63.271 15.0894 63.2536 15.0407C63.2383 15.006 62.6547 14.9552 62.6238 15.1257C62.7657 15.0556 63.1689 15.1102 62.9597 15.2563C62.9327 15.2744 62.7908 15.1665 62.7581 15.1895C62.4542 15.4018 63.3707 15.3403 63.5082 15.3402C62.9398 15.5643 62.0466 15.3197 61.3888 15.4689C61.1202 15.3304 61.7821 15.2475 61.4786 15.1338C60.8494 14.898 61.3142 15.3316 61.295 15.3499C61.142 15.4946 60.6003 14.7351 60.6064 15.3179C60.3766 15.2328 60.4497 15.1585 60.1282 15.2384C60.1711 15.2783 60.2139 15.3182 60.2568 15.3581C59.9022 15.6998 59.1384 14.8565 59.1944 14.7909C59.3442 14.6154 59.7403 14.8822 59.774 14.8753C59.8238 14.865 59.9539 14.2721 60.5062 14.7946C60.725 14.3954 59.6383 14.5368 60.1302 14.2608C59.7937 14.3091 58.429 14.0481 58.2275 14.2243C58.2041 14.2473 58.3184 14.6413 57.9761 14.4438C57.8136 14.3497 58.2029 14.341 58.1281 14.2517C57.8965 13.9782 54.8148 14.1862 54.2342 14.2057C54.1965 14.2065 54.2092 14.0837 54.1721 14.0852C54.06 14.0897 53.6397 14.2765 53.4335 14.2218C53.8626 14.445 53.0333 14.4702 52.8236 14.447C52.5045 14.4118 52.5226 14.1958 52.3848 14.1511C51.8579 13.9787 51.0319 14.4981 50.6166 14.0223C50.6426 14.4976 49.9022 13.7949 49.5706 13.7932C49.3076 13.7919 48.9266 14.1094 49.2843 14.2984C48.8284 14.28 48.352 14.3722 47.9293 14.4041C47.8594 14.4095 47.9546 14.2682 47.8355 14.2818C47.8247 14.284 47.8107 14.4219 47.7085 14.437C46.8648 14.563 47.2715 14.2673 47.1126 14.1823C47.0228 14.1348 46.9567 14.1112 46.9082 14.1037C47.4099 14.0733 47.9707 14.0152 48.1247 14.0101C47.9927 13.7068 47.0327 14.0763 46.7451 13.9964C46.7353 13.9935 46.7684 13.8255 46.7584 13.8244C46.7582 13.8244 46.758 13.8244 46.7578 13.8244C46.6507 13.8123 45.9756 13.8787 46.116 14.0777C46.1537 14.1309 46.4641 14.1288 46.8346 14.1081C46.7346 14.1463 46.8107 14.3336 46.7931 14.3418C46.5788 14.4361 46.0541 14.2562 45.8693 14.2327C45.827 14.2275 45.8308 14.3479 45.8239 14.3482C45.6556 14.322 45.7223 13.9778 45.5524 14.3334C45.2455 13.907 46.1221 14.2661 46.0592 13.9883C46.0132 13.7745 44.0583 13.9018 44.0668 14.239C44.0599 14.203 44.0328 14.1584 43.9775 14.1077C43.8546 13.9952 43.3146 14.0338 43.2224 14.0965C43.2068 14.1088 43.2149 14.4363 43.1955 14.4394C43.1486 14.4472 42.4757 14.1942 42.2296 14.3891C42.364 14.4343 42.4986 14.4794 42.6335 14.5246C41.8218 14.5319 41.9491 14.6286 42.2189 14.7251C42.2324 14.7259 42.2456 14.7383 42.2585 14.7396C42.468 14.8108 42.7378 14.8791 42.7421 14.9049C42.7559 15.0035 41.3844 15.0656 41.6471 14.7604C41.683 14.7187 42.3182 14.8506 42.0029 14.6354C41.9475 14.5978 41.5415 14.6618 41.5203 14.638C41.3763 14.4799 42.2631 14.2641 42.1537 14.0389C41.9386 14.255 41.6614 14.1433 41.4156 14.2C41.3038 14.2257 41.2772 14.39 41.2634 14.3932C41.0576 14.4371 41.1723 14.2643 41.1036 14.269C41.0675 14.2721 40.6549 14.6406 40.7308 14.1351C39.3777 14.5132 40.3567 14.5082 41.189 14.4756C40.9303 14.6609 40.4097 14.5745 40.1806 14.6183C40.098 14.6341 40.1477 14.8025 40.0084 14.8369C39.7236 14.9076 38.3502 14.7201 37.9919 14.6758C38.211 14.6154 38.146 14.432 37.9769 14.4454C37.8079 14.4589 37.9509 14.7034 37.918 14.7298C37.8809 14.7573 37.0956 14.6448 36.96 14.677C37.556 14.5859 37.423 14.4034 36.9139 14.3861C36.9875 14.3331 37.0632 14.2801 37.1348 14.2271C36.8356 14.3024 36.2046 14.0254 36.0341 14.1091C36.0072 14.1226 36.1046 14.2762 36.0895 14.2837C35.9384 14.3497 35.4279 14.1945 35.4048 14.2471C35.3849 14.2908 35.6024 14.4192 35.522 14.483C35.5046 14.4964 35.2973 14.289 35.0884 14.3409C35.0105 14.36 35.0579 14.5054 35.0383 14.5139C34.875 14.5845 34.9703 14.339 34.6724 14.3794C34.4545 14.4092 34.2931 14.6494 33.9941 14.5709C34.9792 14.8734 34.1494 14.7484 33.7416 14.8422C33.6764 14.8572 33.7324 15.1213 33.3427 14.9937C34.1705 14.5134 33.1073 14.7418 32.8788 14.7372C32.8666 14.7356 32.8619 14.5613 32.7532 14.5588C32.744 14.559 32.7574 14.6768 32.6566 14.686C31.7034 14.7737 32.3128 14.639 32.1316 14.5233C32.0543 14.474 31.5954 14.6417 31.4729 14.646C31.4438 14.6465 31.4568 14.5241 31.3444 14.5291C31.1455 14.5384 30.9687 14.6691 30.8385 14.6797C30.8234 14.6803 30.822 14.4872 30.5763 14.5504C30.5072 14.568 30.43 14.6368 30.5281 14.6921C30.8507 14.874 31.4826 14.5565 31.8408 14.7379C32.1746 14.9031 31.1236 14.9213 31.0637 14.9224C31.0433 14.923 31.2514 14.8267 31.0398 14.8082C30.8591 14.7928 30.5313 15.1271 30.2657 15.055C30.2454 15.0496 30.0331 14.7672 30.0429 14.7507C30.0515 14.7387 30.377 14.6766 30.3296 14.5949C30.3238 14.5855 30.1169 14.5879 30.0899 14.527C30.0567 14.4529 29.9664 13.7251 29.9225 13.707C29.8096 13.6621 29.8833 13.828 29.8104 13.8166C29.6557 13.7925 29.0966 13.5783 29.0809 13.8306C29.172 13.8454 29.2633 13.8602 29.3548 13.875C28.8467 13.9019 29.0639 14.0089 28.992 14.0564C28.915 14.1077 28.9361 13.8859 28.7662 13.8653C28.728 13.8608 28.0229 13.9083 28.0369 14.0013C28.4248 13.8526 28.2817 14.1269 28.2995 14.1317C28.3677 14.1495 28.4548 13.9956 28.5468 13.9985C29.1956 14.0215 28.5414 14.2653 28.6948 14.3274C28.7475 14.3483 28.8526 14.2169 28.875 14.2236C28.948 14.2452 28.9496 14.417 28.9983 14.403C29.1121 14.3706 28.9787 14.1276 28.9877 14.115C29.0888 13.9626 29.4898 14.1512 29.2409 14.4163C29.3908 14.5114 29.4078 14.1898 29.5272 14.3181C29.7649 14.5722 29.4092 14.5075 29.3137 14.55C28.9708 14.703 28.8684 14.5798 28.3893 14.6228C28.2163 14.638 28.0164 14.7945 27.9335 14.8032C27.8812 14.8087 27.3964 14.2659 27.3839 15.1165C27.1963 15.0345 26.9037 14.4743 26.7137 14.5002C26.5431 14.5238 26.5978 14.8247 26.5819 14.8363C26.5569 14.8546 26.3537 14.8312 26.2812 14.8738C26.1973 14.9241 26.2392 15.0389 26.1063 15.0859C25.7764 15.2024 25.7856 14.8952 25.7517 14.8753C25.3609 14.645 25.5326 15.0817 25.4462 15.1168C25.3671 15.1492 24.2423 14.982 24.0018 15.0927C24.0984 15.0311 24.1953 14.9695 24.2926 14.9079C24.1182 14.7164 23.9354 15.029 23.932 14.6855C23.897 15.2402 23.5421 14.8696 23.437 14.884C23.3953 14.89 23.3987 14.9845 23.3466 14.9886C23.1483 15.0053 22.668 14.9303 22.5587 14.9782C22.0691 15.1848 23.328 15.5275 23.4136 15.5481C23.2286 15.5421 22.1063 15.6669 22.6192 15.9333C22.6979 15.9744 22.8381 15.7261 22.8827 15.7164C23.185 15.6523 22.9473 15.8749 22.971 15.896C23.0107 15.9302 23.2127 15.715 23.2609 15.7406C23.278 15.7488 23.1683 15.9503 23.4484 15.9544C23.3188 16.1497 22.5025 15.9911 22.4016 16.0369C22.3652 16.0533 22.5951 16.4705 21.9185 16.0655C21.9263 16.1042 21.9341 16.1429 21.942 16.1817C21.5722 16.1977 21.1718 16.2138 20.797 16.2298C20.8381 16.1406 21.0509 15.9613 20.783 15.9994C20.6292 16.0214 20.743 16.2202 20.729 16.2259C20.6103 16.2808 18.1127 16.2148 17.6599 16.2369C17.6558 16.2371 17.6514 16.2374 17.6469 16.2378C17.4687 16.2524 17.0362 16.4039 17.0035 16.4068C16.7999 16.4228 16.072 16.3188 15.923 16.3414C15.8319 16.3559 15.9184 16.522 15.8372 16.5143C15.7618 16.5068 15.8399 16.3462 15.8175 16.3394C15.6365 16.2812 14.23 16.4919 13.8888 16.3404C14.1098 16.3859 15.1063 16.065 15.0961 15.9517C15.0912 15.9362 14.8397 15.814 14.7888 15.8736C14.7034 15.7345 14.4149 16.1579 14.2615 16.0748C14.2415 16.0653 14.3213 15.8278 14.0302 15.7847C13.9309 15.77 13.6729 15.9551 13.4209 15.7476C13.0472 15.8473 11.1125 15.5393 10.9681 15.7945C10.9635 15.808 11.2426 15.8958 11.0541 16.0006C10.8054 16.1398 11.0272 15.6709 10.7408 15.6304C10.7036 15.6243 9.89525 15.6717 9.87318 15.7007C9.63273 15.9639 10.3275 16.0706 10.322 16.1012C10.2937 16.1782 9.71479 16.2248 9.6952 16.2066C9.67198 16.1877 10.1388 15.839 9.57755 15.9713C9.64687 16.0129 9.70623 16.0546 9.77085 16.0963C9.51206 16.1774 9.47497 15.9362 9.41184 15.9215C9.20339 15.8748 9.00611 16.2412 8.67015 15.7886C8.58378 15.6685 8.72722 15.5352 8.71652 15.5171C8.61218 15.3555 8.4806 15.7879 8.32956 15.4654C8.3166 15.4413 8.67559 15.2481 8.05004 15.2476C8.09409 15.2785 8.13843 15.3095 8.18309 15.3404C8.08267 15.4094 7.46773 15.4505 7.37056 15.4341C7.11904 15.3864 7.33661 15.1644 7.08788 15.191C7.25061 15.4952 6.48377 15.5349 6.53012 15.273C6.43359 15.6019 5.77609 15.3482 5.47252 15.3404C5.2835 15.3357 4.8924 15.4792 4.82882 15.4625C4.75302 15.4419 4.77501 15.2175 4.64129 15.1675C4.60484 15.1533 4.20945 15.3178 3.85348 15.0855C3.7882 15.0407 3.64424 14.6601 3.77128 14.565C3.98237 14.4022 4.39351 14.7088 4.38939 14.4839C4.38105 14.2433 3.83178 14.3864 3.68463 14.355C2.99997 14.2098 3.39372 13.954 3.37819 13.8765C3.32939 13.6883 2.95766 13.6941 2.94181 13.6772C2.87593 13.6021 3.14521 13.4532 3.14789 13.3384C3.15251 13.1888 2.79138 12.919 2.87399 12.8686C2.98781 12.797 3.32043 13.0219 3.34234 13.0112C3.6217 12.8661 3.23577 12.5207 3.13945 12.351C3.109 12.2988 3.23028 12.213 3.20511 12.1977C2.80905 11.9653 3.11861 12.6831 2.85981 12.6352C2.61994 12.5925 2.92883 12.3655 2.9166 12.353C2.90899 12.3392 2.62151 12.3268 2.58125 12.2465C2.55462 12.2063 3.2928 11.7648 3.25764 11.5668C3.0289 11.6104 2.78885 11.654 2.55965 11.6977C2.54244 11.4395 2.87929 11.6296 2.91078 11.6029C2.97935 11.5495 2.78824 11.4189 2.79447 11.3373C2.80204 11.2854 3.02553 11.1002 2.82178 11.0238C2.74805 10.9974 2.59975 11.1784 2.34364 10.9935C3.24079 10.7574 2.61587 10.6123 2.5939 10.5209C2.5656 10.4294 2.99463 10.2142 2.47379 10.2523C2.45083 9.74996 2.48602 10.0935 2.63412 10.0052C2.81388 9.89669 2.39467 9.73128 3.05891 9.85677C3.0186 9.62159 2.49117 9.63822 2.45945 9.61946C2.43485 9.60245 2.55411 9.48677 2.51151 9.44758C2.01207 8.99313 2.35463 9.20065 2.21046 8.91045C2.20101 8.88452 1.7265 8.77692 2.0852 8.73466C2.74026 8.65782 3.00995 8.9911 3.12592 8.27859C2.63569 7.96908 2.05344 8.429 1.90571 8.4368C1.6791 8.44802 1.9132 8.30271 1.88566 8.26199C1.87482 8.24883 1.68298 8.26083 1.67906 8.24929C1.54315 7.70585 2.5409 8.24027 2.86101 8.14577C2.77465 8.06439 2.68825 7.983 2.60685 7.90162C2.71611 7.89837 2.84039 7.89511 2.94953 7.89186C2.40196 7.72826 2.93078 7.82992 3.06754 7.38988C3.09765 7.29101 2.73558 7.46057 3.14971 7.18577C2.84182 7.12234 2.94618 7.03244 2.66838 7.15648C2.67594 6.9801 3.29067 6.78114 3.53433 6.69064C2.6805 6.49243 3.16507 7.13938 2.42358 6.79709C2.28652 7.01548 2.64186 6.97296 2.61259 7.00901C2.50554 7.13863 2.26588 6.93282 1.97207 7.38695C1.92415 7.46152 2.12703 7.69102 1.82691 7.67993C1.79534 7.67836 1.60288 7.48223 1.60649 7.46801C1.63086 7.3144 1.82061 7.37197 1.82753 7.30785C1.83542 7.24715 1.62443 7.28366 1.6241 7.26683C1.61683 7.07439 1.80107 7.19328 1.77353 7.13304C1.71561 7.00201 0.959168 6.5879 1.9477 6.70919C1.12746 6.92676 1.84091 6.92168 2.16178 6.8381C2.24103 6.81715 2.26305 6.70221 2.37995 6.66232C2.52655 6.61065 2.70206 6.66583 2.78011 6.64474C2.86302 6.62148 2.3898 6.34978 3.07427 6.43086C2.72569 6.1606 2.11241 6.44874 1.7723 6.25898C1.08467 5.87552 2.25319 5.79319 2.3745 5.75603C2.407 5.74596 2.29759 5.59073 2.31921 5.58122C2.35318 5.56663 3.01566 5.63839 3.08326 5.50993C3.14759 5.38158 2.84086 5.51584 2.82016 5.38199C2.80427 5.29188 3.60331 5.13205 3.17274 5.07046C2.87218 5.02824 2.32694 5.39042 2.23059 5.00112C2.67232 4.96889 3.10769 4.93667 3.547 4.90444C3.31047 4.75632 3.0635 4.6082 2.82823 4.46008C3.31921 4.41311 3.74457 4.58033 4.2131 4.36828C3.0921 3.89366 4.57695 3.98951 4.59475 3.93174C4.60529 3.8972 4.15387 3.51196 4.08881 3.44149C4.48476 3.29329 5.66587 3.22087 4.97412 2.74518C5.09392 2.85258 5.4142 2.58745 5.4039 2.56743C5.36322 2.35728 4.69783 2.49356 4.80417 2.30375C4.93916 2.08349 5.10031 2.38231 5.30344 2.35844C6.30504 2.23404 6.02352 1.13695 7.02661 1.31055C7.00718 1.27149 6.98782 1.23242 6.96853 1.19336C8.0476 1.25554 9.14107 1.31771 10.2276 1.37989C10.654 1.04486 11.7799 0.840851 12.3428 0.877918C12.4498 0.885136 13.0023 1.06097 13.047 1.09179C13.1248 1.15087 12.6958 1.17341 12.8894 1.28418C12.9393 1.30692 13.8547 1.3808 13.7928 1.19336C13.6868 1.17163 13.3635 1.26585 13.3119 1.22168C12.9263 0.906436 15.8143 1.15828 15.9446 1.03124C15.8808 0.970369 15.8172 0.909494 15.7539 0.84862C15.9342 0.878569 16.1169 0.908518 16.302 0.938467ZM7.9785 15.9927C7.86531 16.1808 7.60502 16.0396 7.43855 16.0924C7.20821 16.1663 6.8435 16.8905 7.00132 16.1646C7.3212 16.1073 7.65323 16.05 7.9785 15.9927ZM12.749 16.273C12.53 16.172 12.6988 15.7666 12.8806 15.9351C12.901 15.9543 13.0481 16.409 12.749 16.273ZM10.4596 16.0806C10.4683 16.0753 10.6533 16.086 10.6602 16.0924C10.8262 16.2551 10.2687 16.2219 10.4596 16.0806ZM21.5497 15.8722C21.3045 15.8898 21.4818 16.2583 21.6349 16.1066C21.6445 16.0969 21.5659 15.8713 21.5497 15.8722ZM21.3754 15.8625C21.1849 15.5325 20.8076 16.2015 21.1083 16.1341C21.1373 16.1272 21.384 15.8786 21.3754 15.8625ZM11.9704 16.1119C11.9944 15.9854 12.2292 16.0465 12.3193 16.0767C12.3187 16.1922 12.0679 16.0978 11.9704 16.1119ZM17.7014 16.0767C17.703 16.0599 17.6824 16.0461 17.6469 16.0354C17.4608 15.9827 16.9085 16.0049 16.866 16.1138C16.967 16.0675 17.4714 16.1347 17.6469 16.1066C17.6798 16.101 17.6999 16.0916 17.7014 16.0767ZM19.709 15.937C19.6886 15.9198 19.4178 15.946 19.4259 16.0337C19.5573 16.1488 19.799 16.0148 19.709 15.937ZM23.716 15.9415C23.731 15.9195 23.527 15.3612 24.0085 15.7284C24.0793 15.7822 23.8267 15.9282 23.8519 15.9483C23.9045 15.9873 23.9461 16.0055 23.9796 16.0087C23.7548 16.0552 23.5242 16.0771 23.502 16.0432C23.397 15.8833 23.7092 15.9507 23.716 15.9415ZM25.82 15.5237C25.8663 15.4326 26.1649 15.481 26.2335 15.5184C26.2453 15.5254 26.1943 15.7649 26.3296 15.7468C26.4347 15.7319 26.2773 15.4869 26.4823 15.5259C26.6898 15.565 26.4128 15.7401 26.431 15.7525C26.455 15.7689 26.7765 15.6584 26.7668 15.801C26.7592 15.9066 26.4147 15.8356 26.3304 15.8581C26.2182 15.8871 26.3543 16.0629 26.167 16.0253C26.0495 16.0018 26.1143 15.6924 26.0895 15.6768C26.0683 15.6642 25.6605 15.8427 25.8207 15.5247C25.8205 15.5244 25.8202 15.524 25.82 15.5237ZM24.0404 15.995C24.0234 16.0055 24.0036 16.011 23.9796 16.0087C23.9999 16.0045 24.0203 15.9996 24.0404 15.995ZM8.61044 15.857C8.72494 15.9524 8.38465 16.0748 8.26177 15.9498C8.25836 15.849 8.59078 15.8421 8.61044 15.857ZM24.2494 15.7429C24.5863 15.8202 24.3375 15.927 24.0404 15.995C24.1347 15.9367 24.1366 15.7171 24.2494 15.7429ZM14.7888 15.8736C14.8029 15.8967 14.8118 15.9327 14.8129 15.9918C14.7759 15.9271 14.7726 15.8924 14.7888 15.8736ZM15.5671 15.9791C15.8299 15.799 15.2965 15.8063 15.3013 15.9351C15.3025 15.9838 15.5562 15.9862 15.5671 15.9791ZM21.8596 15.8897C21.8352 15.8721 22.2093 15.3282 21.6661 15.7364C21.9568 15.8004 21.6527 15.8597 21.6543 15.9073C21.6698 16.0442 22.152 15.9125 22.2624 15.9716C22.347 15.7267 21.9381 15.9477 21.8602 15.8897C21.86 15.8897 21.8598 15.8897 21.8596 15.8897ZM29.6176 15.65C29.55 15.7936 29.3352 15.7479 29.1913 15.7397C29.2582 15.5961 29.4723 15.6418 29.6176 15.65ZM67.0919 15.3878C66.1121 15.5342 65.9777 14.9517 66.8781 15.1701C66.8957 15.1747 67.1507 15.3277 67.0919 15.3878ZM58.6678 15.3417C58.573 15.088 58.8768 15.0438 59.0784 15.1467C59.124 15.1699 59.2945 15.426 59.1036 15.4785C59.1062 15.1698 58.8091 15.0551 58.6678 15.3417ZM24.4395 15.5797C24.5384 15.4098 24.8399 15.5304 24.9933 15.5558C24.8998 15.6957 24.5822 15.6327 24.4395 15.5797ZM63.8626 15.1267C63.7591 15.1087 63.6924 15.3311 63.7104 15.3493C63.7912 15.4329 63.9818 15.2513 63.8626 15.1267ZM23.4747 15.554C23.4608 15.4525 23.8535 15.3545 23.8817 15.6055C23.7968 15.5874 23.4842 15.6176 23.4747 15.554ZM29.3444 15.5743C29.2821 15.5229 29.6036 15.4299 29.7018 15.4809C29.694 15.5889 29.3849 15.6078 29.3444 15.5743ZM62.1968 15.2228C62.1038 15.2047 61.8725 15.2016 61.848 15.2915C61.8175 15.4038 62.1562 15.3615 62.1968 15.2228ZM79.4367 14.7581C79.4491 14.7981 79.096 15.095 78.9353 15.0247C78.63 14.8902 79.4233 14.73 79.4367 14.7581ZM64.8399 14.9996C65.1354 15.2064 64.8077 15.0067 64.8234 15.2284C65.0203 15.2338 65.5113 15.2381 65.171 15.0245C65.1047 14.9832 64.9318 15.0128 64.8399 14.9996ZM64.5691 14.929C64.5387 15.0013 64.3311 15.2306 64.513 15.212C64.597 15.203 64.7295 14.9495 64.5691 14.929ZM77.2168 14.8989C76.9503 14.7074 78.1569 14.7903 78.1902 14.824C78.2087 14.8419 78.221 14.8588 78.2281 14.8731C78.2709 14.8101 78.4971 14.7945 78.5263 14.9515C78.4581 14.9398 78.2731 14.9571 78.2512 14.9401C78.2418 14.9328 78.2348 14.926 78.2299 14.919C78.1539 15.0572 77.2674 14.9352 77.2168 14.8989ZM75.2244 14.7326C75.5202 14.4376 75.581 14.9292 75.5557 14.9455C75.233 15.1529 75.4393 14.7859 75.4292 14.769C75.4058 14.7411 75.1763 14.9138 75.2254 14.7326C75.2251 14.7326 75.2247 14.7326 75.2244 14.7326ZM76.8072 14.8253C76.8193 14.8187 77.0714 14.8293 77.0819 14.8369C77.2914 14.9987 76.5781 14.9693 76.8072 14.8253ZM27.4054 15.1771C27.5865 15.2258 27.409 15.4073 27.289 15.3423C27.2792 15.3358 27.2459 15.134 27.4054 15.1771ZM64.4259 14.9797C64.3831 14.946 63.3163 14.8306 63.3842 15.1035C63.4732 15.0701 64.6874 15.1953 64.4259 14.9797ZM56.4453 15.0056C56.6326 15.0058 56.4309 15.2661 56.3301 15.1708C56.2927 15.1355 56.3981 15.0057 56.4453 15.0056ZM22.9415 15.3199C22.7438 15.4618 22.7844 14.9859 22.956 15.149C22.9628 15.1553 22.9493 15.3143 22.9415 15.3199ZM57.9495 15.1385C57.3006 15.3018 57.4449 14.4817 58.2955 14.749C58.2693 14.7857 58.2432 14.8225 58.217 14.8592C59.1967 14.9714 58.2847 14.9162 58.0454 14.9646C57.9546 14.983 58.0324 15.1188 57.9502 15.1394C57.9499 15.1391 57.9497 15.1388 57.9495 15.1385ZM55.4522 14.9998C54.8197 14.425 56.0207 14.7917 56.3635 14.7125C56.0341 14.9557 55.5977 14.9237 56.1917 15.1634C55.328 15.2195 55.6859 14.9845 55.651 14.9657C55.61 14.9445 55.4791 15.0245 55.4522 14.9998ZM57.1022 14.9794C57.138 14.9621 57.4115 15.0775 57.5095 15.0572C57.3741 15.2571 56.8638 15.0971 57.1022 14.9794ZM73.1413 14.903C73.1612 14.7472 73.2151 14.6317 73.4306 14.6862C73.3656 14.7655 73.2297 14.835 73.1413 14.903ZM7.77176 15.1744C7.62845 15.1632 7.33113 15.1046 7.42222 15.2681C7.43694 15.282 7.77041 15.2661 7.77176 15.1744ZM61.3233 14.8924C61.2926 14.8737 60.4775 14.8704 60.7612 15.0387C60.8497 15.0895 61.5849 15.0588 61.3233 14.8924ZM65.5425 14.8584C65.474 14.8577 65.1965 14.8907 65.1911 14.9276C65.1739 15.0549 65.5142 14.9805 65.5425 14.8584ZM7.02875 15.0152C7.01655 14.999 6.55275 15.0276 6.60568 15.1031C6.69912 15.2457 7.09785 15.0707 7.02875 15.0152ZM28.0647 14.8118C28.1019 14.806 28.1514 14.9749 28.1643 14.9767C28.1936 14.9791 28.8812 14.913 28.6187 15.1303C28.5757 15.1667 27.5844 15.085 27.4506 15.0637C27.3996 14.8319 27.8285 15.0519 27.9341 15.0278C27.9523 15.0233 27.9655 14.8293 28.0643 14.8128C28.0644 14.8125 28.0645 14.8121 28.0647 14.8118ZM74.2574 14.7201C74.2852 14.5722 75.0984 14.4604 75.0923 14.6392C74.8137 14.6662 74.5354 14.6932 74.2574 14.7201ZM73.8437 14.7027C73.6685 14.6014 74.0742 14.56 74.1949 14.6039C74.1978 14.7031 73.8692 14.7175 73.8437 14.7027ZM63.9901 14.328C63.909 14.3651 64.1627 14.577 64.1072 14.6195C64.0715 14.646 63.8881 14.5678 63.8309 14.6358C63.8147 14.6574 64.0032 14.8572 64.0569 14.8477C64.1332 14.8351 64.057 14.6769 64.1404 14.6748C64.4174 14.6678 64.6649 14.778 64.9254 14.7719C64.9489 14.771 64.765 14.6611 64.9657 14.66C64.9967 14.6596 65.1853 14.8245 65.4255 14.7965C65.95 14.271 66.3405 14.7746 67.0105 14.5783C66.9843 14.5298 66.4806 14.406 66.4511 14.4015C65.8922 14.3241 64.8816 14.3283 64.2947 14.3348C64.144 14.3363 64.2186 14.4451 64.1538 14.45C64.1025 14.4536 64.1608 14.2497 63.9901 14.328ZM7.84984 15.062C7.77664 14.8591 7.54355 14.9876 7.37628 14.9771C7.43635 15.1601 7.69597 15.0171 7.84984 15.062ZM70.1882 14.6046C70.1088 14.6137 69.8615 14.5564 69.8421 14.6178C69.8171 14.6979 70.1735 14.7428 70.1882 14.6046ZM31.9599 14.8617C31.9674 14.8561 32.157 14.8665 32.1643 14.8729C32.3341 15.0353 31.7654 15.0034 31.9599 14.8617ZM36.5183 14.8867C36.6634 14.8611 36.8102 14.7971 36.8599 14.9616C36.7667 14.9367 36.5016 15.0014 36.5183 14.8867ZM42.8099 14.8527C42.7784 14.6373 43.2187 14.7745 43.2981 14.7934C43.2702 14.8893 42.833 15.008 42.8099 14.8527ZM73.0988 14.2269C73.3642 14.2352 73.3028 13.9096 73.4738 14.0545C73.5018 14.0791 73.602 14.7575 73.306 14.5076C73.2527 14.4627 73.4553 14.2977 73.0988 14.2269ZM58.4338 14.7543C58.5009 14.611 58.712 14.651 58.8542 14.6609C58.8233 14.7672 58.537 14.743 58.4338 14.7543ZM6.21297 14.8521C6.08635 14.6507 5.5137 14.8001 5.65522 14.9331C5.67993 14.9505 6.12861 14.8445 6.21297 14.8521ZM25.1139 14.9287C25.3484 14.7699 24.8626 14.7212 24.7101 14.8763C24.78 14.8661 25.0975 14.9391 25.1139 14.9287ZM41.2991 14.7436C41.3102 14.737 41.5601 14.7511 41.5714 14.7588C41.7769 14.9233 41.0701 14.8846 41.2991 14.7436ZM35.0216 14.6302C35.1175 14.4994 35.7024 14.6027 35.8377 14.7329C35.7098 14.9241 34.9129 14.7935 35.0216 14.6302ZM72.0035 14.3376C72.1934 14.3278 72.3744 14.365 72.5502 14.4186C72.5151 14.529 72.0248 14.4194 72.0035 14.3376ZM42.2189 14.7251C42.2324 14.7259 42.2456 14.7383 42.2585 14.7396C42.245 14.735 42.2318 14.7297 42.2189 14.7251ZM67.7546 14.3254C67.5944 14.2844 67.6304 14.4852 67.6404 14.4912C67.7613 14.5546 67.936 14.3718 67.7546 14.3254ZM7.6704 14.7632C7.62065 14.5816 7.34585 14.7225 7.1934 14.6792C7.2344 14.8227 7.556 14.7823 7.6704 14.7632ZM54.7788 14.6342C54.5773 14.4392 55.387 14.2026 55.5605 14.3278C55.574 14.4494 54.8078 14.6609 54.7788 14.6342ZM24.3781 14.6568C24.3615 14.5145 24.0186 14.6865 24.0916 14.7537C24.1375 14.7965 24.3876 14.7452 24.3781 14.6568ZM55.9717 14.4068C56.048 14.3626 56.2286 14.5013 56.1664 14.5875C56.0865 14.698 55.952 14.4194 55.9717 14.4068ZM62.8227 14.2159C62.7888 14.1946 62.3405 14.3462 62.5283 14.4891C62.6585 14.5884 62.6766 14.3824 62.7069 14.3814C62.7407 14.3817 63.4679 14.6244 62.8227 14.2159ZM50.2249 14.5499C50.3933 14.4938 50.5985 14.5557 50.776 14.5503C50.7042 14.639 50.2975 14.6662 50.2249 14.5499ZM25.6913 14.6176C25.6469 14.5601 24.5374 14.5264 25.1676 14.703C25.2034 14.713 25.8162 14.7918 25.6913 14.6176ZM73.0988 14.2269C73.0653 14.2258 73.0266 14.2197 72.9816 14.2064C73.0261 14.2111 73.0649 14.2201 73.0988 14.2269ZM70.0753 14.2538C70.1351 14.1492 69.8253 14.1263 69.735 14.1828C69.7088 14.3098 70.067 14.2684 70.0753 14.2538ZM50.7883 14.4057C50.8901 14.3456 51.0764 14.4073 51.2034 14.3994C51.1826 14.4959 50.8332 14.5032 50.7883 14.4057ZM43.6147 14.3472C43.8168 14.4032 44.066 14.3754 44.0691 14.2576C44.0734 14.276 44.0834 14.2955 44.0998 14.315C44.1164 14.3344 44.3334 14.2783 44.4284 14.3179C44.9921 14.5536 42.2541 14.471 43.8374 14.1291C43.7631 14.2018 43.6889 14.2745 43.6147 14.3472ZM34.2107 14.3554C34.0949 14.2123 33.7746 14.393 33.8581 14.4493C33.9158 14.4878 34.3262 14.4995 34.2107 14.3554ZM38.6418 14.2541C38.6069 14.2287 38.2912 14.3305 38.2835 14.406C38.4651 14.4849 38.8002 14.3724 38.6418 14.2541ZM33.3311 14.19C33.26 14.1686 33.1658 14.4001 33.1748 14.4102C33.2507 14.4944 33.4513 14.3185 33.3311 14.19ZM72.5363 13.613C72.4274 13.5486 72.0867 13.7215 72.0145 13.8755C72.0001 13.8462 71.962 13.8083 71.8926 13.7632C71.8928 13.7632 71.893 13.7632 71.8932 13.7632C71.799 13.7033 69.0297 13.679 70.8919 13.9442C70.9501 13.9527 70.8686 13.8168 71.1053 13.8373C71.121 13.8388 71.1305 13.9506 71.1788 13.9553C71.2899 13.9654 71.8832 14.0263 72.001 13.9343C72.0024 13.955 72.0104 13.9746 72.0271 13.9925C72.1758 14.1515 72.6208 13.6627 72.5363 13.613ZM39.2674 14.2309C39.2043 14.1897 39.0065 14.2299 38.9846 14.3288C39.0861 14.3768 39.4131 14.327 39.2674 14.2309ZM25.6561 14.2123C25.5262 14.1312 25.201 14.2834 25.2995 14.364C25.3592 14.4136 25.8052 14.3054 25.6561 14.2123ZM37.2596 14.292C37.9945 14.4059 37.4347 14.2819 37.5466 14.1366C37.4508 14.1884 37.3551 14.2402 37.2596 14.292ZM75.9698 13.9282C75.8514 13.897 75.9847 13.6087 76.1173 13.7614C76.159 13.81 76.0361 13.9451 75.9698 13.9282ZM81.3005 13.7373C81.1946 13.486 81.6897 13.6248 81.5015 13.8026C81.4927 13.8086 81.3079 13.7468 81.3005 13.7373ZM77.5728 13.7065C77.4957 13.8805 77.4438 13.902 77.2168 13.8635C77.5507 13.8087 77.2373 13.6619 77.5728 13.7065ZM44.0668 14.239C44.0682 14.246 44.0693 14.2512 44.0691 14.2576C44.0676 14.2512 44.067 14.2452 44.0668 14.239ZM32.6302 14.2369C32.5367 14.0909 32.2772 14.1024 32.3549 14.2493C32.3623 14.2629 32.5923 14.345 32.6302 14.2369ZM72.0145 13.8755C72.0273 13.9015 72.0213 13.9185 72.001 13.9343C71.9998 13.9148 72.0048 13.8962 72.0145 13.8755ZM34.0236 14.1138C34.0144 14.2229 34.4096 14.2641 34.4257 14.2512C34.6526 14.0614 34.1858 14.1067 34.0236 14.1138ZM23.0495 14.061C23.028 14.0724 23.1652 14.3538 23.2425 14.2435C23.3041 14.1579 23.1285 14.0176 23.0495 14.061ZM78.3383 13.6217C78.4632 13.6196 78.6393 13.6161 78.6743 13.7492C78.5901 13.7302 78.3375 13.7199 78.3383 13.6217ZM81.1043 13.5577C80.9595 13.7179 80.6223 13.7242 80.4061 13.7026C80.3984 13.4958 80.9663 13.6092 81.1043 13.5577ZM72.8782 13.6845C72.8678 13.6763 72.5519 13.6197 72.5972 13.7575C72.6633 13.9596 72.9684 13.7584 72.8782 13.6845ZM23.6546 14.21C23.7937 14.1146 23.473 13.8216 23.3279 14.0481C23.2529 14.1641 23.6307 14.226 23.6546 14.21ZM31.8211 14.0475C31.6377 14.1281 32.0932 14.2698 32.1571 14.1248C32.072 14.1134 31.8862 14.019 31.8211 14.0475ZM38.1179 13.8803C37.5334 13.465 37.854 14.2258 37.9569 14.1584C37.9714 14.1487 38.1322 13.8901 38.1179 13.8803ZM4.76789 14.0171C4.68415 14.0751 4.99679 14.2854 5.03257 14.147C5.05697 14.0603 4.8241 13.9801 4.76789 14.0171ZM46.9082 14.1037C46.8834 14.1052 46.8589 14.1067 46.8346 14.1081C46.8528 14.1011 46.8767 14.0988 46.9082 14.1037ZM30.1388 13.4917C30.548 14.0807 30.5051 13.6261 30.5405 13.6286C30.6175 13.6347 30.7973 13.7938 30.9435 13.7673C30.7762 13.8341 30.6096 13.9009 30.4437 13.9676C30.5715 14.01 31.7287 14.2245 31.7447 14.1288C31.7776 13.9925 31.4251 14.0361 31.4114 14.0241C31.396 14.007 31.3383 13.6285 31.3045 13.6142C31.2471 13.5913 30.2887 13.5855 30.1388 13.4917ZM36.9019 13.9506C36.9968 13.9953 37.0244 14.1452 37.0683 14.1092C37.0834 14.0968 37.0851 13.9537 37.1351 13.9165C37.0595 13.9279 36.9795 13.9393 36.9019 13.9506ZM29.4057 14.0234C29.2873 13.8488 29.8167 13.9142 29.8292 13.9337C29.919 14.0521 29.5033 14.1661 29.4057 14.0234ZM33.8268 13.9874C33.8076 13.9773 33.4107 13.9238 33.4144 14.0208C33.5188 14.0945 34.0509 14.1145 33.8268 13.9874ZM37.197 13.9065C37.3361 13.9227 37.6009 14.0657 37.5698 13.8504C37.5696 13.8504 37.5693 13.8504 37.5691 13.8504C37.4448 13.8691 37.3208 13.8878 37.197 13.9065ZM24.1336 13.7546C23.8722 13.4116 23.9958 13.8452 24.2279 13.9557C24.2981 13.8016 24.1765 13.8104 24.1336 13.7546ZM23.3048 13.4993C23.239 13.4376 22.4771 13.5056 22.5946 13.6872C22.6346 13.7519 23.0689 13.5884 23.0897 13.601C23.1199 13.6196 22.982 13.8205 23.2131 13.7806C23.1999 13.7125 23.3292 13.5199 23.3048 13.4993ZM23.9175 13.535C23.659 13.2742 23.602 13.7556 23.7955 13.7568C23.8713 13.7576 23.9544 13.5727 23.9175 13.535ZM24.9783 13.5752C24.8869 13.5297 24.641 13.4633 24.4659 13.6235C24.701 13.637 24.9236 13.6505 25.1509 13.6639C25.1769 13.5732 25.0588 13.6153 24.9777 13.5752C24.9779 13.5752 24.9781 13.5752 24.9783 13.5752ZM82.6365 12.2923C82.4275 12.1602 82.9014 12.0979 82.9223 12.131C82.9843 12.241 82.73 12.3513 82.6365 12.2923ZM3.16514 9.64388C3.11251 9.58946 3.06762 9.41042 2.94397 9.50422C3.07094 9.63639 3.19618 9.76855 3.32296 9.90072C3.42283 9.59789 3.22426 9.7039 3.16514 9.64388ZM2.68163 8.53739C2.70032 8.53005 2.59937 8.06438 2.83438 8.37527C2.9876 8.58519 2.14161 8.78977 1.98894 8.58329C2.16078 8.48734 2.528 8.59717 2.68163 8.53739ZM1.19915 6.52169C1.19002 6.48455 1.50961 6.43008 1.54855 6.45625C1.74427 6.59425 1.25108 6.72064 1.19915 6.52169ZM2.22469 6.61056C2.07433 6.52013 2.40949 6.46183 2.50772 6.51387C2.51676 6.60055 2.24848 6.62373 2.22469 6.61056ZM80.4174 5.59206C80.2485 5.27889 80.1156 5.96298 80.364 5.82072C80.3758 5.81403 80.4246 5.60742 80.4174 5.59206ZM1.51339 6.05194C1.66566 6.14237 1.32915 6.20066 1.23093 6.14863C1.221 6.06204 1.49016 6.03872 1.51339 6.05194ZM80.2877 4.84057C80.0661 4.61721 80.1577 5.37987 80.1855 5.41013C80.3002 5.52952 80.6752 5.22193 80.7519 5.14578C80.1828 5.27196 80.3917 4.94582 80.2877 4.84057ZM79.2959 5.31924C79.0963 5.4047 79.6135 5.55058 79.7075 5.33559C79.6076 5.34776 79.3526 5.29456 79.2959 5.31924ZM78.072 5.0976C77.9638 5.07227 77.6414 5.01278 77.5893 5.13403C77.7077 5.11005 78.0288 5.22219 78.072 5.0976ZM77.8211 4.7419C77.6492 4.58169 77.6174 5.05851 77.8097 4.91305C77.8172 4.90742 77.8275 4.75087 77.8211 4.7419ZM76.8667 4.58775C76.7523 4.40048 76.6343 4.86383 76.8142 4.87296C76.8676 4.87482 76.8789 4.60924 76.8667 4.58775ZM79.9996 4.02385C79.8391 3.94571 79.6409 4.2799 79.9809 4.30944C79.8627 4.36225 79.7445 4.41506 79.6264 4.46785C80.0744 4.64414 80.0328 4.18691 80.1609 4.2033C80.34 4.22664 80.3328 4.60474 80.2997 4.72409C80.4406 4.48973 81.0596 4.47355 81.4171 4.4221C81.1001 4.33143 80.5863 4.17336 80.2751 4.11799C80.186 4.10195 80.1016 4.20728 80.0256 4.1972C79.9037 4.18048 80.0087 4.02914 80.0003 4.02383C80.0001 4.02384 79.9998 4.02384 79.9996 4.02385ZM75.6193 4.60351C75.2906 4.39483 75.5043 4.85421 75.6864 4.76836C75.6942 4.76186 75.6275 4.6086 75.6193 4.60351ZM1.08143 4.64466C1.51655 4.83823 1.19917 5.09478 2.11168 4.70521C1.73029 4.981 2.08894 4.90355 2.01488 5.01479C1.95811 5.10281 1.72936 5.02992 1.86102 5.20718C1.68913 5.01424 0.94547 5.06761 0.9118 5.03628C0.912111 5.03628 0.912423 5.03628 0.912735 5.03628C0.892856 5.01772 0.942222 4.5831 1.08143 4.64466ZM78.0475 3.88686C77.9284 3.3271 77.9033 4.21961 77.6808 3.758C77.4098 4.43951 78.4645 3.74332 78.605 4.31187C77.4436 4.26769 79.3825 4.86307 78.5561 4.02368C79.2295 4.32113 78.7728 3.9136 78.8737 3.80268C78.9816 3.68452 79.362 3.80327 79.3387 3.59438C79.3385 3.59438 79.3383 3.59439 79.3381 3.59439C79.1072 3.61355 78.8765 3.63268 78.6459 3.65176C78.8806 4.09882 78.4061 3.97254 78.2394 3.60777C78.1754 3.7008 78.1115 3.79383 78.0475 3.88686ZM79.3625 4.28548C79.3395 4.2756 78.838 4.34863 78.8722 4.43859C78.9403 4.49511 79.6528 4.41189 79.3625 4.28548ZM81.5724 4.14247C81.3919 4.14509 81.1112 4.06272 81.0165 4.23492C81.1968 4.2324 81.4776 4.31479 81.5724 4.14247ZM72.2793 4.28163C72.051 4.4251 72.7618 4.45481 72.5536 4.29275C72.5433 4.28514 72.2905 4.27493 72.2793 4.28163ZM77.5261 3.98165C77.2885 3.81433 77.4094 4.35877 77.5805 4.2131C77.5904 4.20452 77.537 3.98928 77.5261 3.98165ZM1.43412 4.57825C1.45114 4.44434 2.08012 4.5384 2.19353 4.53724C2.12864 4.66172 1.41717 4.73177 1.43412 4.57825ZM81.8797 3.63501C81.5105 3.16106 81.0353 3.72705 80.9816 3.71597C80.9283 3.70467 81.0073 3.49253 80.9951 3.48713C80.9672 3.4759 80.4028 3.50496 80.3759 3.52013C80.3565 3.53195 80.4646 3.82564 80.35 3.92114C80.5736 3.74862 81.6091 3.83268 81.6624 3.79873C81.7034 3.7717 81.3835 3.46763 81.8791 3.63503C81.8793 3.63502 81.8795 3.63502 81.8797 3.63501ZM80.847 3.65423C80.9906 3.77534 80.5952 3.79887 80.4986 3.75503C80.2838 3.65694 80.8285 3.63993 80.847 3.65423ZM79.8919 3.55908C79.846 3.53218 79.4365 3.51497 79.4045 3.65365C79.6015 3.82891 79.9961 3.62183 79.8919 3.55908ZM75.348 3.66283C75.2429 3.68239 74.9477 3.58149 74.9333 3.70238C75.0393 3.68293 75.3341 3.78373 75.348 3.66283ZM3.58932 3.52548C3.41189 3.42455 3.82532 3.38332 3.94107 3.43173C3.9472 3.51219 3.60587 3.53415 3.58932 3.52548ZM77.4648 2.82923C77.4008 2.79383 76.1205 2.9089 75.9426 2.96849C76.1192 3.05664 77.3899 3.04032 77.4473 2.99463C77.4639 2.98099 77.473 2.83485 77.4648 2.82923ZM80.2345 2.72004C80.348 2.54011 80.4288 2.75157 80.4436 2.75394C80.589 2.77822 80.889 2.73209 80.8265 2.90447C80.5693 2.84066 80.0078 3.07737 80.2345 2.72004ZM75.2429 2.86083C74.8083 2.93443 75.6475 3.10676 75.5343 2.92305C75.527 2.91196 75.2878 2.85311 75.2429 2.86083ZM77.6073 2.77479C77.7014 2.62957 78.9819 2.72895 79.1885 2.72504C79.0093 2.99331 78.8569 2.79515 78.6099 2.8134C78.5432 2.81863 78.5631 2.92841 78.556 2.92872C78.4406 2.93603 78.5246 2.8072 78.4533 2.80663C78.4082 2.80668 77.477 2.97953 77.6073 2.77479ZM80.2989 2.59567C80.3681 2.49248 81.166 2.43293 81.1988 2.45928C81.4434 2.65562 80.3613 2.62995 80.2989 2.59567ZM77.4851 2.54168C77.6184 2.23149 78.2564 2.42551 77.825 2.58707C77.7841 2.6018 77.605 2.47177 77.4851 2.54168ZM75.2841 2.56707C75.2629 2.55841 74.8068 2.50492 74.8005 2.60293C74.867 2.63984 75.5295 2.66227 75.2841 2.56707ZM75.5126 2.2319C75.5018 2.23444 75.6111 2.42107 75.3987 2.40095C75.3807 2.39901 75.3453 2.18749 75.0782 2.26987C75.0241 2.28681 74.9424 2.4286 74.9486 2.43722C75.2353 2.76518 76.0578 2.11278 75.5126 2.2319ZM80.31 2.42353C80.2653 2.33487 80.3636 2.0671 80.4599 2.19977C80.5012 2.25707 80.4295 2.41804 80.31 2.42353ZM73.8427 2.50617C74.1033 2.34054 73.2761 2.32413 73.2349 2.36604C73.263 2.46599 73.8165 2.52237 73.8427 2.50617ZM4.00333 2.28129C4.00312 2.28129 4.00291 2.28129 4.00269 2.28129C4.2305 2.31781 4.08879 2.45189 4.10051 2.4561C4.56477 2.65304 4.45256 2.34936 4.52135 2.31352C4.67644 2.23601 4.64983 2.60531 4.92291 2.4522C4.47309 2.6783 4.88137 2.58352 4.89629 2.7149C4.94264 3.25107 4.29976 2.46384 4.08557 2.57622C4.05796 2.59179 4.27727 2.7629 4.20082 2.81158C3.94304 2.96932 3.15055 2.14163 4.00333 2.28129ZM80.5316 2.17489C80.6309 2.01541 81.4133 2.15225 81.2093 2.28618C81.1764 2.30769 80.3852 2.40746 80.5316 2.17489ZM44.0672 2.40049C44.254 2.26308 43.8183 2.10545 43.7387 2.21199C43.6991 2.26508 43.985 2.4608 44.0672 2.40049ZM41.0196 1.83421C40.7951 1.86301 40.5607 2.43253 40.8401 2.34294C40.8697 2.33316 41.0464 1.91291 41.0196 1.83421ZM55.6579 2.01819C55.4223 1.81738 55.4399 2.19461 55.6113 2.18761C55.6719 2.18519 55.6653 2.02454 55.6579 2.01819ZM46.7733 2.14097C46.7497 2.12796 46.4798 2.15389 46.4903 2.24055C46.5902 2.29192 46.9253 2.23036 46.7733 2.14097ZM55.7316 1.96374C55.5937 2.03313 55.8348 2.30372 56.0019 2.03528C55.9159 2.05802 55.7458 1.95665 55.7316 1.96374ZM76.9881 1.71676C76.8753 1.87384 76.5475 1.83302 76.3604 1.86306C76.3364 1.6627 76.8544 1.75565 76.9881 1.71676ZM41.9622 2.05786C41.752 2.20048 42.2047 2.31391 42.1624 2.1271C42.1565 2.11697 41.9705 2.05178 41.9622 2.05786ZM63.1675 1.85953C63.0164 1.98122 63.5031 2.13611 63.367 1.92732C63.3603 1.91882 63.1758 1.85277 63.1675 1.85953ZM65.2937 1.90107C65.1762 1.86227 64.679 1.88133 64.8741 1.99558C64.9043 2.01314 65.2863 2.01088 65.2937 1.90107ZM4.53407 2.16898C4.47117 1.96275 4.83171 2.01184 4.88947 2.04788C4.90923 2.06288 4.61109 2.43731 4.53407 2.16898ZM54.1469 2.00045C54.0279 2.02737 53.7151 1.98122 53.6602 2.08992C53.8097 2.06616 54.1881 2.21561 54.1469 2.00045ZM42.9287 2.0516C42.7419 1.82854 42.4265 1.85239 42.5061 2.14477C42.855 2.12322 42.4611 1.88184 42.9287 2.0516ZM56.505 1.71476C56.4087 1.69864 56.338 1.98057 56.3489 1.99371C56.4543 2.11869 56.6016 1.82319 56.505 1.71476ZM49.2609 2.01064C49.2543 1.89052 48.9433 1.94743 48.9855 2.02446C48.9992 2.05032 49.2661 2.10786 49.2609 2.01064ZM72.9365 1.71955C72.7933 1.61224 73.2231 1.49782 73.3531 1.62368C73.4183 1.80713 72.9545 1.73186 72.9365 1.71955ZM59.1822 1.75655C59.1945 1.57807 58.7135 1.68423 58.9051 1.82994C58.953 1.86641 59.1778 1.81623 59.1822 1.75655ZM63.8109 1.487C63.4893 1.70389 64.8529 1.83709 64.4916 1.57677C64.4655 1.55824 63.8386 1.4687 63.8109 1.487ZM66.038 1.59009C65.9819 1.56743 66.0013 0.967845 66.2357 1.1957C66.2664 1.22525 66.1267 1.38562 66.152 1.4215C66.1667 1.44196 66.671 1.5191 66.6941 1.50477C66.7188 1.48854 66.6868 1.2969 66.7118 1.275C66.7399 1.25053 67.0525 1.41486 67.2153 1.41437C67.5219 1.41315 67.5529 1.25281 67.578 1.25192C67.6513 1.2498 67.7766 1.36151 67.9249 1.35921C68.6678 1.34718 69.8097 1.19436 70.4087 1.52395C69.8788 1.39608 69.3771 1.54817 68.8542 1.60043C69.0024 1.2645 68.0881 1.86894 68.6222 1.47593C68.3784 1.56333 66.2194 1.661 66.0386 1.59008C66.0384 1.59009 66.0382 1.59009 66.038 1.59009ZM40.1336 1.67057C40.2694 1.46532 39.5672 1.51466 39.5096 1.75162C39.6017 1.78406 40.1164 1.69385 40.1336 1.67057ZM43.3756 1.15447C43.4404 1.11878 43.4991 0.718502 43.8416 0.919324C43.8419 0.919322 43.8422 0.91932 43.8425 0.919318C43.9427 0.977963 43.8295 1.07609 43.848 1.1107C43.8547 1.12485 44.1676 1.32194 43.9089 1.35547C43.5149 1.40688 43.8699 1.05817 43.6599 1.05516C43.634 1.05499 43.2389 1.27377 43.2623 1.32115C43.2647 1.32667 43.3836 1.28019 43.4034 1.29983C43.4783 1.37365 43.4428 1.49875 43.4533 1.50463C43.4873 1.51968 44.115 1.30321 44.2084 1.48846C44.2375 1.54824 43.2064 1.69253 43.1674 1.66155C43.142 1.64207 43.1507 1.29533 43.1244 1.26139C43.1134 1.24447 42.6921 1.37675 42.6382 1.34517C42.6223 1.33604 42.6102 1.32617 42.6013 1.31803C42.6651 1.42494 42.2862 1.41929 42.2973 1.2982C42.3035 1.25061 42.5643 1.27671 42.5738 1.28497C42.5779 1.28847 42.5815 1.2933 42.5849 1.29663C42.5308 1.16624 43.4124 1.16717 43.2204 0.973714C43.4726 0.865701 43.1861 1.25929 43.3756 1.15447ZM44.5976 0.933327C44.5714 0.969948 44.5452 1.00657 44.519 1.04319C44.9687 0.9512 45.4809 1.12348 45.9932 1.1188C46.1234 1.11787 45.9721 0.895884 46.1432 0.955686C46.2803 1.00361 46.4335 1.20941 46.3592 1.25602C46.3411 1.26765 46.0614 1.1348 45.9224 1.14954C45.5122 1.19315 45.6174 1.38367 45.5934 1.389C45.5669 1.39461 45.3085 1.26179 45.1683 1.26866C44.8107 1.28639 44.6465 1.40482 44.1589 1.25437C44.4392 1.12665 44.2834 0.853811 44.5976 0.933327ZM61.2199 1.19198C61.2354 1.07143 61.5275 1.17473 61.6332 1.15577C61.6179 1.27662 61.3253 1.17304 61.2199 1.19198ZM17.7197 1.25196C17.6302 1.44946 18.2948 1.49837 18.1197 1.33399C18.0803 1.29751 17.8019 1.25336 17.7197 1.25196ZM20.7381 1.37186C20.8271 1.31724 20.4685 1.1751 20.4697 1.32796C20.4699 1.37698 20.7263 1.37896 20.7381 1.37186ZM50.3619 1.08691C50.3788 1.08059 50.6263 1.12259 50.6342 1.13257C50.7994 1.34097 49.9855 1.2263 50.3619 1.08691ZM24.4135 1.12698C24.0971 1.25669 25.0492 1.31203 24.7592 1.14721C24.7477 1.13918 24.4279 1.12068 24.4135 1.12698ZM25.723 1.08967C25.6471 1.09669 25.3137 1.03273 25.3097 1.093C25.3027 1.19025 25.6846 1.25631 25.723 1.08967ZM56.5623 0.968011C56.5239 0.745857 56.9637 0.909894 57.1162 0.880272C57.1547 1.10258 56.714 0.938372 56.5623 0.968011ZM53.7883 0.83083C55.6332 0.638065 55.2314 1.11743 53.6782 0.940248C53.6746 0.797507 53.6706 0.84296 53.7883 0.83083ZM56.1615 0.83436C56.096 0.977594 55.8832 0.937444 55.7404 0.927433C55.7649 0.828069 56.0593 0.861015 56.1615 0.83436ZM16.9116 0.94628C17.0258 0.766185 17.5488 0.988211 17.4561 1.06249C17.4326 1.07854 16.8676 1.04532 16.9116 0.94628ZM50.5156 0.895232C50.4704 0.679172 51.0284 0.762908 51.0719 0.810602C51.2457 1.00251 50.5598 0.847125 50.5156 0.895232ZM59.1891 0.749534C59.2851 0.57893 59.5648 0.662989 59.7445 0.663194C59.6643 0.809075 59.341 0.750895 59.1891 0.749534ZM57.8927 0.630859C57.9039 0.624235 58.1554 0.636843 58.1668 0.644522C58.3745 0.80788 57.6631 0.773102 57.8927 0.630859ZM3.69618 0.6533C3.70819 0.647837 3.89184 0.658646 3.89954 0.665019C4.06869 0.827778 3.49968 0.794521 3.69618 0.6533Z" fill="black"/>
</svg>
