<svg width="91" height="17" viewBox="0 0 91 17" fill="none" xmlns="http://www.w3.org/2000/svg">
<path d="M7.48151 16.3859C7.5354 16.3656 7.75418 16.415 7.84174 16.4064C7.74638 16.621 7.28524 16.4596 7.48151 16.3859ZM16.9761 0.800915C16.8985 0.853958 16.8212 0.907001 16.7441 0.960045C16.9626 0.994573 17.2619 0.955704 17.4599 1.00613C17.4928 1.0146 17.4075 1.16821 17.4852 1.17509C17.5631 1.18193 17.5481 0.971967 17.6617 0.949543C17.7866 0.925024 18.3823 1.07148 18.5802 1.06801C19.336 1.05411 20.1 0.934549 20.8659 1.02216C20.0743 1.17708 20.8749 1.33558 21.0904 1.26839C21.1395 1.25284 21.1285 0.862488 21.9186 0.961263C22.4227 1.02396 21.9572 1.58166 22.7911 1.30269C22.1509 0.911866 22.7789 0.939653 23.2854 0.927069C23.3754 0.924834 24.0705 0.984046 24.3821 0.967042C24.4883 0.961123 24.6505 0.756818 24.7919 0.751585C24.8884 0.748135 24.9609 0.859977 25.1042 0.854423C25.7726 0.829874 26.4323 0.821891 27.1028 0.860484C26.7098 1.38541 27.4107 1.08477 27.4424 1.10993C27.6023 1.25277 26.878 1.2925 27.1643 1.38206C27.5658 1.36627 27.9624 1.3505 28.3627 1.33477C28.0346 1.26981 28.7979 0.89293 28.9378 1.06505C28.8762 0.600656 30.758 1.47189 31.0447 1.31742C31.1044 1.28479 30.7141 1.05462 31.6202 1.16122C31.7184 1.17306 31.681 1.31306 31.7326 1.3001C31.7634 1.29231 31.9511 0.847455 32.1495 1.09385C32.2218 1.18379 31.7572 1.47525 32.7768 1.35974C32.3712 0.90576 34.1921 1.11729 34.527 1.23171C34.4601 1.17068 34.3931 1.10965 34.326 1.04862C34.6579 1.21361 34.7179 1.0597 34.7926 1.06827C35.0941 1.10271 35.5044 1.25899 35.7857 1.24556C36.1146 1.23012 36.1166 0.948318 36.4983 1.05898C36.4079 0.996551 36.3174 0.934128 36.2268 0.871707C36.491 0.887392 36.7538 0.903095 37.0171 0.918824C36.4067 1.29012 37.1479 0.936986 37.1988 0.929115C37.2772 0.915767 37.1642 1.06815 37.2953 1.04952C37.3088 1.04643 37.2898 0.902558 37.4916 0.887005C37.9126 0.855012 37.8451 1.03563 38.0213 1.03413C38.0373 1.03325 37.9816 0.90351 38.285 0.873817C39.2598 0.779392 38.2793 0.973068 38.2428 0.990876C38.1938 1.01435 38.5244 1.55677 37.7036 1.36227C37.9796 1.42423 38.0062 1.66391 38.0373 1.66995C38.064 1.67491 38.5434 1.64269 38.5706 1.63453C38.8073 1.55394 38.5998 1.38954 38.646 1.36035C38.6842 1.33681 39.2608 1.55211 39.3965 1.06013C39.6692 1.51532 39.2383 1.47218 38.7738 1.54047C38.706 1.63345 39.2144 1.72579 39.2406 1.72564C39.8929 1.72707 39.5332 1.35219 39.6775 1.11385C39.754 0.989155 40.0219 1.24503 39.7748 0.909112C40.3734 0.875913 40.0097 1.06874 40.0483 1.09761C40.1065 1.14003 40.3154 1.04479 40.3413 1.05768C40.3794 1.07675 40.2461 1.19225 40.3967 1.23367C40.4217 1.23971 40.665 1.04102 40.3525 0.944431C40.7704 0.974384 40.7359 0.804063 40.8756 1.14761C41.1693 0.499834 41.0853 1.53202 41.1995 1.56884C41.5027 1.66591 41.4164 1.15607 41.4326 1.13129C41.5445 0.9725 42.3757 1.15107 42.5873 1.07863C42.5034 1.4452 41.9204 1.07969 41.7926 1.15036C41.3604 1.38539 42.3985 1.33642 42.0839 1.79617C42.2155 1.6701 42.3512 1.54406 42.4841 1.41802C42.7254 1.71558 42.3824 1.84326 43.0329 1.73793C43.1406 1.48254 42.5731 1.77623 42.6875 1.5752C42.7556 1.45721 43.132 1.43355 43.1394 1.37123C43.1474 1.29619 42.8069 1.38357 42.861 1.26836C42.9765 1.01966 44.226 1.26296 43.2727 1.39432C43.536 1.39132 43.6745 1.88762 43.9044 1.73435C44.0522 1.63489 43.2251 0.946114 44.4707 1.07807C44.4966 1.31222 43.9735 1.14458 43.9589 1.16233C43.9395 1.18816 44.0322 1.71675 44.0486 1.7429C44.1021 1.82891 45.3919 1.55308 45.6526 1.82007C45.544 1.51413 46.6283 1.77153 46.7384 1.67935C46.7692 1.65387 46.6557 1.46616 46.6886 1.44659C46.8915 1.33009 47.4652 1.66776 47.719 1.67827C48.005 1.69015 47.9743 1.52846 47.9897 1.52888C48.1205 1.53886 48.0152 1.64754 48.0951 1.64783C48.2215 1.64818 49.0215 1.67694 49.0703 1.65458C49.0826 1.64756 48.9482 1.46197 49.1299 1.4285C49.1601 1.42272 49.1441 1.64118 49.6691 1.55135C50.2958 1.44339 49.2352 1.27549 49.4975 1.04882C49.8141 1.3075 49.8727 1.16421 49.9369 1.10323C49.9554 1.0865 49.9741 1.07598 49.9985 1.08167C50.0378 1.09128 50.3278 1.36876 50.6371 1.35469C50.4145 1.39692 50.1889 1.43927 49.9602 1.48174C50.1851 1.53196 50.6134 1.47671 50.7907 1.53313C50.8782 1.56059 50.8006 1.78543 50.9944 1.78153C51.0385 1.77954 51.1982 1.2313 50.6994 1.47256C50.6629 1.2758 50.8937 1.40617 51.0091 1.35196C51.0263 1.34351 51.0979 1.01627 51.2388 1.22182C51.2701 1.27248 50.8951 2.22441 51.852 1.54403C51.8826 1.52211 51.7788 1.40089 51.8088 1.37644C51.8268 1.35984 52.0754 1.41167 52.1027 1.39506C52.131 1.3772 52.0131 1.24474 52.0468 1.21946C52.2198 1.08917 52.435 1.61115 52.0848 1.56671C52.2017 1.63246 52.3175 1.69824 52.4324 1.76405C52.314 1.37122 52.6165 1.65667 52.7739 1.64708C53.8155 1.58673 53.123 1.3213 53.3039 1.19259C53.5925 0.986151 53.3611 1.65144 53.7883 1.45783C53.8262 1.43982 53.3197 1.14614 54.3207 1.32508C54.174 1.33333 54.0258 1.34164 53.8759 1.35C53.9567 1.72969 54.4109 1.33402 54.444 1.32942C54.8368 1.28531 54.5739 1.41619 55.1599 1.2337C55.2131 1.21735 55.319 1.313 55.4354 1.26901C55.905 1.08752 54.8304 1.13929 54.8026 0.985919C54.791 0.910216 55.9479 0.954528 55.9845 0.991495C56.1491 1.15329 55.4599 1.04888 55.5867 1.24798C55.6325 1.31777 57.2891 1.21596 57.6118 1.30267C57.9983 1.40259 58.1494 1.92041 58.1699 1.34451C58.2584 1.91307 58.3661 1.53031 58.4159 1.53575C59.0065 1.60677 59.0083 1.61267 59.5141 1.57573C59.6231 1.56772 59.7158 1.74271 59.756 1.71513C59.7798 1.69846 59.7431 1.51338 59.8585 1.46079C60.0182 1.38854 60.9469 1.61252 61.0174 1.7172C61.0834 1.82133 60.6172 1.74576 60.6954 1.91584C61.0339 1.94568 61.3552 1.91711 61.6967 1.94872C61.8365 1.96228 61.7596 2.07605 61.8198 2.08086C61.8422 2.08315 62.3377 2.001 62.3168 1.95704C62.2736 1.85423 60.7693 1.86077 61.1728 1.6725C61.2502 1.63599 61.5083 1.91582 61.4792 1.58702C62.8176 1.71513 64.1504 1.85199 65.4416 1.98236C64.6859 2.19479 63.8471 1.93713 63.0425 1.92487C62.9321 1.92282 62.5636 1.87527 62.6008 2.04251C63.2826 2.11469 64.1294 2.06673 64.766 2.20295C64.7863 2.20742 64.7046 2.3526 64.7802 2.37954C64.9225 2.42992 65.3982 2.21077 65.4742 2.27604C65.4871 2.29107 65.2133 2.47535 65.2885 2.60328C65.4821 2.93161 65.5651 2.22661 65.7405 2.24245C65.8789 2.25551 66.7747 2.6342 67.0058 2.4256C67.2532 2.20426 66.3456 2.26687 66.419 2.08073C67.0411 1.91593 67.646 2.13935 68.2143 2.13139C68.2243 2.13106 68.1415 1.98104 68.2688 1.96387C68.489 1.93382 68.5411 2.14455 68.6477 2.18065C68.7356 2.21 68.991 2.20473 69.1336 2.23442C69.2681 2.21205 69.6745 2.28986 69.8105 2.28072C69.8402 2.29273 69.8632 2.30757 69.8707 2.32675C69.8746 2.33729 69.7907 2.5368 69.7814 2.54156C69.7808 2.54185 69.7803 2.54214 69.7797 2.54242C69.6488 2.5512 69.2579 2.47635 69.1285 2.49787C68.9496 2.57671 68.893 2.30786 68.877 2.30409C68.8166 2.29255 68.755 2.39447 68.6999 2.38703C68.6083 2.37461 68.5602 2.27787 68.44 2.26636C68.3571 2.25804 68.4325 2.44358 68.3526 2.43309C68.3239 2.42862 68.0162 2.0008 67.9743 2.4274C67.968 2.48894 68.5128 2.57565 69.1258 2.63458C69.2526 2.61351 69.6355 2.68682 69.7637 2.67822C70.2942 2.7985 71.0851 2.87638 71.2122 2.82562C71.0132 2.76105 70.8112 2.69486 70.6199 2.62774C71.0078 2.78547 71.5391 2.47455 71.5452 2.98123C73.1265 3.11375 74.8019 3.18533 76.4812 3.22065C76.7794 3.26222 76.6213 3.58859 77.1133 3.48984C76.9841 3.38755 76.8573 3.28503 76.7273 3.1823C76.9796 3.25493 78.1092 3.38148 78.2912 3.30947C78.3146 3.30017 78.343 3.00573 78.6221 2.97431C78.8711 2.94633 78.9189 3.16541 79.0523 3.20425C79.1649 3.23619 79.29 3.17498 79.3239 3.1862C79.35 3.19521 79.3639 3.32962 79.4268 3.35132C79.6241 3.41823 79.4544 3.04372 79.6604 3.47336C79.6139 3.49139 79.5675 3.50939 79.5212 3.52737C79.7562 3.58357 80.0876 3.77062 79.7418 3.87927C79.6826 3.89795 79.7298 3.76608 79.6853 3.76767C77.943 3.83917 79.3411 4.05756 79.9483 3.83458C80.1119 4.02331 80.99 3.87239 81.0212 3.90855C81.0645 3.96195 80.9186 4.12243 81.1236 4.24742C81.1666 4.2751 82.3452 4.11241 81.9315 4.38858C81.8471 4.44587 81.2744 4.41574 81.1381 4.42862C81.4774 4.82493 82.2078 4.20327 82.2934 4.21361C82.6413 4.26022 81.6489 4.6007 82.4282 4.60971C83.0228 4.61558 82.4519 4.37143 82.6738 4.24304C82.7258 4.21301 82.8756 4.2415 83.0312 4.25647L82.5045 4.31339C82.635 4.32577 82.7242 4.31423 82.6724 4.09273C82.7395 4.03554 82.7397 4.24673 82.7527 4.25911C82.7815 4.26715 82.8288 4.13036 82.7795 4.23327C82.7786 4.24446 82.8608 4.4303 82.8618 4.44757C82.8629 4.46254 82.8387 4.46638 82.7618 4.49065C82.691 4.51111 82.5557 4.56802 82.5405 4.56763C82.5218 4.56383 82.553 4.34483 82.4852 4.33261C82.4456 4.32675 82.3077 4.39349 82.0935 4.54718C81.8845 4.69188 81.6212 4.95032 81.5752 4.96562C81.5071 4.97902 81.7997 4.66558 82.0055 4.49252C82.2151 4.30932 82.3348 4.20723 82.2242 4.15522C82.0669 4.27992 81.7312 4.46847 81.3215 4.84622C80.9111 5.21289 80.5266 5.7606 80.3334 6.04022C80.4071 5.89843 80.9569 4.97838 81.1704 4.76956C81.0185 4.71591 80.5749 5.1251 80.3354 5.5911C80.0957 6.04755 80.0636 6.38739 80.2911 6.09027C80.0184 6.47491 80.0605 6.16303 79.8712 6.36914C79.8103 6.44053 79.6901 6.96759 79.6408 7.01504C79.6192 7.04867 79.6138 6.50704 79.5384 6.59258C79.4552 6.68898 79.3578 7.15924 79.3513 7.32588C79.3388 7.517 79.3569 7.42433 79.3698 7.40756C79.4095 7.35551 79.4533 7.44485 79.5024 7.44813C79.5506 7.46117 79.6106 7.32606 79.6746 7.30167C79.6837 7.29927 79.7413 7.43068 79.8068 7.44733C79.8717 7.47409 79.9374 7.3939 79.948 7.39138C80.0618 7.38201 80.0775 7.47105 80.0906 7.45424C80.1031 7.44664 80.1192 7.33704 80.2201 7.36976C80.2576 7.47175 80.3034 7.48331 80.3464 7.41875C80.399 7.48194 80.4269 7.48413 80.4592 7.34658C80.4923 7.21399 80.5364 6.92454 80.6657 6.55811C80.9192 5.78198 81.5246 5.11862 81.7658 5.0579C81.1283 5.58047 80.6667 6.8087 80.7206 7.15873C80.7333 7.55865 80.892 7.45308 81.1528 7.47034C81.3758 7.50113 81.5097 7.43474 81.5686 7.4204C81.6685 7.44425 81.6615 7.50065 81.6337 7.48369C81.6056 7.47302 81.553 7.39496 81.5584 7.38919C81.5708 7.38014 81.5829 7.37558 81.5946 7.37561C81.5946 7.37561 81.5947 7.37561 81.5947 7.37561C81.6544 7.37569 81.7054 7.49505 81.7482 7.48923C81.7897 7.49519 81.8361 7.36593 81.8663 7.3553C81.9634 7.35018 82.3452 7.53469 82.4365 7.50985C82.4455 7.51107 82.4734 7.49589 82.5245 7.44908C82.5755 7.40401 82.6478 7.35763 82.7142 7.42258C82.8485 7.58466 82.8632 7.50874 82.8775 7.47969C82.9242 7.46158 82.9674 7.54399 83.0065 7.5418C83.0442 7.54745 83.0931 7.45462 83.1225 7.45419C83.1434 7.48404 83.3027 7.59163 83.355 7.56211C83.4038 7.57348 83.5098 7.57452 83.6706 7.56205C83.7863 7.57104 83.8653 7.62773 83.8852 7.62035C83.8917 7.62218 83.8924 7.60938 83.9181 7.54542C83.9428 7.48332 83.9927 7.41284 84.0042 7.41488C84.0387 7.41666 84.1238 7.53958 84.1594 7.54805C84.2064 7.5635 84.1983 7.49055 84.2341 7.5284C84.248 7.53907 84.3164 7.66885 84.4437 7.73202C84.5694 7.80111 84.7354 7.75576 84.7966 7.7655C84.9035 7.78631 84.8195 7.8477 84.8196 7.86954C84.8228 7.87412 84.8864 8.01454 85.3544 7.89693C85.3619 7.89446 85.3186 7.76978 85.3231 7.76711C85.4871 7.69206 85.6868 8.17802 85.6898 7.61408C85.801 8.13985 85.7853 8.25328 85.9204 8.1771C86.0424 8.11049 86.1825 7.87373 86.3467 8.00406C86.4097 8.0551 86.4304 8.24035 86.3968 8.43438C86.3664 8.6276 86.2822 8.80555 86.2908 8.81123C86.4865 8.83738 86.474 8.54293 86.5777 8.49785C86.6083 8.48347 86.6121 8.65857 86.595 8.83732C86.5808 9.01482 86.5501 9.19066 86.6532 9.14723C86.7069 9.12475 86.8512 8.91142 86.9376 8.68846C87.0276 8.46587 87.0619 8.26465 87.0713 8.25142C87.2387 7.97429 87.2956 8.36407 87.3868 8.31722C87.4613 8.26652 87.516 7.81529 87.52 7.82001C87.5302 7.81309 87.5864 7.9396 87.6295 8.13013C87.675 8.31669 87.6904 8.57774 87.7006 8.67674C87.7247 8.82645 87.9418 8.35373 87.9425 8.45112C88.0381 9.06086 86.8676 10.2362 88.0462 9.19817C88.1239 9.12463 88.2593 8.61901 88.2597 8.61357C88.3679 8.48721 88.3867 8.63221 88.3627 8.8621C88.3416 9.09094 88.2506 9.40498 88.2635 9.52437C88.3353 9.94999 88.8482 8.35811 88.4621 9.70403C89.0522 8.79137 89.0555 8.14065 89.0348 7.60434C89.1622 8.32061 88.8096 9.90377 88.7697 10.1651C88.7623 10.3284 88.8964 10.28 89.1345 9.90965C89.3707 9.55888 89.6537 8.76644 89.6918 8.08916C89.6515 8.51945 89.6621 8.82908 89.7032 9.00765C89.7406 9.1939 89.8039 9.28067 89.7413 9.48399C89.7073 9.6088 89.4134 10.1582 89.1728 10.5598C88.9421 10.9538 88.8206 11.2689 89.4324 11.0404C89.6304 10.9931 90.1425 9.60246 90.1222 10.0942C88.2589 13.1682 90.2809 10.2822 90.2262 10.2169C90.3179 10.2602 90.1669 10.856 89.6512 11.5967C89.1459 12.3382 88.3285 13.0099 87.6729 13.3673C86.3468 14.0819 85.5606 14.115 85.3217 14.2204C84.7952 14.412 84.4465 14.811 84.3445 14.8298C84.2779 14.8411 84.2341 14.8414 84.2064 14.8344C84.0871 14.8315 83.7348 14.9135 83.6165 14.8981C83.5707 14.8723 83.5946 14.8139 83.609 14.7617C83.7245 14.7767 84.0682 14.6967 84.1846 14.6994C84.195 14.6657 84.2002 14.6349 84.1744 14.6195C84.1735 14.6189 84.1725 14.6185 84.1714 14.6181C84.0568 14.6153 83.7182 14.6941 83.6045 14.6793C83.5362 14.6293 82.9195 14.9849 82.8851 14.9684C82.7547 14.9021 82.8731 14.6918 82.8594 14.6822C82.6963 14.5658 81.832 14.7659 81.5862 14.7279C81.6011 14.8599 82.0891 14.8494 81.7931 15.0749C81.4463 15.3378 81.4004 14.7552 81.3905 14.73C79.7556 14.8012 78.1144 14.8457 76.4658 14.857C76.4853 15.1685 77.5658 14.9258 77.5897 14.9652C77.7377 15.208 75.9102 15.2163 75.6846 15.1021C75.8567 15.1698 76.0256 15.237 76.1965 15.3039C75.9087 15.6615 75.257 15.1956 74.8355 15.3481C74.6966 15.3976 74.9608 15.5383 74.954 15.5476C74.7991 15.6847 74.5501 15.5747 74.7385 15.3909C74.3599 15.5644 74.4181 15.3683 74.1281 15.3487C74.1133 15.3478 74.2345 15.4941 74.0053 15.5496C73.8975 15.5759 73.3229 15.5631 73.2402 15.6864C73.2056 15.7386 73.4896 16.3047 73.5349 15.8248C74.1569 16.0729 73.7418 15.6103 73.9831 15.6263C74.0201 15.6292 73.9288 15.8972 74.5423 15.78C74.4223 16.263 73.718 15.8883 73.5963 15.9434C73.342 16.0587 74.3724 16.3303 74.5635 15.9542C74.4711 16.3305 74.6343 16.0062 74.8651 16.0242C75.1129 16.0436 75.0036 16.1549 75.1386 16.1567C75.5107 16.1622 75.3566 15.8946 75.6593 16.1363C75.367 15.3915 76.1763 16.0398 76.4184 16.2331C76.0289 16.272 75.6436 16.3091 75.2544 16.3441C75.2765 16.3833 75.2987 16.4225 75.3209 16.4617C75.2174 16.4555 75.1147 16.4492 75.0128 16.4427C75.0295 16.4054 75.0462 16.3682 75.0629 16.3309C74.5314 16.5693 74.4061 16.2927 74.363 16.2892C73.8071 16.2491 73.1608 16.2362 72.5902 16.2157C72.5068 16.2123 72.5535 16.4594 71.9336 16.2436C71.7358 16.1744 71.9321 15.9934 71.7062 16.0118C71.3932 16.5127 71.4195 16.1026 71.3353 16.0978C71.0882 16.0855 70.9321 16.2042 70.9098 16.2043C70.6001 16.2071 70.1509 16.1571 69.8035 16.1496C69.7962 16.151 69.9647 16.3223 69.7426 16.2586C69.6562 16.235 69.0229 15.5114 68.3113 15.6504C68.4857 15.7163 68.6511 15.7797 68.8218 15.8423C68.7453 15.8106 68.4969 15.7952 68.2198 15.7933L68.8694 15.8378C68.4936 15.881 68.0901 15.979 68.2728 16.0961C68.4132 16.1847 68.7133 15.9527 68.8656 16.0326L68.1971 15.9868C68.2484 16.016 68.2816 16.0712 68.2844 16.1683C68.2566 16.1578 68.2212 16.1475 68.1794 16.1372L68.8626 16.184C68.2854 16.0915 66.2975 16.1872 66.145 16.0871C66.1219 16.0723 66.2728 15.9422 66.2407 15.9236C66.2151 15.9096 65.7132 15.9221 65.6488 15.8671C65.6105 15.8346 65.8351 15.7604 65.819 15.7107C65.8036 15.6754 65.185 15.5917 65.143 15.7601C65.2978 15.6984 65.7244 15.7756 65.4936 15.9096C65.464 15.9262 65.3186 15.8103 65.2825 15.8314C64.9472 16.0262 65.9248 16.0168 66.0782 16.0239C65.4499 16.2169 64.5194 15.9205 63.8188 16.0305C63.5445 15.8765 64.2464 15.8327 63.933 15.7013C63.2865 15.4289 63.7493 15.8891 63.7276 15.9062C63.5583 16.0416 63.0388 15.2519 63.0125 15.8341C62.7771 15.7358 62.8607 15.666 62.5234 15.7274C62.5656 15.7697 62.6077 15.8119 62.6496 15.8542C62.2622 16.1749 61.5256 15.2909 61.5853 15.2285C61.7487 15.0613 62.1435 15.3498 62.1785 15.3448C62.2295 15.3374 62.3985 14.7526 62.9379 15.3059C63.1858 14.9197 62.0546 14.9989 62.58 14.7514C62.2327 14.7799 60.8274 14.4447 60.6207 14.6115C60.5951 14.6332 60.6945 15.0326 60.3509 14.8179C60.1871 14.7157 60.5907 14.7267 60.5175 14.6338C60.293 14.3446 57.1274 14.4146 56.5219 14.4178C56.4836 14.4173 56.5009 14.295 56.4631 14.2952C56.3498 14.2955 55.9079 14.4674 55.7018 14.4061C56.1263 14.6434 55.292 14.641 55.0667 14.6113C54.7452 14.5662 54.7681 14.3509 54.6275 14.302C54.0788 14.1135 53.2298 14.6109 52.8088 14.1252C52.8183 14.6008 52.0842 13.8808 51.7266 13.872C51.4616 13.8651 51.0638 14.1749 51.426 14.3711C50.9575 14.3433 50.4684 14.4266 50.0254 14.4512C49.9518 14.4553 50.0545 14.3157 49.9287 14.3272C49.918 14.3291 49.9027 14.4483 49.8132 14.4757C49.8068 14.4778 49.7999 14.4793 49.7926 14.4803C48.9215 14.5925 49.3447 14.3036 49.1817 14.216C49.0889 14.167 49.0197 14.1425 48.9687 14.1341C49.2637 14.1215 49.5759 14.1005 49.8169 14.0842C50.0136 14.0715 50.1669 14.0617 50.2364 14.0607C50.1884 13.9496 50.0248 13.9255 49.8182 13.9358C49.474 13.9541 48.9883 14.078 48.7997 14.0243C48.7897 14.0213 48.8259 13.8538 48.8158 13.8526C48.8156 13.8526 48.8154 13.8526 48.8152 13.8526C48.7105 13.8388 48.0054 13.8952 48.1485 14.0963C48.1879 14.1501 48.5122 14.1524 48.8908 14.1374C48.7844 14.174 48.8618 14.3626 48.8431 14.3704C48.6272 14.4615 48.0838 14.2739 47.8849 14.2477C47.8399 14.2419 47.8422 14.3623 47.8348 14.3626C47.6613 14.3339 47.7357 13.9908 47.5547 14.3439C47.2414 13.9133 48.1485 14.2846 48.0899 14.006C48.0343 13.791 46.0104 13.8924 46.0107 14.2301C46.0038 14.194 45.976 14.149 45.9183 14.0977C45.7865 13.9837 45.2266 14.0158 45.1276 14.0775C45.1111 14.0896 45.1158 14.4172 45.0953 14.4201C45.0459 14.4273 44.3464 14.1667 44.0922 14.359C44.2313 14.4056 44.3686 14.4522 44.5071 14.4989C43.671 14.4973 43.7965 14.5955 44.0775 14.6949C44.0915 14.6958 44.105 14.7083 44.1184 14.7097C44.3342 14.7833 44.6113 14.8545 44.617 14.8804C44.63 14.9789 43.2036 15.0265 43.478 14.7241C43.5182 14.6827 44.1807 14.8214 43.8535 14.6029C43.7969 14.5646 43.3678 14.6244 43.3447 14.6004C43.1958 14.4408 44.1313 14.2343 44.0172 14.008C43.7919 14.2218 43.4989 14.1071 43.2395 14.1614C43.123 14.1859 43.0934 14.35 43.079 14.353C42.8633 14.3949 42.9851 14.2233 42.913 14.2272C42.8748 14.23 42.4449 14.5945 42.528 14.0897C41.1132 14.4552 42.1365 14.4591 43.0005 14.4347C42.73 14.6174 42.1875 14.526 41.9494 14.5677C41.8638 14.5828 41.9139 14.7516 41.7689 14.7847C41.47 14.8527 40.0404 14.6535 39.6636 14.6066C39.8944 14.5479 39.8278 14.364 39.6496 14.3761C39.4712 14.3882 39.6201 14.6338 39.5853 14.66C39.5486 14.6871 38.7224 14.5686 38.5824 14.6C39.2085 14.5133 39.0684 14.3297 38.5367 14.3088C38.6139 14.2563 38.6909 14.2038 38.7679 14.1513C38.4546 14.2244 37.8041 13.9431 37.624 14.0257C37.5958 14.0389 37.6966 14.1932 37.6807 14.2006C37.5234 14.2656 36.9856 14.107 36.96 14.1595C36.9387 14.2031 37.1682 14.3328 37.0827 14.3961C37.0645 14.4095 36.8446 14.2007 36.6282 14.2513C36.5478 14.2699 36.5958 14.4156 36.5755 14.424C36.4064 14.4936 36.507 14.2487 36.1976 14.2872C35.9711 14.3158 35.7998 14.555 35.4875 14.4748C36.5174 14.7831 35.6485 14.6531 35.2215 14.7447C35.1526 14.7593 35.2113 15.0237 34.7998 14.894C35.6768 14.4183 34.5512 14.6408 34.3194 14.6351C34.3068 14.6334 34.3024 14.4591 34.1899 14.4561C34.1804 14.4562 34.1938 14.574 34.0891 14.5828C33.0943 14.6658 33.7305 14.5341 33.5417 14.4175C33.4615 14.3679 32.9759 14.5334 32.8456 14.5372C32.8157 14.5375 32.8297 14.4151 32.7138 14.4197C32.5088 14.4281 32.3246 14.558 32.1891 14.5681C32.1733 14.5687 32.173 14.3755 31.9159 14.4377C31.8437 14.4551 31.7624 14.5235 31.8649 14.5792C32.2054 14.7624 32.8491 14.4477 33.2347 14.6307C33.5852 14.7975 32.479 14.8108 32.422 14.8117C32.4009 14.8123 32.6168 14.7168 32.3976 14.6974C32.2105 14.6812 31.8674 15.0141 31.5881 14.941C31.5667 14.9356 31.3444 14.6524 31.3547 14.6359C31.364 14.6238 31.7067 14.5631 31.6571 14.4811C31.6511 14.4718 31.4334 14.4733 31.4051 14.4123C31.3705 14.3381 31.278 13.61 31.2315 13.5917C31.1123 13.5464 31.1896 13.7125 31.1125 13.7008C30.9471 13.6762 30.3733 13.46 30.3543 13.7123C30.4491 13.7274 30.5439 13.7425 30.6387 13.7576C30.111 13.7827 30.3358 13.8905 30.2609 13.9377C30.1804 13.9888 30.2034 13.767 30.0254 13.7459C29.9866 13.7412 29.2422 13.7864 29.2557 13.8795C29.6674 13.732 29.5145 14.0058 29.5334 14.0108C29.6055 14.0287 29.6978 13.8751 29.7946 13.8784C30.4754 13.9035 29.7884 14.1451 29.949 14.2077C30.0043 14.2288 30.1147 14.0977 30.1382 14.1045C30.2145 14.1264 30.2154 14.2982 30.2663 14.2844C30.385 14.2523 30.2469 14.0089 30.2563 13.9963C30.3625 13.8443 30.7777 14.0343 30.5186 14.2985C30.6737 14.3941 30.6925 14.0725 30.8154 14.2013C31.0597 14.4563 30.6931 14.3903 30.5937 14.4324C30.2371 14.5843 30.1314 14.4607 29.6266 14.5021C29.4449 14.5168 29.2295 14.6727 29.1453 14.6811C29.0923 14.6864 28.5916 14.1422 28.5755 14.9928C28.3804 14.9102 28.0752 14.3493 27.8746 14.3747C27.6945 14.3978 27.7514 14.6988 27.7345 14.7104C27.7086 14.7287 27.4916 14.7047 27.4173 14.7471C27.3306 14.7973 27.3737 14.9122 27.2362 14.9588C26.8942 15.0746 26.9038 14.7675 26.8686 14.7475C26.4618 14.5163 26.6396 14.9534 26.5493 14.9883C26.4671 15.0204 25.2851 14.851 25.039 14.9613C25.1397 14.8999 25.2405 14.8385 25.3414 14.7771C25.1611 14.5853 24.97 14.8976 24.9669 14.554C24.9307 15.1087 24.5569 14.7376 24.4444 14.7518C24.4002 14.7577 24.4036 14.8522 24.3482 14.8562C24.1316 14.8726 23.6463 14.7969 23.5302 14.8448C23.0253 15.0507 24.3147 15.395 24.4186 15.4159C24.2123 15.4095 23.0641 15.5329 23.5916 15.7999C23.6731 15.8412 23.8181 15.593 23.8641 15.5834C24.1753 15.5197 23.9304 15.742 23.9548 15.7631C23.9962 15.7973 24.2015 15.5825 24.2557 15.6081C24.2738 15.6163 24.157 15.8177 24.455 15.8222C24.3067 16.0173 23.4754 15.8575 23.3643 15.9033C23.3254 15.9196 23.5697 16.3371 22.8532 15.9312C22.8615 15.97 22.8697 16.0087 22.878 16.0475C22.4795 16.0631 22.0845 16.0788 21.6832 16.0945C21.7266 16.0053 21.951 15.8262 21.6685 15.864C21.5061 15.8859 21.6262 16.0848 21.6113 16.0906C21.4704 16.1451 18.8846 16.0777 18.3945 16.0998C18.2216 16.1069 17.7468 16.2665 17.7114 16.2695C17.4988 16.2854 16.7307 16.1812 16.5787 16.2038C16.4837 16.2182 16.5739 16.3844 16.4891 16.3766C16.4104 16.3691 16.492 16.2085 16.4686 16.2018C16.2791 16.1435 14.8049 16.3539 14.4452 16.2024C14.6657 16.2479 15.7272 15.9272 15.7091 15.8139C15.7042 15.7984 15.4433 15.6762 15.3901 15.7357C15.3003 15.5967 15.0037 16.02 14.835 15.9368C14.8162 15.9274 14.8901 15.6899 14.5917 15.6468C14.489 15.632 14.2215 15.8171 13.9579 15.6096C13.5574 15.7093 11.5404 15.4012 11.3838 15.6564C11.3792 15.6699 11.6695 15.7577 11.4734 15.8625C11.2145 16.0016 11.4456 15.5328 11.1469 15.4923C11.1316 15.4902 11.0241 15.4944 10.891 15.502C10.6185 15.5165 10.2542 15.5436 10.237 15.5626C9.98573 15.8258 10.7118 15.9325 10.7056 15.963C10.6764 16.0401 10.0716 16.0867 10.0508 16.0685C10.026 16.0496 10.5168 15.7009 9.92606 15.8332C9.99746 15.8748 10.0633 15.9165 10.13 15.9582C9.85547 16.0393 9.81951 15.7981 9.7528 15.7833C9.53519 15.7367 9.32629 16.1031 8.97605 15.6505C8.88535 15.5304 9.03597 15.397 9.02472 15.379C8.91522 15.2174 8.77698 15.6498 8.61793 15.3273C8.60549 15.3032 8.97821 15.11 8.32727 15.1095C8.37362 15.1404 8.42094 15.1713 8.46379 15.2023C8.36784 15.2713 7.70558 15.3123 7.61598 15.296C7.34939 15.2483 7.58014 15.0263 7.31617 15.0528C7.48404 15.3571 6.68853 15.3968 6.73198 15.1349C6.62165 15.4638 5.9455 15.2101 5.62371 15.2023C5.42256 15.1976 5.01116 15.3411 4.94782 15.3243C4.87091 15.3038 4.89456 15.0794 4.75718 15.0294C4.71131 15.0152 4.29421 15.1797 3.92956 14.9474C3.86125 14.9026 3.7036 14.522 3.84064 14.4268C4.06189 14.2641 4.49668 14.5707 4.48795 14.3458C4.48363 14.1052 3.90994 14.2483 3.7491 14.2169C3.03296 14.0716 3.44484 13.8159 3.42856 13.7383C3.37771 13.5502 2.98866 13.556 2.97131 13.5391C2.90157 13.464 3.18657 13.3151 3.1882 13.2002C3.19401 13.0507 2.81286 12.7809 2.90013 12.7305C3.02005 12.6589 3.36845 12.8838 3.39108 12.8731C3.68746 12.728 3.27797 12.3826 3.17941 12.2129C3.14769 12.1607 3.27402 12.0749 3.2478 12.0596C2.83255 11.8272 3.15679 12.545 2.88528 12.4971C2.63732 12.4544 2.95642 12.2274 2.94482 12.2149C2.9372 12.2011 2.63423 12.1887 2.59366 12.1084C2.56426 12.0682 3.34119 11.6267 3.3026 11.4287C3.06493 11.4723 2.80963 11.5159 2.5727 11.5596C2.54807 11.3014 2.90891 11.4914 2.93872 11.4648C3.00916 11.4114 2.81447 11.2808 2.81858 11.1992C2.82764 11.1473 3.05566 10.9621 2.8477 10.8857C2.76669 10.8593 2.61714 11.0403 2.34442 10.8554C3.28734 10.6193 2.62947 10.4742 2.60594 10.3828C2.5764 10.2913 3.02681 10.0761 2.48136 10.1142C2.4549 9.61185 2.50065 9.9554 2.64827 9.86711C2.83721 9.75858 2.39871 9.59317 3.09475 9.71866C3.04956 9.48347 2.50379 9.50011 2.46602 9.48135C2.43959 9.46434 2.56762 9.34866 2.52186 9.30947C1.99855 8.85502 2.35717 9.06254 2.20461 8.77234C2.19443 8.74641 1.69399 8.63881 2.07585 8.59655C2.76137 8.51971 3.0419 8.85299 3.16534 8.14048C2.64988 7.83097 2.04456 8.29089 1.88725 8.29869C1.64504 8.30991 1.89476 8.1646 1.86596 8.12388C1.85161 8.11072 1.65414 8.12272 1.64784 8.11118C1.50429 7.56774 2.55595 8.10216 2.88654 8.00766C2.80083 7.92628 2.70407 7.84489 2.61954 7.76351C2.73559 7.76026 2.86452 7.757 2.97943 7.75374C2.4067 7.59015 2.9584 7.69181 3.10387 7.25177C3.13535 7.1529 2.75425 7.32246 3.19009 7.04766C2.86398 6.98423 2.98216 6.89433 2.68446 7.01837C2.69661 6.84199 3.3347 6.64303 3.59352 6.55253C2.69762 6.35432 3.20937 7.00127 2.42779 6.65898C2.28228 6.87737 2.65988 6.83485 2.62558 6.8709C2.5191 7.00052 2.26022 6.79471 1.95439 7.24884C1.90434 7.3234 2.1162 7.55291 1.80276 7.54182C1.76975 7.54025 1.56737 7.34412 1.57278 7.3299C1.59624 7.17629 1.7961 7.23386 1.80342 7.16974C1.81143 7.10904 1.59007 7.14554 1.59065 7.12872C1.58188 6.93628 1.77648 7.05517 1.74685 6.99493C1.68598 6.8639 0.894756 6.44979 1.92882 6.57108C1.0736 6.78865 1.82004 6.78357 2.15292 6.69999C2.23468 6.67904 2.26808 6.5641 2.38154 6.52421C2.54019 6.47254 2.71768 6.52772 2.80324 6.50663C2.88965 6.48337 2.39362 6.21167 3.11099 6.29275C2.74565 6.02249 2.10575 6.31063 1.74558 6.12087C1.02432 5.73741 2.24961 5.65508 2.37579 5.61792C2.40861 5.60785 2.29869 5.45262 2.32064 5.44311C2.35251 5.42852 3.04832 5.50028 3.1205 5.37182C3.189 5.24347 2.86232 5.37773 2.84607 5.24388C2.8247 5.15377 3.66491 4.99394 3.21407 4.93235C2.89823 4.89013 2.32444 5.25231 2.22615 4.86301C2.6934 4.83078 3.1437 4.79855 3.60664 4.76633C3.35659 4.61821 3.09827 4.47009 2.85393 4.32197C3.36601 4.275 3.81435 4.44222 4.30804 4.23017C3.12997 3.75555 4.68244 3.8514 4.70592 3.79363C4.70517 3.75909 4.25487 3.37385 4.17107 3.30338C4.57908 3.15518 5.83809 3.08276 5.10042 2.60707C5.24196 2.71447 5.5505 2.44934 5.5494 2.42932C5.51098 2.21917 4.80696 2.35545 4.92292 2.16564C5.05071 1.94538 5.2504 2.24419 5.44445 2.22033C6.4896 2.09592 6.2019 0.99884 7.25109 1.17244C7.23045 1.13338 7.20987 1.09431 7.18936 1.05525C8.32542 1.11743 9.46892 1.1796 10.6072 1.24178C10.6822 1.18605 10.7786 1.13395 10.891 1.08598C11.4245 0.845552 12.333 0.70891 12.8286 0.73983C12.9413 0.747051 13.5159 0.92291 13.5616 0.95374C13.6424 1.01282 13.1974 1.03534 13.3983 1.14612C13.4434 1.16885 14.4168 1.24281 14.347 1.05537C14.2371 1.03362 13.8992 1.12782 13.8448 1.08365C13.4397 0.768333 16.4683 1.02055 16.6046 0.893605C16.538 0.832715 16.4716 0.771826 16.4054 0.710938C16.5941 0.740926 16.7844 0.770919 16.9761 0.800915ZM8.25187 15.8546C8.13485 16.0427 7.8501 15.9015 7.68797 15.9543C7.44433 16.0282 7.05643 16.7524 7.22421 16.0265C7.56789 15.9692 7.90513 15.9119 8.25187 15.8546ZM13.2517 16.135C13.0237 16.0339 13.1997 15.6285 13.3883 15.7971C13.4094 15.8162 13.5622 16.271 13.2517 16.135ZM10.8508 15.9425C10.8534 15.9411 10.869 15.9408 10.891 15.9412C10.9498 15.9424 11.0576 15.9495 11.0627 15.9543C11.1675 16.0517 10.9983 16.0789 10.891 16.0547C10.8144 16.0385 10.7663 15.9992 10.8508 15.9425ZM22.4674 15.7376C22.216 15.7549 22.3976 16.1236 22.5543 15.972C22.5642 15.9624 22.4839 15.7367 22.4674 15.7376ZM22.2886 15.7277C22.0946 15.3975 21.694 16.0662 22.0108 15.999C22.042 15.9922 22.2981 15.7438 22.2886 15.7277ZM12.4338 15.9738C12.4594 15.8473 12.699 15.9084 12.803 15.9386C12.7999 16.0541 12.533 15.9597 12.4338 15.9738ZM18.4388 15.9396C18.4492 15.8402 17.6207 15.8454 17.5673 15.9765C17.6943 15.9209 18.4297 16.029 18.4388 15.9396ZM20.5455 15.8009C20.5244 15.7837 20.2397 15.8097 20.2481 15.8974C20.3865 16.0126 20.6397 15.8787 20.5455 15.8009ZM24.7387 15.8097C24.7534 15.7877 24.5436 15.2291 25.0449 15.5971C25.1186 15.651 24.8551 15.7966 24.8813 15.8167C24.9361 15.8558 24.9794 15.8741 25.0143 15.8774C24.7814 15.9234 24.535 15.945 24.5117 15.9111C24.4007 15.751 24.7317 15.8189 24.7387 15.8097ZM26.9383 15.396C26.9867 15.305 27.2961 15.3541 27.3666 15.3916C27.3787 15.3987 27.3256 15.638 27.4652 15.6203C27.5767 15.6056 27.4105 15.3603 27.6275 15.3998C27.8468 15.4394 27.5535 15.6138 27.5726 15.6263C27.5982 15.6427 27.9379 15.533 27.9272 15.6756C27.9191 15.7812 27.5556 15.7093 27.4657 15.7316C27.3499 15.7603 27.49 15.9364 27.2967 15.8984C27.1753 15.8747 27.243 15.5653 27.2174 15.5497C27.1958 15.537 26.7718 15.7146 26.939 15.397C26.9387 15.3967 26.9385 15.3963 26.9383 15.396ZM25.0776 15.8638C25.06 15.8742 25.0393 15.8797 25.0143 15.8774C25.0355 15.8732 25.0567 15.8683 25.0776 15.8638ZM8.91334 15.7189C9.03364 15.8143 8.67615 15.9367 8.54653 15.8117C8.54305 15.7109 8.89281 15.704 8.91334 15.7189ZM25.2951 15.612C25.6436 15.6899 25.3868 15.7962 25.0776 15.8638C25.1758 15.8056 25.1782 15.586 25.2951 15.612ZM15.3901 15.7357C15.4048 15.7588 15.4141 15.7948 15.4152 15.8539C15.3767 15.7893 15.3732 15.7545 15.3901 15.7357ZM16.2065 15.8414C16.4822 15.6613 15.9232 15.6685 15.9226 15.7974C15.9256 15.846 16.1962 15.8485 16.2065 15.8414ZM22.7908 15.7554C22.7654 15.7378 23.1617 15.1943 22.5866 15.6019C22.8931 15.6662 22.5696 15.7252 22.5744 15.7728C22.5864 15.9097 23.1024 15.7785 23.2176 15.8377C23.3075 15.5929 22.8746 15.8135 22.7914 15.7554C22.7912 15.7554 22.791 15.7554 22.7908 15.7554ZM30.9037 15.5336C30.8336 15.6769 30.612 15.6304 30.4624 15.6217C30.5325 15.4783 30.7542 15.5249 30.9037 15.5336ZM69.5173 16.2869C68.2841 16.3121 68.1604 15.7061 69.276 16.0452C69.2976 16.0523 69.5955 16.234 69.5173 16.2869ZM61.0134 15.7502C60.9293 15.4919 61.2432 15.4637 61.4459 15.5775C61.4923 15.6031 61.6551 15.8681 61.4544 15.9102C61.4719 15.6019 61.175 15.4716 61.0134 15.7502ZM25.4923 15.4491C25.5939 15.2794 25.907 15.4006 26.0724 15.4263C25.9712 15.566 25.6378 15.5024 25.4923 15.4491ZM66.4741 15.8297C66.3627 15.8063 66.2787 16.0248 66.2974 16.044C66.3809 16.1318 66.5974 15.9604 66.4741 15.8297ZM24.4836 15.4218C24.4691 15.3203 24.8856 15.223 24.9129 15.4739C24.826 15.4557 24.4934 15.4855 24.4836 15.4218ZM30.6218 15.4569C30.5576 15.4052 30.8905 15.3134 30.9911 15.3648C30.9828 15.4728 30.6638 15.4905 30.6218 15.4569ZM64.6849 15.8322C64.5884 15.8088 64.3438 15.7921 64.3124 15.8804C64.274 15.9908 64.6349 15.9685 64.6849 15.8322ZM83.3315 15.8891C83.346 15.9287 82.9721 16.2385 82.792 16.1738C82.4543 16.0499 83.3172 15.8619 83.3315 15.8891ZM67.5466 15.7512C67.8607 15.9712 67.511 15.7568 67.5185 15.9789C67.7336 15.9937 68.2725 16.0186 67.9085 15.7908C67.8372 15.7466 67.6463 15.7685 67.5466 15.7512ZM67.2537 15.6679C67.2171 15.7387 66.9796 15.9576 67.1792 15.9479C67.2716 15.943 67.4281 15.696 67.2537 15.6679ZM80.909 16.0962C80.6152 15.9113 81.9345 15.9655 81.9711 15.9969C81.9918 16.0141 82.0056 16.0307 82.0137 16.0448C82.0589 15.9806 82.307 15.9581 82.3435 16.114C82.2678 16.1045 82.0648 16.1275 82.0406 16.1111C82.0301 16.1041 82.0222 16.0975 82.0167 16.0906C81.936 16.2318 80.9676 16.1321 80.909 16.0962ZM78.7227 15.9571C79.043 15.6604 79.1143 16.1512 79.086 16.1678C78.7314 16.3777 78.9575 16.009 78.946 15.9923C78.9201 15.9646 78.6707 16.1386 78.7237 15.9571C78.7234 15.9571 78.723 15.9571 78.7227 15.9571ZM80.4608 16.0308C80.4736 16.024 80.7483 16.0298 80.7602 16.0371C80.9915 16.1948 80.2119 16.1792 80.4608 16.0308ZM28.5977 15.0534C28.786 15.1026 28.6009 15.2836 28.4758 15.2183C28.4656 15.2118 28.4315 15.0099 28.5977 15.0534ZM67.095 15.7116C67.0486 15.6768 65.8958 15.5051 65.9565 15.7807C66.0522 15.7534 67.3697 15.9405 67.095 15.7116ZM58.7573 15.3065C58.9501 15.3151 58.7317 15.566 58.6307 15.4664C58.5934 15.4294 58.7087 15.3045 58.7573 15.3065ZM23.9252 15.1869C23.7213 15.3286 23.7638 14.8528 23.9404 15.016C23.9473 15.0224 23.9332 15.1814 23.9252 15.1869ZM60.2888 15.5104C59.6235 15.6418 59.8062 14.8289 60.6634 15.139C60.635 15.1743 60.6065 15.2097 60.578 15.2451C61.5719 15.4078 60.6443 15.3052 60.3967 15.3416C60.302 15.3553 60.3757 15.4949 60.2895 15.5114C60.2893 15.511 60.2891 15.5107 60.2888 15.5104ZM57.7439 15.2584C57.1232 14.6585 58.3332 15.0733 58.6855 15.01C58.3344 15.2383 57.9017 15.1883 58.4883 15.4529C57.613 15.4723 57.9792 15.2528 57.9471 15.2324C57.904 15.2095 57.7704 15.2842 57.7439 15.2584ZM59.4328 15.3104C59.4717 15.2948 59.7399 15.4229 59.845 15.4076C59.6934 15.6004 59.1846 15.4169 59.4328 15.3104ZM76.4272 16.1198C76.4518 15.9642 76.5113 15.8497 76.7491 15.9065C76.676 15.9851 76.5252 16.053 76.4272 16.1198ZM8.03368 15.0362C7.87865 15.0251 7.57796 14.9665 7.67069 15.13C7.68187 15.1439 8.03138 15.128 8.03368 15.0362ZM63.7832 15.4511C63.7517 15.4306 62.9032 15.3798 63.1885 15.5643C63.271 15.6198 64.0487 15.6326 63.7832 15.4511ZM68.3223 15.6401C68.2465 15.6368 67.9418 15.6582 67.9346 15.6947C67.9102 15.8214 68.286 15.7611 68.3223 15.6401ZM7.25336 14.8771C7.23529 14.8609 6.76175 14.8895 6.81262 14.965C6.91795 15.1076 7.32151 14.9326 7.25336 14.8771ZM29.2827 14.6901C29.3222 14.6844 29.3741 14.8534 29.3878 14.8553C29.4198 14.8578 30.1432 14.7939 29.8665 15.0103C29.82 15.0466 28.7811 14.9618 28.645 14.9402C28.5931 14.7082 29.0373 14.9294 29.1453 14.9057C29.1643 14.9012 29.1768 14.7073 29.2823 14.6911C29.2825 14.6908 29.2826 14.6904 29.2827 14.6901ZM77.6609 15.9459C77.6925 15.7988 78.5834 15.6863 78.5778 15.8644C78.2711 15.8926 77.9667 15.9198 77.6609 15.9459ZM77.205 15.9265C77.0126 15.824 77.4614 15.7854 77.5933 15.8295C77.5979 15.9288 77.2321 15.9417 77.205 15.9265ZM66.6527 15.0387C66.5628 15.0716 66.8276 15.2963 66.7652 15.3359C66.7251 15.3606 66.53 15.2729 66.4646 15.3378C66.4459 15.3585 66.6403 15.5679 66.6994 15.5613C66.783 15.5525 66.7079 15.3907 66.7987 15.3928C67.1002 15.3998 67.3654 15.5219 67.65 15.5275C67.6757 15.5277 67.4797 15.4096 67.6988 15.4176C67.7326 15.4185 67.9324 15.5918 68.1962 15.5735C68.4441 15.3653 68.6557 15.3312 68.8788 15.3508L68.2768 15.3096C68.6523 15.3752 69.0128 15.5416 69.4997 15.4722C69.471 15.422 68.8705 15.236 68.8303 15.2259C68.6787 15.1921 68.4969 15.158 68.2988 15.1225L68.8825 15.1625C68.2681 15.1074 67.4826 15.0791 66.9829 15.061C66.8191 15.055 66.8949 15.1673 66.8242 15.1689C66.7684 15.1699 66.8416 14.9693 66.6527 15.0387ZM8.11613 14.9239C8.03971 14.721 7.78942 14.8495 7.62204 14.839C7.68671 15.022 7.95096 14.879 8.11613 14.9239ZM73.1507 15.7357C73.0638 15.7413 72.7864 15.6716 72.7621 15.7319C72.7296 15.8108 73.1299 15.8733 73.1507 15.7357ZM33.3596 14.755C33.3676 14.7495 33.5669 14.7608 33.5744 14.7672C33.752 14.9305 33.1545 14.8958 33.3596 14.755ZM38.1221 14.8065C38.2713 14.7819 38.4262 14.719 38.4763 14.8838C38.3792 14.8583 38.1037 14.9211 38.1221 14.8065ZM44.6887 14.829C44.659 14.6132 45.1145 14.7553 45.1989 14.7752C45.1675 14.8708 44.7116 14.9844 44.6887 14.829ZM76.3902 15.4432C76.6819 15.4549 76.6181 15.1285 76.8049 15.2753C76.8357 15.3 76.9376 15.9797 76.6139 15.7265C76.556 15.6809 76.7807 15.5186 76.3902 15.4432ZM60.8028 15.1514C60.8765 15.0116 61.0966 15.0628 61.241 15.0803C61.205 15.1848 60.9073 15.1454 60.8028 15.1514ZM6.4042 14.714C6.26434 14.5126 5.67328 14.662 5.82013 14.795C5.83668 14.8124 6.31475 14.7064 6.4042 14.714ZM26.2011 14.7994C26.4487 14.6412 25.9357 14.5915 25.7726 14.7463C25.8459 14.7362 26.1853 14.8099 26.2011 14.7994ZM43.1127 14.7038C43.1244 14.6973 43.3844 14.7139 43.3977 14.7218C43.6116 14.8884 42.8717 14.8424 43.1127 14.7038ZM36.5576 14.5402C36.6516 14.4099 37.2742 14.517 37.4139 14.6481C37.278 14.8385 36.4396 14.7028 36.5576 14.5402ZM75.1811 15.533C75.394 15.5279 75.5883 15.569 75.7827 15.6259C75.7406 15.736 75.2041 15.6155 75.1811 15.533ZM44.0775 14.6949C44.0915 14.6958 44.105 14.7083 44.1184 14.7097C44.1045 14.705 44.0908 14.6996 44.0775 14.6949ZM70.3991 15.2957C70.2174 15.2402 70.2427 15.4435 70.2534 15.4504C70.3871 15.5249 70.6072 15.3582 70.3991 15.2957ZM7.92657 14.6251C7.87025 14.4434 7.59373 14.5843 7.42817 14.5411C7.47554 14.6846 7.80192 14.6442 7.92657 14.6251ZM57.0689 14.8665C56.8677 14.6637 57.7144 14.459 57.88 14.5914C57.8945 14.7133 57.0921 14.8939 57.0689 14.8665ZM25.4303 14.5262C25.4137 14.3838 25.0574 14.5552 25.133 14.6226C25.1808 14.6654 25.4402 14.6146 25.4303 14.5262ZM58.2992 14.6876C58.3788 14.6466 58.5536 14.7929 58.4876 14.8764C58.4032 14.9834 58.2787 14.6993 58.2992 14.6876ZM65.4049 14.863C65.3693 14.8399 64.8869 14.9655 65.0775 15.119C65.2096 15.2256 65.24 15.0209 65.2725 15.0217C65.309 15.024 66.0674 15.3072 65.4049 14.863ZM52.3921 14.6433C52.5629 14.5911 52.7781 14.658 52.9613 14.6571C52.8854 14.7438 52.4609 14.7612 52.3921 14.6433ZM26.8064 14.4896C26.7631 14.4319 25.5935 14.396 26.2581 14.5739C26.2965 14.584 26.9366 14.6641 26.8064 14.4896ZM76.3902 15.4432C76.3529 15.4416 76.3099 15.435 76.2603 15.421C76.3096 15.4264 76.3527 15.436 76.3902 15.4432ZM73.0418 15.3799C73.1149 15.2785 72.7663 15.2403 72.6644 15.2919C72.6275 15.4175 73.0328 15.3944 73.0418 15.3799ZM52.9776 14.5128C53.0844 14.4552 53.2733 14.5217 53.4012 14.517C53.3786 14.6129 53.0226 14.6113 52.9776 14.5128ZM45.5337 14.3328C45.7417 14.3912 46.0095 14.3665 46.0129 14.2487C46.0172 14.2672 46.0274 14.2868 46.0444 14.3065C46.0617 14.3261 46.289 14.2727 46.3863 14.3136C46.9746 14.5559 44.1114 14.4403 45.7699 14.1173C45.6899 14.1891 45.6107 14.2609 45.5337 14.3328ZM35.7155 14.2606C35.5943 14.1168 35.2592 14.2957 35.3459 14.3524C35.4062 14.3912 35.8356 14.4053 35.7155 14.2606ZM40.3457 14.1901C40.3101 14.1644 39.9807 14.2636 39.9717 14.3391C40.1613 14.4194 40.5085 14.3097 40.3457 14.1901ZM34.7919 14.0903C34.7164 14.0685 34.6194 14.2995 34.6282 14.3096C34.7049 14.3942 34.9185 14.2194 34.7919 14.0903ZM75.784 14.8202C75.6647 14.7538 75.2909 14.9193 75.2052 15.0712C75.19 15.0415 75.1489 15.0027 75.0739 14.9559C75.0742 14.9559 75.0744 14.9559 75.0746 14.9559C74.9786 14.9025 71.9045 14.7636 73.9632 15.1053C74.027 15.1159 73.9413 14.9774 74.2025 15.0061C74.2199 15.0082 74.2265 15.1203 74.2803 15.1266C74.4049 15.141 75.0573 15.2193 75.1888 15.1297C75.1897 15.1504 75.1981 15.1702 75.2161 15.1885C75.3805 15.3515 75.8744 14.8716 75.784 14.8202ZM40.9961 14.1721C40.929 14.1304 40.7197 14.1689 40.6982 14.2676C40.799 14.3164 41.151 14.2695 40.9961 14.1721ZM26.7705 14.0842C26.6356 14.0028 26.2942 14.1543 26.3972 14.2352C26.4602 14.2849 26.926 14.1777 26.7705 14.0842ZM38.8993 14.2172C39.6704 14.3366 39.0836 14.2084 39.2023 14.0639C39.1015 14.115 39.0005 14.1661 38.8993 14.2172ZM79.5342 15.1463C79.4048 15.1164 79.5477 14.8268 79.6943 14.9778C79.7404 15.0257 79.6067 15.1625 79.5342 15.1463ZM87.5098 13.79C87.2951 13.7578 87.579 13.5888 87.8884 13.4291C88.1911 13.2746 88.5378 13.1207 88.2233 13.4456C88.1869 13.4876 87.5293 13.7996 87.5098 13.79ZM81.2752 14.8959C81.1944 15.0717 81.142 15.0944 80.8921 15.061C81.2557 14.9987 80.9116 14.8591 81.2752 14.8959ZM46.0107 14.2301C46.012 14.2371 46.0131 14.2423 46.0129 14.2487C46.0114 14.2424 46.0107 14.2363 46.0107 14.2301ZM34.0639 14.1335C33.9677 13.9871 33.6965 13.9973 33.7769 14.1446C33.7847 14.1582 34.0241 14.2414 34.0639 14.1335ZM75.2052 15.0712C75.2186 15.0975 75.2115 15.1144 75.1888 15.1297C75.1879 15.1101 75.1939 15.0917 75.2052 15.0712ZM35.521 14.0179C35.5101 14.1269 35.9249 14.1704 35.9413 14.1576C36.1797 13.9691 35.6909 14.0117 35.521 14.0179ZM24.0381 13.9282C24.0167 13.9395 24.1538 14.2212 24.2383 14.111C24.3037 14.0254 24.1178 13.8849 24.0381 13.9282ZM82.1043 14.7905C82.2412 14.7845 82.4314 14.7755 82.4728 14.9074C82.3821 14.8912 82.1058 14.8887 82.1043 14.7905ZM86.8717 13.8933C86.5158 14.2288 85.7458 14.4747 85.3489 14.5398C85.2633 14.3586 86.4505 14.1539 86.8717 13.8933ZM76.1558 14.8976C76.144 14.8894 75.8026 14.8273 75.8481 14.9658C75.9178 15.1692 76.2524 14.9729 76.1558 14.8976ZM24.6765 14.0782C24.824 13.9829 24.4848 13.6894 24.3296 13.9157C24.2498 14.0316 24.6514 14.0941 24.6765 14.0782ZM33.2172 13.9403C33.0232 14.02 33.5032 14.1638 33.5704 14.0191C33.4813 14.0073 33.2861 13.912 33.2172 13.9403ZM39.8024 13.8121C39.1917 13.3922 39.5221 14.1555 39.6308 14.0889C39.6463 14.0794 39.8174 13.822 39.8024 13.8121ZM4.88625 13.879C4.80071 13.937 5.11917 14.1473 5.16422 14.0089C5.18971 13.9222 4.93888 13.842 4.88625 13.879ZM48.9687 14.1341C48.9425 14.1353 48.9165 14.1364 48.8908 14.1374C48.9101 14.1307 48.9355 14.1287 48.9687 14.1341ZM31.4607 13.3772C31.8892 13.9679 31.845 13.5132 31.8823 13.5157C31.963 13.5222 32.1502 13.6821 32.3022 13.6562C32.128 13.7222 31.9538 13.7883 31.7795 13.8544C31.9176 13.8972 33.1097 14.1167 33.136 14.0211C33.1722 13.885 32.7957 13.927 32.7851 13.9149C32.7694 13.8978 32.7115 13.519 32.6767 13.5046C32.6198 13.4814 31.6207 13.4716 31.4607 13.3772ZM38.5273 13.8732C38.6256 13.9185 38.653 14.0687 38.6988 14.0329C38.7144 14.0207 38.7174 13.8776 38.7706 13.8408C38.6896 13.8516 38.6085 13.8624 38.5273 13.8732ZM30.6908 13.9062C30.5695 13.7311 31.1145 13.7984 31.1319 13.8181C31.2249 13.9368 30.7899 14.0492 30.6908 13.9062ZM35.3157 13.8904C35.296 13.8801 34.8781 13.8245 34.8811 13.9215C34.9919 13.9958 35.5501 14.0187 35.3157 13.8904ZM38.8361 13.8312C38.9833 13.8484 39.2597 13.9935 39.2287 13.7779C39.2284 13.7779 39.2282 13.7779 39.228 13.7779C39.0977 13.7957 38.9671 13.8135 38.8361 13.8312ZM25.1784 13.6235C24.9069 13.2801 25.0351 13.7139 25.2759 13.8248C25.3491 13.6708 25.2229 13.6794 25.1784 13.6235ZM24.3059 13.3669C24.2292 13.305 23.45 13.3721 23.569 13.5538C23.6108 13.6185 24.0591 13.4557 24.08 13.4682C24.1114 13.4869 23.9678 13.6876 24.2076 13.648C24.1936 13.58 24.3318 13.3875 24.3059 13.3669ZM24.9537 13.4036C24.6849 13.1423 24.6213 13.6237 24.826 13.6252C24.9052 13.6261 24.9921 13.4413 24.9537 13.4036ZM26.0604 13.4457C25.9625 13.4 25.7022 13.3331 25.5231 13.493C25.7623 13.5069 26.0039 13.5209 26.2426 13.5348C26.27 13.4441 26.1465 13.4859 26.0597 13.4457C26.06 13.4457 26.0602 13.4457 26.0604 13.4457ZM89.8202 7.93294C89.7312 8.22226 89.7034 8.00243 89.6859 7.77899C89.6679 7.54969 89.6605 7.39789 89.6778 7.39078C89.7334 7.3608 89.7878 7.40163 89.8198 7.50814C89.8521 7.6107 89.8585 7.80811 89.8202 7.93294ZM3.20616 9.50576C3.1518 9.45135 3.10362 9.27231 2.97358 9.36611C3.10775 9.49828 3.23848 9.63044 3.37082 9.76261C3.47522 9.45977 3.26761 9.56579 3.20616 9.50576ZM2.69849 8.39928C2.7181 8.39194 2.61198 7.92627 2.85986 8.23716C3.0223 8.44708 2.1314 8.65166 1.97222 8.44518C2.14871 8.34923 2.5442 8.45906 2.69849 8.39928ZM1.14537 6.38358C1.13448 6.34644 1.47387 6.29197 1.51065 6.31814C1.72101 6.45614 1.19725 6.58253 1.14537 6.38358ZM2.21983 6.47245C2.0617 6.38202 2.41049 6.32372 2.51778 6.37576C2.52408 6.46244 2.24919 6.48562 2.21983 6.47245ZM83.4915 6.64441C83.3229 6.3628 83.3926 7.047 83.5185 6.87301C83.525 6.8646 83.5001 6.65813 83.4915 6.64441ZM1.47399 5.91383C1.63198 6.00426 1.28425 6.06255 1.17784 6.01051C1.16967 5.92393 1.45448 5.90061 1.47399 5.91383ZM83.2366 5.93233C83.0785 5.73717 83.2847 6.47287 83.3126 6.49812C83.4223 6.59887 83.5228 6.25435 83.4903 6.18405C83.3412 6.3538 83.2974 6.02587 83.2366 5.93233ZM82.8781 6.46005C82.7297 6.52774 82.9781 6.61463 83.1584 6.56968L82.8744 6.60037C82.9242 6.57945 82.9611 6.54196 82.9704 6.48255C82.9454 6.49058 82.9042 6.49286 82.8572 6.49365L83.1525 6.46173C83.0407 6.45534 82.9155 6.4427 82.8781 6.46005ZM81.613 6.27626C81.5009 6.25394 81.1697 6.2023 81.1183 6.32466C81.2401 6.29802 81.5712 6.40208 81.613 6.27626ZM81.3475 5.92708C81.1682 5.77108 81.1457 6.24854 81.3399 6.09846C81.3473 6.09265 81.3542 5.93589 81.3475 5.92708ZM80.3689 5.79316C80.2494 5.60792 80.1366 6.07314 80.32 6.07925C80.3746 6.08019 80.3817 5.81443 80.3689 5.79316ZM82.9184 5.16264C82.8259 5.09925 82.7657 5.44723 82.9656 5.44418C82.9127 5.507 82.8474 5.5708 82.7767 5.63399C83.1023 5.76358 82.966 5.31878 83.0311 5.32433C83.1087 5.33302 83.1991 5.69916 83.2138 5.81818C83.2171 5.69832 83.2822 5.61677 83.269 5.58284C83.2625 5.54865 83.1286 5.57932 82.896 5.72959C83.2549 5.35436 83.1994 5.27222 83.0561 5.23257C83.0223 5.22297 83.0064 5.33325 82.9665 5.33009C82.9 5.32481 82.9247 5.16691 82.9187 5.16257C82.9186 5.1626 82.9185 5.16262 82.9184 5.16264ZM79.0946 5.82522C78.7572 5.61906 78.98 6.0769 79.1642 5.9895C79.172 5.98294 79.1029 5.83025 79.0946 5.82522ZM1.02199 4.50655C1.47724 4.70012 1.14467 4.95667 2.10233 4.5671C1.69894 4.84289 2.07795 4.76544 1.99984 4.87668C1.93905 4.96469 1.70004 4.8918 1.83925 5.06907C1.65782 4.87613 0.878476 4.9295 0.845078 4.89817C0.845401 4.89817 0.845724 4.89817 0.846047 4.89817C0.824839 4.87961 0.878311 4.44499 1.02199 4.50655ZM81.5579 5.06654C81.4227 4.51002 81.4192 5.40299 81.1819 4.9468C80.9205 5.63502 81.9819 4.91253 82.1387 5.47569C80.9503 5.46523 82.9497 6.00348 82.0806 5.18907C82.7784 5.46552 82.2989 5.07232 82.3987 4.95833C82.5052 4.83692 82.8946 4.9427 82.8645 4.73463C82.8643 4.73464 82.8641 4.73465 82.8638 4.73466C82.6291 4.76192 82.397 4.78847 82.1614 4.8146C82.4136 5.25431 81.9268 5.14261 81.7469 4.78235C81.6838 4.87713 81.6208 4.97186 81.5579 5.06654ZM82.9121 5.4245C82.8871 5.41572 82.3806 5.50527 82.4165 5.594C82.488 5.64876 83.2134 5.54062 82.9121 5.4245ZM82.4897 5.71912C82.8007 5.41065 83.012 5.22464 83.1126 5.3629C83.051 5.3856 82.7816 5.65652 82.4897 5.71912ZM75.7017 5.48556C75.4678 5.62467 76.1865 5.66767 75.979 5.50178C75.9703 5.49406 75.7125 5.47915 75.7017 5.48556ZM81.029 5.17396C80.7843 5.01186 80.9179 5.55364 81.0895 5.40413C81.0994 5.39533 81.0403 5.18135 81.029 5.17396ZM1.39152 4.44014C1.40684 4.30623 2.07024 4.40029 2.18657 4.39913C2.1223 4.5236 1.37077 4.59366 1.39152 4.44014ZM81.538 6.17011C81.6206 5.47614 82.1913 4.98176 82.466 4.90223C82.7649 4.79598 82.8855 4.90551 82.9025 4.88751C82.9284 4.86175 82.7892 4.69446 82.7927 4.68664C82.8026 4.67455 82.9003 4.63327 82.9244 4.63089C82.9544 4.62566 82.9297 4.64235 82.93 4.64959C82.9283 4.66193 83.0319 4.9401 83.0301 5.03734C83.0358 4.95329 83.1045 4.89469 82.8869 4.9997C82.6916 5.06553 82.1189 5.60106 82.0688 5.67089C82.0191 5.70824 82.0843 5.50419 82.0652 5.44135C82.0562 5.39275 81.8989 5.38211 81.539 6.16821C81.5387 6.16884 81.5384 6.16948 81.538 6.17011ZM82.94 4.80044C82.9464 4.93128 83.0642 4.90225 83.0123 4.87277C82.983 4.82812 82.9933 4.79672 82.9885 4.78507C82.9869 4.772 82.9421 4.7913 82.94 4.80044ZM82.7756 4.71561C82.7589 4.69985 82.656 4.70179 82.575 4.74914L83.0555 4.69722C82.9914 4.71677 82.9426 4.74688 82.9336 4.79154C82.9719 4.82261 83.0168 4.84037 83.0638 4.84829L82.5991 4.89851C82.7382 4.92318 82.8261 4.75908 82.7756 4.71561ZM78.8115 4.88655C78.7031 4.9069 78.4087 4.80706 78.393 4.92795C78.5001 4.90829 78.7967 5.00764 78.8115 4.88655ZM3.65044 3.38737C3.46352 3.28644 3.90396 3.24521 4.01949 3.29361C4.02971 3.37408 3.66445 3.39604 3.65044 3.38737ZM80.9424 4.02315C80.8796 3.99047 79.5869 4.12734 79.4089 4.18717C79.5867 4.27508 80.8741 4.23709 80.9282 4.1889C80.9447 4.1749 80.9508 4.02859 80.9424 4.02315ZM82.7035 3.87926C82.6721 3.70384 82.7193 3.91169 82.7208 3.91412C82.7414 3.9333 82.5581 3.96009 82.6569 4.10589C82.834 3.96667 82.7446 4.23585 82.7035 3.87926ZM78.7006 4.08517C78.2637 4.16099 79.1122 4.32874 78.9963 4.14547C78.9903 4.13445 78.7451 4.07729 78.7006 4.08517ZM81.0853 3.96554C81.1751 3.8197 82.4771 3.88322 82.683 3.87094C82.5111 4.14506 82.3506 3.95198 82.1005 3.97768C82.0332 3.9849 82.0565 4.09402 82.0493 4.09455C81.9328 4.10523 82.014 3.974 81.9421 3.97549C81.8982 3.97752 80.9578 4.17377 81.0853 3.96554ZM82.6781 3.7587C82.6658 3.71053 82.6708 3.66556 82.5309 3.69664C82.4093 3.71498 82.0694 3.89404 82.0429 3.93159C81.8729 4.15713 82.3374 3.90536 82.5155 3.85111C82.715 3.77924 82.6827 3.77828 82.6781 3.7587ZM80.9567 3.73522C81.0851 3.42249 81.7312 3.60051 81.3008 3.77274C81.2603 3.78845 81.076 3.66274 80.9567 3.73522ZM78.7407 3.79119C78.7182 3.78286 78.264 3.73097 78.2564 3.82882C78.3254 3.866 78.9871 3.88511 78.7407 3.79119ZM78.9696 3.45449C78.9583 3.45711 79.0709 3.64296 78.8557 3.62435C78.838 3.62248 78.7984 3.41148 78.5334 3.49496C78.4797 3.51212 78.3993 3.65414 78.4054 3.66274C78.6898 3.9906 79.5161 3.33087 78.9696 3.45449ZM82.6335 3.59271C82.6104 3.50625 82.5412 3.24938 82.5564 3.38533C82.5635 3.44393 82.6341 3.58917 82.6335 3.59271ZM77.2978 3.73014C77.5593 3.5663 76.734 3.54414 76.6904 3.58489C76.7188 3.68546 77.2698 3.74652 77.2978 3.73014ZM4.08339 2.14318C4.08317 2.14318 4.08295 2.14318 4.08274 2.14318C4.31772 2.1797 4.17233 2.31378 4.18306 2.31799C4.67913 2.51493 4.54642 2.21125 4.62507 2.17541C4.79741 2.0979 4.76459 2.4672 5.04452 2.31409C4.58644 2.54019 5.00158 2.44541 5.01594 2.57679C5.06788 3.11296 4.40155 2.32573 4.16774 2.43811C4.13394 2.45368 4.37988 2.62479 4.29437 2.67347C4.01906 2.83121 3.19061 2.00352 4.08339 2.14318ZM82.5304 3.36897C82.4926 3.29998 82.4026 3.32004 82.1826 3.46374C81.9723 3.59979 81.6866 3.8788 81.9271 3.79994C81.9744 3.7772 82.3298 3.61201 82.4454 3.56685C82.5774 3.50896 82.5811 3.47424 82.5304 3.36897ZM46.1584 2.39249C46.3579 2.25743 45.8986 2.09436 45.8108 2.19994C45.7679 2.25253 46.0713 2.45176 46.1584 2.39249ZM42.9483 1.79223C42.7143 1.81881 42.4632 2.38605 42.7562 2.29918C42.7873 2.28968 42.9748 1.87119 42.9483 1.79223ZM58.4926 2.29637C58.2467 2.08547 58.2497 2.46316 58.4354 2.46361C58.5007 2.46383 58.5003 2.30304 58.4926 2.29637ZM49.0118 2.17073C48.9826 2.15731 48.7066 2.17916 48.715 2.26597C48.8158 2.3188 49.1724 2.2625 49.0118 2.17073ZM58.5739 2.24519C58.4231 2.30849 58.671 2.58936 58.8572 2.32855C58.7664 2.34747 58.5896 2.23872 58.5739 2.24519ZM80.442 2.9204C80.3306 3.07965 80.005 3.04415 79.8156 3.07671C79.7898 2.87687 80.308 2.96204 80.442 2.9204ZM43.9447 2.02559C43.7216 2.16596 44.1972 2.28422 44.1542 2.09697C44.1483 2.08678 43.9536 2.0196 43.9447 2.02559ZM66.427 2.54334C66.2664 2.6569 66.7549 2.83717 66.6269 2.62151C66.6204 2.6127 66.436 2.53705 66.427 2.54334ZM68.5589 2.68258C68.4446 2.63966 67.9501 2.63825 68.1392 2.76042C68.1693 2.77939 68.5474 2.79217 68.5589 2.68258ZM4.63908 2.03087C4.5745 1.82463 4.9552 1.87373 5.00906 1.90977C5.02781 1.92476 4.73288 2.2992 4.63908 2.03087ZM56.8711 2.21726C56.7448 2.23969 56.4127 2.18218 56.3499 2.28889C56.5109 2.27042 56.9074 2.43379 56.8711 2.21726ZM44.9584 2.02998C44.7648 1.80479 44.4302 1.82513 44.5116 2.11838C44.8794 2.10073 44.4677 1.85493 44.9584 2.02998ZM59.4129 2.03152C59.3107 2.01091 59.2215 2.28927 59.2328 2.3029C59.341 2.43266 59.511 2.14437 59.4129 2.03152ZM51.6556 2.08548C51.6518 1.96522 51.3222 2.01566 51.365 2.09355C51.3796 2.11968 51.6594 2.18276 51.6556 2.08548ZM76.4021 2.93478C76.2628 2.82558 76.6863 2.7169 76.8167 2.84381C76.8793 3.02806 76.4182 2.94757 76.4021 2.93478ZM62.2752 2.21235C62.2999 2.03483 61.7748 2.11376 61.9741 2.27005C62.0246 2.30916 62.2678 2.27171 62.2752 2.21235ZM67.0987 2.2042C66.7656 2.40592 68.1273 2.60256 67.7765 2.32565C67.7518 2.30634 67.1284 2.18762 67.0987 2.2042ZM69.9239 2.45452C69.8841 2.42641 69.969 1.83358 70.1217 2.08157C70.1423 2.11384 70.0152 2.26 70.0309 2.29803C70.0343 2.32007 70.4419 2.44336 70.4646 2.43048C70.4872 2.41649 70.4787 2.22297 70.5021 2.20336C70.5279 2.18164 70.7816 2.37181 70.926 2.3839C71.2021 2.40692 71.2398 2.24841 71.2633 2.24957C71.3303 2.25289 71.434 2.37323 71.5706 2.38108C72.2558 2.42197 73.358 2.32508 73.923 2.67544C73.4147 2.52764 72.9274 2.65658 72.427 2.67954C72.587 2.3533 71.6869 2.90231 72.2148 2.54195C71.9576 2.62386 69.9984 2.55198 69.9244 2.45458C69.9242 2.45456 69.9241 2.45454 69.9239 2.45452ZM42.0202 1.6201C42.1648 1.4161 41.4287 1.45901 41.3635 1.69548C41.462 1.72872 42.003 1.64321 42.0202 1.6201ZM45.4407 1.13813C45.5113 1.10323 45.5693 0.703579 45.9368 0.908631C45.9372 0.908633 45.9375 0.908635 45.9378 0.908637C46.0441 0.968519 45.922 1.06523 45.9413 1.10008C45.9487 1.11429 46.2789 1.31528 46.0033 1.34558C45.581 1.39212 45.9657 1.04781 45.7401 1.04222C45.7126 1.04172 45.2959 1.25579 45.3192 1.30346C45.3218 1.309 45.4477 1.26393 45.4683 1.2838C45.546 1.35851 45.5072 1.48318 45.5182 1.48918C45.5492 1.50457 46.2253 1.29586 46.3189 1.48231C46.3504 1.54235 45.2545 1.67402 45.2147 1.64272C45.188 1.62294 45.2013 1.27633 45.1737 1.24208C45.16 1.22501 44.7179 1.35247 44.6597 1.3203C44.643 1.31099 44.6302 1.30099 44.6208 1.29275C44.685 1.40034 44.2915 1.39053 44.3041 1.26958C44.3117 1.22205 44.5806 1.25101 44.592 1.25939C44.5963 1.26293 44.6001 1.2678 44.6036 1.27117C44.5493 1.14012 45.4789 1.15119 45.279 0.95555C45.5468 0.850517 45.2396 1.2407 45.4407 1.13813ZM46.7322 0.932191C46.7046 0.968471 46.677 1.00475 46.6493 1.04103C47.1218 0.954852 47.6589 1.13407 48.2074 1.13693C48.3463 1.13792 48.1885 0.913724 48.3696 0.976052C48.5145 1.026 48.6714 1.23408 48.593 1.27958C48.5742 1.29093 48.2812 1.15392 48.1311 1.16663C47.6876 1.20425 47.8051 1.39638 47.7775 1.40133C47.7501 1.40656 47.4804 1.27015 47.3302 1.2751C46.9513 1.28798 46.7788 1.40421 46.2697 1.24761C46.5658 1.12345 46.4067 0.848645 46.7322 0.932191ZM64.4573 1.76689C64.4812 1.64748 64.7819 1.76778 64.8911 1.75491C64.8691 1.87472 64.5708 1.75426 64.4573 1.76689ZM18.4634 1.11485C18.3692 1.31232 19.0711 1.36148 18.8862 1.19704C18.8449 1.16054 18.5508 1.11628 18.4634 1.11485ZM21.6332 1.23648C21.7278 1.18194 21.3474 1.0395 21.3482 1.19237C21.3486 1.24138 21.6209 1.24358 21.6332 1.23648ZM52.8517 1.18727C52.8708 1.18136 53.1376 1.2296 53.1453 1.2398C53.3181 1.45222 52.4452 1.31732 52.8517 1.18727ZM25.4914 0.996412C25.1616 1.12553 26.1542 1.18266 25.851 1.01729C25.8358 1.00923 25.5072 0.990135 25.4914 0.996412ZM26.8697 0.961775C26.7906 0.968619 26.4405 0.903943 26.4359 0.964209C26.4287 1.06143 26.8295 1.12832 26.8697 0.961775ZM59.5078 1.28822C59.4736 1.06431 59.9471 1.2495 60.109 1.22745C60.142 1.45144 59.6706 1.26561 59.5078 1.28822ZM56.5309 1.03518C58.5207 0.913455 58.076 1.37603 56.4092 1.14055C56.4103 0.997773 56.4048 1.04304 56.5309 1.03518ZM59.0803 1.13597C58.9991 1.27591 58.781 1.22648 58.6272 1.21019C58.6598 1.11202 58.9647 1.15773 59.0803 1.13597ZM17.6196 0.8089C17.7403 0.628837 18.2845 0.851038 18.1879 0.925292C18.1643 0.941323 17.574 0.907924 17.6196 0.8089ZM53.0234 0.999513C52.9817 0.782307 53.5764 0.880424 53.6183 0.929337C53.7973 1.12573 53.0761 0.952416 53.0234 0.999513ZM62.3371 1.2072C62.4461 1.04213 62.7455 1.14226 62.9332 1.15272C62.8431 1.29386 62.4952 1.21693 62.3371 1.2072ZM60.9542 1.01789C60.9673 1.01186 61.2359 1.03774 61.2469 1.04601C61.4608 1.22013 60.7006 1.14783 60.9542 1.01789ZM3.76106 0.515189C3.77033 0.509726 3.97255 0.520535 3.97685 0.526908C4.15462 0.689667 3.55479 0.65641 3.76106 0.515189Z" fill="black"/>
</svg>
