<svg width="73" height="16" viewBox="0 0 73 16" fill="none" xmlns="http://www.w3.org/2000/svg">
<path d="M5.68592 15.8722C5.73084 15.8519 5.91154 15.9013 5.98976 15.8927C5.90109 16.1074 5.52388 15.9459 5.68592 15.8722ZM13.7096 0.286661C13.6447 0.339723 13.5798 0.392785 13.5149 0.445846C13.6994 0.480324 13.9473 0.441378 14.1185 0.491747C14.1464 0.500205 14.0738 0.653838 14.1401 0.660698C14.2063 0.667515 14.1935 0.457561 14.2899 0.435104C14.398 0.410551 14.8929 0.556821 15.0643 0.553272C15.7053 0.539099 16.3519 0.419198 16.9942 0.506396C16.3311 0.661726 16.9993 0.819815 17.185 0.752499C17.2262 0.736912 17.2196 0.346591 17.8849 0.44487C18.3077 0.507237 17.9172 1.06526 18.6228 0.785703C18.0802 0.39533 18.6137 0.422689 19.039 0.409712C19.1124 0.407413 19.7045 0.466064 19.9661 0.448776C20.0555 0.442764 20.1919 0.238313 20.3106 0.232948C20.3923 0.229408 20.4541 0.341182 20.5754 0.335491C21.1409 0.310297 21.697 0.301606 22.2635 0.339397C21.9325 0.864788 22.5233 0.563312 22.5499 0.58843C22.6848 0.731078 22.0744 0.771682 22.3158 0.860901C22.6532 0.844625 22.9905 0.828348 23.3279 0.812071C23.051 0.747564 23.6944 0.369643 23.8128 0.541553C23.7607 0.0772988 25.3504 0.945622 25.5924 0.790586C25.6427 0.757838 25.3128 0.528388 26.0782 0.633354C26.161 0.645017 26.1297 0.785088 26.1732 0.772031C26.1992 0.764179 26.3567 0.318981 26.5246 0.564992C26.5859 0.654782 26.1937 0.947179 27.055 0.82965C26.712 0.376527 28.2493 0.584256 28.5321 0.697809C28.4756 0.636934 28.4191 0.57606 28.3626 0.515185C28.6422 0.679404 28.6926 0.525344 28.7556 0.53374C29.0094 0.567463 29.3584 0.72272 29.5948 0.708552C29.8715 0.692251 29.8724 0.410451 30.195 0.520068C30.1185 0.457891 30.0419 0.395714 29.9654 0.333537C30.1882 0.348512 30.4109 0.363487 30.6337 0.378461C30.1178 0.751486 30.745 0.396258 30.7863 0.388227C30.8522 0.374651 30.7575 0.527365 30.8677 0.508349C30.8791 0.505219 30.8627 0.361408 31.0325 0.345257C31.3875 0.312002 31.3314 0.492815 31.4804 0.49077C31.494 0.489838 31.4462 0.360281 31.7036 0.329631C32.5217 0.232059 31.6996 0.428915 31.6682 0.446823C31.627 0.470442 31.9074 1.01186 31.2126 0.819884C31.4459 0.881001 31.4694 1.12059 31.4956 1.12654C31.5189 1.13143 31.9231 1.09768 31.9454 1.08943C32.1441 1.00807 31.9693 0.844341 32.008 0.815001C32.0397 0.791349 32.5267 1.00471 32.6409 0.512255C32.8739 0.966491 32.5068 0.924876 32.116 0.994695C32.059 1.08791 32.4882 1.17854 32.5107 1.1783C33.0642 1.17747 32.7578 0.803831 32.8788 0.564992C32.9424 0.440026 33.1679 0.694933 32.9597 0.359906C33.4621 0.324541 33.1574 0.518681 33.1898 0.547413C33.2388 0.589625 33.4146 0.493605 33.4366 0.506396C33.4689 0.52533 33.3566 0.641326 33.484 0.682184C33.5051 0.688124 33.7103 0.488517 33.4457 0.39311C33.7992 0.421486 33.7701 0.251281 33.89 0.59429C34.1335 -0.0546408 34.0667 0.977867 34.1625 1.01423C34.4175 1.11007 34.3435 0.600579 34.357 0.575734C34.4497 0.41652 35.1555 0.591542 35.3302 0.518115C35.2613 0.885083 34.7708 0.522122 34.6611 0.593313C34.2954 0.830165 35.1765 0.776784 34.9109 1.23787C35.0222 1.11124 35.1336 0.984604 35.2449 0.857971C35.4491 1.15443 35.1595 1.2837 35.7088 1.17537C35.7987 0.919482 35.3204 1.21578 35.4164 1.01423C35.4729 0.895936 35.7915 0.87053 35.7977 0.808165C35.804 0.733094 35.5161 0.822063 35.5615 0.706599C35.6606 0.457427 36.7107 0.694637 35.9113 0.830627C36.1343 0.826368 36.2492 1.32198 36.4425 1.16755C36.5676 1.06732 35.8641 0.38283 36.9195 0.508349C36.9419 0.742378 36.4975 0.577456 36.486 0.595266C36.4698 0.621191 36.5502 1.1493 36.5641 1.17537C36.6133 1.26119 37.691 0.978398 37.9188 1.24373C37.8286 0.938502 38.7331 1.18926 38.8316 1.09626C38.8579 1.07059 38.7598 0.883621 38.7879 0.863831C38.9628 0.746049 39.4359 1.0798 39.6553 1.08845C39.9009 1.09825 39.8698 0.93677 39.8836 0.937076C39.9916 0.946083 39.9053 1.05555 39.9714 1.05524C40.0712 1.05472 40.757 1.07711 40.7915 1.05427C40.8015 1.04715 40.6896 0.862688 40.8391 0.827697C40.865 0.821634 40.8486 1.04033 41.2914 0.945865C41.8247 0.832245 40.9211 0.673898 41.1427 0.44487C41.4852 0.770969 41.4741 0.447817 41.567 0.473191C41.5991 0.482434 41.8385 0.757184 42.0985 0.739803C41.9119 0.784401 41.7253 0.828999 41.5387 0.873597C41.7221 0.921773 42.0783 0.862143 42.2295 0.916567C42.3032 0.94306 42.2424 1.16877 42.4026 1.16267C42.4366 1.16015 42.5714 0.610255 42.1519 0.856995C42.1184 0.660645 42.318 0.788507 42.4106 0.732967C42.4246 0.724312 42.4799 0.396287 42.5981 0.600149C42.6265 0.650306 42.3173 1.60718 43.1147 0.914614C43.1403 0.892293 43.0511 0.772457 43.0762 0.747616C43.0933 0.730792 43.2968 0.779266 43.3193 0.762265C43.3423 0.744022 43.244 0.613196 43.2714 0.587453C43.4118 0.454803 43.5961 0.973682 43.3066 0.934146C43.4033 0.998276 43.5001 1.06241 43.5969 1.12654C43.4933 0.735475 43.7488 1.01651 43.8827 1.00446C44.7407 0.927491 44.1661 0.673149 44.3136 0.541553C44.5509 0.330263 44.3697 0.999486 44.7219 0.798399C44.7545 0.779598 44.3287 0.495523 45.1601 0.655815C45.0374 0.666883 44.9147 0.677952 44.792 0.68902C44.8627 1.06726 45.235 0.663073 45.2636 0.657769C45.5901 0.605833 45.3694 0.74219 45.8541 0.547413C45.8974 0.529925 45.9917 0.623274 46.0843 0.576711C46.468 0.384877 45.578 0.460303 45.5536 0.307169C45.5421 0.232135 46.4993 0.251032 46.5321 0.286661C46.6717 0.444596 46.0982 0.356223 46.2075 0.552296C46.2474 0.621915 47.6117 0.478926 47.8854 0.555226C48.2012 0.644013 48.3434 1.15684 48.3454 0.580617C48.4346 1.14623 48.5133 0.760323 48.5537 0.764218C49.0422 0.816577 49.0431 0.822285 49.4619 0.768124C49.5544 0.756352 49.6325 0.927967 49.6652 0.898989C49.6842 0.881486 49.6486 0.697831 49.7419 0.641166C49.8715 0.563647 50.6501 0.752543 50.708 0.854065C50.7658 0.955588 50.3792 0.898092 50.4485 1.06501C50.7284 1.08188 50.9968 1.04058 51.2785 1.05817C51.3956 1.06598 51.3354 1.18281 51.386 1.18513C51.4075 1.18657 51.8116 1.08369 51.7945 1.0406C51.7544 0.940389 50.5065 1.00775 50.8351 0.803282C50.8985 0.763774 51.1225 1.03299 51.0869 0.705622C52.2017 0.779843 53.3166 0.854065 54.4315 0.928287C53.7909 1.17314 53.0701 0.954159 52.3991 0.977117C52.3072 0.979951 51.9963 0.948376 52.0341 1.11384C52.6046 1.15668 53.3139 1.07047 53.8618 1.1783C53.8793 1.18186 53.815 1.33053 53.8806 1.35408C54.0034 1.39805 54.4031 1.15829 54.4703 1.22029C54.4818 1.23473 54.2543 1.43072 54.3235 1.55526C54.5011 1.87488 54.5461 1.16698 54.6988 1.17537C54.8168 1.18215 55.6102 1.52444 55.8078 1.30818C56.0179 1.07768 55.2231 1.17437 55.2818 0.985906C55.8196 0.796514 56.364 0.998757 56.8721 0.975163C56.8811 0.974562 56.8034 0.826875 56.9167 0.806212C57.114 0.770251 57.1658 0.979738 57.2618 1.01325C57.3654 1.04893 57.7316 1.0189 57.7806 1.09529C57.7868 1.1053 57.7126 1.31309 57.7014 1.31893C57.5419 1.40456 57.4852 1.13488 57.4707 1.13142C57.4161 1.12119 57.3625 1.22449 57.3128 1.21834C57.2309 1.20808 57.1858 1.11251 57.0777 1.10407C57.0031 1.0979 57.075 1.28142 57.0031 1.27303C56.9768 1.2692 56.6921 0.85015 56.6655 1.27791C56.6573 1.41278 58.9854 1.58598 59.2181 1.47811C59.0185 1.42668 58.8189 1.37524 58.6193 1.32381C59.0246 1.44901 59.5115 1.10723 59.546 1.61288C61.0491 1.65423 62.5522 1.69557 64.0553 1.73691C64.3237 1.77999 64.1765 2.10493 64.6181 2.01036C64.504 1.90684 64.3899 1.80332 64.2757 1.6998C64.5021 1.77242 65.5049 1.9143 65.6672 1.84727C65.6883 1.83848 65.7174 1.5444 65.968 1.51913C66.1904 1.49682 66.2261 1.71716 66.345 1.75937C66.4448 1.7942 66.5568 1.73647 66.5865 1.74863C66.6092 1.75837 66.6182 1.89311 66.6729 1.91661C66.8456 1.98925 66.7056 1.60987 66.877 2.04552C66.8353 2.06212 66.7936 2.07872 66.7518 2.09532C66.9602 2.15838 67.2449 2.35616 66.938 2.45374C66.8852 2.47058 66.9305 2.34023 66.8911 2.34045C65.3499 2.36467 66.5806 2.61807 67.1207 2.41565C67.2595 2.6088 68.0369 2.49087 68.0627 2.52893C68.0986 2.58406 67.9656 2.73843 68.14 2.87172C68.1767 2.89994 69.2161 2.79178 68.8418 3.04848C68.7646 3.10144 68.2662 3.0458 68.1461 3.05337C68.4287 3.46275 69.0914 2.87622 69.1659 2.89125C69.4664 2.95505 68.5884 3.24604 69.2656 3.29361C69.7862 3.33011 69.2974 3.05676 69.4977 2.94008C69.6102 2.87461 70.1995 3.17575 70.1834 2.78578C70.3857 2.74414 70.2673 2.95062 70.2923 2.96547C70.3167 2.97853 70.7144 2.86179 70.8435 2.94399C70.8591 2.95421 70.8098 3.1569 70.826 3.17349C70.8575 3.20189 71.241 3.16137 71.2564 3.14419C71.2662 3.13226 71.1748 2.9548 71.2124 2.91176C71.2562 2.86214 71.6252 2.9039 71.6456 2.85316C71.6743 2.77646 71.2187 2.82699 71.2946 2.62855C71.5046 2.67851 71.8468 2.54611 71.9854 2.38635C71.9514 2.43203 71.7478 2.43859 71.6771 2.42248C71.7104 2.13184 72.1476 2.1358 71.9981 2.36584C72.0931 2.2423 72.0283 2.17676 72.0818 2.06017C72.0958 2.03063 72.2308 2.02455 72.2568 1.97422C72.2602 1.9642 72.1209 1.85454 72.1488 1.79551C72.1993 1.68883 72.6086 1.71283 72.6421 1.74082C72.7363 1.82013 72.4026 1.91609 72.3748 2.03868C72.3708 2.05751 72.6547 2.29775 72.659 2.31896C72.6756 2.54661 72.3597 2.38256 72.3959 2.58753C72.474 2.63083 72.5521 2.67412 72.6302 2.71742C72.3289 2.92498 71.7715 2.81825 71.6278 3.05434C72.0745 2.98409 72.5419 2.9924 72.541 3.52409C72.5407 3.74801 72.348 3.87928 72.3554 3.93621C72.3838 4.13993 72.6514 3.91862 72.6612 3.92938C72.6693 3.94179 72.673 3.95388 72.673 3.96565C72.673 3.96565 72.673 3.96566 72.673 3.96566C72.673 4.08494 72.2917 4.17083 72.2726 4.22529C72.2405 4.32203 72.4102 4.72024 72.41 4.80832C72.4041 4.82601 72.1325 4.92025 72.2241 5.07395C72.3168 5.2292 72.5545 5.23263 72.5629 5.24876C72.6083 5.34164 72.1925 5.42634 72.1801 5.48119C72.1735 5.50892 72.3968 5.6793 72.4033 5.72827C72.4089 5.77743 72.2392 5.88467 72.1723 6.03981C72.1225 6.15507 72.2677 6.24343 72.2421 6.2615C72.2239 6.27347 71.8311 6.27151 71.8117 6.29177C71.783 6.32174 71.875 6.45949 71.8616 6.49393C71.8426 6.54347 71.7158 6.49374 71.7322 6.54471C71.7447 6.5827 72.2364 7.05754 72.2333 7.18438C72.2276 7.40072 71.7069 6.90296 72.1915 7.75667C72.1948 7.76228 72.3128 7.7016 72.3161 7.70686C72.3889 7.86394 72.0107 8.10556 72.4731 8.06332C71.613 8.33613 72.3661 8.38853 72.2388 8.7528C72.1897 8.89282 71.8562 8.95055 71.8547 8.97156C71.8871 9.14918 71.9933 9.01142 72.0294 9.09852C72.0493 9.14719 71.751 9.33499 71.8181 9.45693C71.8528 9.51978 72.1695 9.49741 72.1826 9.50967C72.3079 9.62529 72.1542 9.74983 72.1818 9.83194C72.2001 9.88701 72.3911 9.89137 72.3961 9.90128C72.4042 9.92191 72.1447 10.1444 72.0906 10.2226C72.0495 10.2828 72.2038 10.377 72.1751 10.4033C72.0024 10.5601 71.6348 10.1601 71.989 10.7207C72.0106 10.755 72.1446 10.7411 72.1485 10.748C72.2313 10.9069 71.9846 10.9206 71.9405 11.0507C71.8648 11.2749 72.2193 11.1499 71.9245 11.3076C72.1457 11.4542 72.2689 11.4481 72.5277 11.4072C71.8111 11.5212 71.5581 12.1015 72.3538 12.0869C72.1007 12.0779 72.1287 12.4054 72.0532 12.4111C72.0063 12.4143 71.6393 12.0887 71.8076 12.8194C71.8287 12.9106 72.0516 12.7947 71.9818 12.9815C71.4468 12.9338 71.9704 13.1003 71.971 13.125C71.9641 13.5554 70.6568 13.2029 70.4322 13.252C70.1715 13.3089 69.9399 13.6481 69.8832 13.6485C69.6968 13.6486 69.8515 13.4764 69.8098 13.4131C69.7676 13.3504 69.2375 13.6803 69.211 13.6622C69.1083 13.5894 69.2126 13.3853 69.2019 13.375C69.0747 13.25 68.3628 13.4098 68.1635 13.3624C68.1697 13.4947 68.5698 13.5052 68.32 13.7178C68.0291 13.9657 68.0124 13.3822 68.0048 13.3565C66.6719 13.362 65.3389 13.3676 64.006 13.3731C64.0226 13.6836 64.8941 13.4494 64.9139 13.4903C65.0303 13.7323 63.5581 13.7278 63.3775 13.6182C63.5147 13.6853 63.6519 13.7523 63.7891 13.8194C63.5549 14.1763 63.0364 13.7126 62.6976 13.8702C62.5881 13.9213 62.7983 14.059 62.794 14.0684C62.6709 14.2071 62.4735 14.1003 62.6211 13.9141C62.3208 14.0925 62.3647 13.8957 62.1342 13.8809C62.1224 13.8803 62.2213 14.0243 62.039 14.0841C61.9535 14.1119 61.4978 14.1124 61.4368 14.2384C61.4117 14.2914 61.6429 14.85 61.6714 14.3692C62.1671 14.6036 61.8298 14.1502 62.0223 14.1612C62.0519 14.1637 61.9839 14.4321 62.4688 14.3057C62.3765 14.7896 61.8181 14.4278 61.7224 14.4864C61.525 14.6069 62.3384 14.8568 62.4876 14.4796C62.4179 14.8572 62.5453 14.5305 62.7267 14.546C62.9251 14.5628 62.8386 14.6753 62.946 14.6759C63.2397 14.6787 63.118 14.4121 63.3601 14.6524C63.124 13.9085 63.7746 14.5543 63.9642 14.7491C63.6557 14.7869 63.3473 14.8246 63.0388 14.8624C63.0564 14.9015 63.0741 14.9405 63.0917 14.9796C63.0105 14.9741 62.9292 14.9685 62.848 14.963C62.861 14.9256 62.874 14.8881 62.887 14.8507C62.4681 15.0941 62.3659 14.8205 62.3317 14.8175C61.892 14.7858 61.384 14.7881 60.9394 14.7872C60.8727 14.7871 60.9185 15.0306 60.4323 14.8399C60.2772 14.7792 60.4236 14.5898 60.2478 14.6183C60.0279 15.133 60.0321 14.7224 59.9667 14.7218C59.7791 14.7218 59.6644 14.8493 59.6471 14.8507C59.4153 14.8706 59.0758 14.8493 58.8212 14.8683C58.8164 14.8702 58.9489 15.0283 58.7835 14.9816C58.7254 14.9648 58.2044 14.2898 57.749 14.5099C57.8675 14.5554 57.9859 14.601 58.1044 14.6466C57.9651 14.5829 56.9891 14.753 57.2278 14.9337C57.3741 15.0441 57.7312 14.609 57.7703 15.0275C57.4456 14.9022 55.6519 15.0895 55.5122 14.9923C55.4929 14.9784 55.6118 14.8427 55.5851 14.8253C55.5644 14.8121 55.1536 14.8442 55.099 14.7921C55.0665 14.7611 55.2481 14.6779 55.2333 14.629C55.2204 14.5941 54.7073 14.536 54.678 14.7062C54.804 14.6378 55.1582 14.6975 54.9724 14.8409C54.9485 14.8587 54.8247 14.749 54.7957 14.7716C54.5264 14.9801 55.3312 14.93 55.4557 14.9317C54.9502 15.1485 54.1683 14.893 53.5826 15.0343C53.3459 14.8927 53.9335 14.8176 53.6657 14.7003C53.1102 14.4571 53.5179 14.8961 53.5006 14.9142C53.3626 15.0571 52.8927 14.2913 52.8924 14.8741C52.691 14.7864 52.7562 14.7129 52.472 14.7892C52.5094 14.8295 52.5467 14.8699 52.5841 14.9103C52.2686 15.2479 51.6007 14.3961 51.6508 14.3311C51.7854 14.1572 52.1332 14.4285 52.1629 14.422C52.2069 14.4123 52.3284 13.8209 52.8096 14.3497C53.0066 13.953 52.0469 14.082 52.4836 13.8116C52.1887 13.856 50.9754 13.5799 50.8008 13.754C50.7799 13.7767 50.877 14.1719 50.5772 13.9708C50.435 13.875 50.7781 13.8704 50.713 13.7803C50.5126 13.504 47.7876 13.6808 47.27 13.6954C47.2364 13.6958 47.2487 13.5731 47.2157 13.5743C47.1143 13.5777 46.7447 13.7606 46.5632 13.7042C46.9392 13.9312 46.2089 13.9489 46.0231 13.9239C45.7411 13.8859 45.7585 13.67 45.6367 13.6241C45.1672 13.4471 44.4397 13.9596 44.0749 13.4805C44.0949 13.956 43.444 13.2474 43.1479 13.2432C42.916 13.2398 42.5795 13.5545 42.8925 13.7462C42.4922 13.7243 42.0707 13.813 41.6952 13.8419C41.6331 13.8467 41.7186 13.7061 41.6127 13.7188C41.603 13.721 41.5898 13.8588 41.4988 13.8731C40.748 13.9932 41.1134 13.7004 40.9729 13.6143C40.8943 13.5661 40.8363 13.5421 40.7937 13.5342C41.2313 13.5073 41.7361 13.4532 41.8711 13.4493C41.7559 13.145 40.9011 13.5077 40.6508 13.4258C40.6421 13.4229 40.6723 13.2551 40.6635 13.2539C40.6633 13.2539 40.6631 13.2539 40.6629 13.2539C40.5691 13.2411 39.9716 13.303 40.0946 13.503C40.1276 13.5564 40.4027 13.5563 40.7289 13.5381C40.6406 13.5757 40.7065 13.7635 40.6909 13.7715C40.502 13.8644 40.0391 13.681 39.875 13.6563C39.8374 13.6509 39.8401 13.7713 39.834 13.7715C39.6847 13.7442 39.7459 13.4005 39.5927 13.7549C39.3223 13.3266 40.0995 13.6913 40.0448 13.4131C40.0027 13.1989 38.2764 13.314 38.2816 13.6514C38.2756 13.6153 38.2519 13.5705 38.2032 13.5196C38.0952 13.4063 37.6147 13.4418 37.5318 13.504C37.5178 13.5162 37.5234 13.8437 37.5061 13.8467C37.4627 13.8543 36.8754 13.5975 36.6561 13.7911C36.7745 13.837 36.893 13.8829 37.0114 13.9288C36.2961 13.9316 36.4067 14.0291 36.645 14.127C36.6569 14.1279 36.6685 14.1403 36.6799 14.1417C36.8646 14.2141 37.1014 14.2838 37.105 14.3097C37.1186 14.4082 35.905 14.4631 36.1384 14.1593C36.1709 14.1177 36.7325 14.253 36.4544 14.0362C36.4058 13.9982 36.0452 14.0601 36.0262 14.0362C35.8995 13.8773 36.687 13.6662 36.5907 13.4405C36.3996 13.6554 36.1543 13.5422 35.9351 13.5977C35.8354 13.6228 35.8109 13.787 35.7986 13.7901C35.6147 13.833 35.7179 13.6608 35.6565 13.6651C35.6236 13.6681 35.2612 14.0345 35.3297 13.5294C34.1357 13.9009 34.9994 13.9006 35.7318 13.8721C35.5004 14.0561 35.0467 13.9671 34.843 14.0098C34.77 14.0253 34.8133 14.1939 34.6899 14.2276C34.4359 14.297 33.2232 14.1033 32.9073 14.0577C33.1013 13.9981 33.0446 13.8145 32.8949 13.8272C32.7451 13.84 32.8709 14.0851 32.8417 14.1114C32.8104 14.1387 32.1077 14.023 31.9908 14.0548C32.5198 13.966 32.4005 13.7829 31.9515 13.7637C32.0164 13.711 32.0813 13.6583 32.1462 13.6055C31.8831 13.6796 31.3298 13.4003 31.1777 13.4835C31.1538 13.4968 31.2395 13.6508 31.2261 13.6583C31.0927 13.7237 30.6388 13.5667 30.6176 13.6192C30.5997 13.6629 30.7934 13.792 30.7215 13.8555C30.7065 13.8689 30.5198 13.6608 30.336 13.712C30.2678 13.7308 30.3088 13.8764 30.2916 13.8848C30.1484 13.9549 30.233 13.7097 29.9712 13.7491C29.7794 13.7782 29.6366 14.0179 29.3716 13.9385C30.2417 14.2441 29.5102 14.1165 29.1464 14.2091C29.0881 14.2238 29.1381 14.4881 28.7897 14.3595C29.5311 13.8815 28.5783 14.1068 28.3833 14.1016C28.3727 14.1 28.369 13.9257 28.2734 13.9229C28.2653 13.9231 28.2769 14.0409 28.1881 14.0499C27.3455 14.135 27.8843 14.002 27.7242 13.8858C27.656 13.8363 27.2463 14.0029 27.1359 14.0069C27.1105 14.0073 27.1222 13.8849 27.024 13.8897C26.8503 13.8985 26.6947 14.0288 26.58 14.0391C26.5666 14.0397 26.5661 13.8466 26.3488 13.9092C26.2876 13.9268 26.219 13.9953 26.3058 14.0509C26.5937 14.2335 27.1396 13.9174 27.4649 14.0997C27.7616 14.2657 26.8261 14.2813 26.7775 14.2823C26.7596 14.2829 26.9423 14.187 26.7567 14.168C26.5982 14.1522 26.3086 14.4858 26.0723 14.4132C26.0543 14.4078 25.8656 14.125 25.8743 14.1085C25.8822 14.0964 26.172 14.035 26.1299 13.9532C26.1249 13.9439 25.9407 13.9458 25.9167 13.8848C25.8872 13.8107 25.8078 13.0827 25.7685 13.0645C25.6676 13.0194 25.7333 13.1854 25.668 13.1739C25.528 13.1495 25.0423 12.9343 25.0265 13.1866C25.1067 13.2015 25.187 13.2165 25.2672 13.2315C24.8208 13.2574 25.0111 13.3648 24.9479 13.4122C24.8798 13.4634 24.8989 13.2416 24.7484 13.2207C24.7157 13.2162 24.0861 13.2625 24.0976 13.3555C24.4457 13.2074 24.3166 13.4815 24.3327 13.4864C24.3937 13.5042 24.4716 13.3505 24.5535 13.3536C25.1291 13.3776 24.5486 13.6203 24.6845 13.6827C24.7312 13.7037 24.8244 13.5724 24.8443 13.5792C24.9088 13.6009 24.9098 13.7728 24.9528 13.7589C25.0532 13.7266 24.936 13.4834 24.944 13.4708C25.0337 13.3186 25.3852 13.5079 25.1664 13.7725C25.2977 13.8679 25.3131 13.5463 25.4173 13.6749C25.6244 13.9294 25.3142 13.864 25.2301 13.9063C24.9285 14.0588 24.8391 13.9354 24.4122 13.9776C24.2585 13.9925 24.0764 14.1487 24.0051 14.1573C23.9601 14.1627 23.5359 13.6192 23.5234 14.4698C23.3585 14.3875 23.0998 13.827 22.9299 13.8526C22.7773 13.876 22.8258 14.1769 22.8116 14.1886C22.7898 14.2068 22.6053 14.1831 22.543 14.2257C22.4698 14.2759 22.5063 14.3908 22.3903 14.4376C22.1017 14.5538 22.1093 14.2466 22.0796 14.2266C21.7352 13.9959 21.886 14.4328 21.8095 14.4679C21.7385 14.5001 20.7415 14.3319 20.5316 14.4425C20.617 14.3809 20.7024 14.3194 20.7878 14.2579C20.635 14.0663 20.473 14.3788 20.4701 14.0352C20.4391 14.5899 20.1237 14.2191 20.0289 14.2335C19.9916 14.2394 19.9945 14.3339 19.9478 14.338C19.7652 14.3545 19.3535 14.2793 19.2545 14.3272C18.8263 14.5336 19.9214 14.8768 20.0076 14.8976C19.835 14.8914 18.8586 15.0157 19.3074 15.2823C19.3768 15.3235 19.4997 15.0753 19.5387 15.0655C19.8024 15.0016 19.595 15.2241 19.6157 15.2452C19.6508 15.2794 19.8244 15.0643 19.8702 15.09C19.8855 15.0982 19.7871 15.2996 20.0386 15.3038C19.9149 15.4991 19.208 15.34 19.1152 15.3859C19.0822 15.4022 19.2893 15.8195 18.6842 15.4142C18.6913 15.4529 18.6983 15.4917 18.7053 15.5304C18.3684 15.5464 18.0315 15.5623 17.6946 15.5783C17.7313 15.489 17.9204 15.3097 17.6822 15.3478C17.545 15.3698 17.6465 15.5686 17.634 15.5744C17.5109 15.6291 15.3325 15.5629 14.9103 15.5851C14.7667 15.5923 14.3664 15.7521 14.3359 15.755C14.1534 15.771 13.5071 15.667 13.3781 15.6896C13.2976 15.7041 13.3742 15.8702 13.3022 15.8624C13.2354 15.855 13.3046 15.6944 13.2848 15.6876C13.1203 15.6294 11.8709 15.8401 11.5742 15.6886C11.7556 15.7341 12.6604 15.4132 12.6422 15.2999C12.6383 15.2844 12.4184 15.1622 12.373 15.2218C12.2981 15.0827 12.0407 15.5061 11.9008 15.423C11.885 15.4135 11.9473 15.176 11.6975 15.1329C11.6114 15.1182 11.3861 15.3033 11.1593 15.0958C10.831 15.1955 9.10496 14.8875 8.98654 15.1427C8.98303 15.1562 9.22609 15.244 9.06187 15.3488C8.84356 15.488 9.03962 15.0191 8.78518 14.9786C8.74684 14.9725 8.03895 15.0199 8.01577 15.0489C7.80137 15.3121 8.41994 15.4188 8.41128 15.4493C8.38971 15.5264 7.87574 15.573 7.85485 15.5548C7.83496 15.5359 8.25413 15.1872 7.75043 15.3195C7.80814 15.3611 7.86584 15.4028 7.92354 15.4445C7.68665 15.5256 7.66407 15.2844 7.60669 15.2697C7.42829 15.223 7.23528 15.5894 6.94945 15.1368C6.87387 15.0167 6.99934 14.8833 6.98988 14.8653C6.89909 14.7037 6.78325 15.1361 6.64672 14.8136C6.63644 14.7895 6.95418 14.5963 6.39884 14.5958C6.43706 14.6267 6.47528 14.6576 6.5135 14.6886C6.43519 14.7576 5.87291 14.7986 5.79726 14.7823C5.57628 14.7346 5.769 14.5126 5.54689 14.5392C5.68934 14.8434 5.01393 14.8831 5.05278 14.6212C4.95844 14.9501 4.38468 14.6964 4.11497 14.6886C3.94479 14.6839 3.59766 14.8274 3.54359 14.8106C3.47771 14.7901 3.49773 14.5657 3.37879 14.5157C3.34487 14.5015 2.9908 14.666 2.68 14.4337C2.61977 14.3889 2.49327 14.0083 2.60522 13.9132C2.79685 13.7504 3.15935 14.057 3.15472 13.8321C3.14929 13.5915 2.66103 13.7346 2.52961 13.7032C1.92288 13.558 2.27323 13.3022 2.25763 13.2247C2.21717 13.0365 1.88565 13.0423 1.87181 13.0254C1.81448 12.9503 2.0494 12.8014 2.05295 12.6865C2.05723 12.537 1.73768 12.2672 1.81033 12.2168C1.91432 12.1452 2.20799 12.3701 2.22661 12.3594C2.46898 12.2143 2.13676 11.8689 2.0452 11.6992C2.01744 11.647 2.12803 11.5612 2.10502 11.5459C1.75373 11.3135 2.03097 12.0313 1.79731 11.9834C1.58884 11.9407 1.85707 11.7137 1.8491 11.7012C1.83881 11.6874 1.58955 11.675 1.55053 11.5947C1.5313 11.5545 2.17916 11.113 2.1521 10.915C1.9454 10.9586 1.73869 11.0022 1.53198 11.0459C1.51577 10.7877 1.81309 10.9777 1.84384 10.9511C1.90575 10.8977 1.73312 10.7671 1.74053 10.6855C1.74451 10.6336 1.94711 10.4484 1.76407 10.372C1.70117 10.3456 1.56915 10.5266 1.34004 10.3417C2.13738 10.1056 1.58484 9.96049 1.56133 9.86906C1.53831 9.77763 1.91897 9.56244 1.45692 9.60049C1.43689 9.09815 1.46688 9.4417 1.59817 9.35341C1.75901 9.24488 1.38728 9.07947 1.97512 9.20497C1.94168 8.96978 1.46919 8.98642 1.44418 8.96765C1.42258 8.95065 1.5276 8.83497 1.49015 8.79577C1.04721 8.34133 1.35145 8.54885 1.22316 8.25864C1.21175 8.23271 0.793098 8.12512 1.11182 8.08285C1.69248 8.00602 1.93515 8.3393 2.03273 7.62678C1.60324 7.31728 1.08285 7.77719 0.952285 7.78499C0.752446 7.79622 0.959461 7.65091 0.934836 7.61018C0.926283 7.59702 0.754074 7.60903 0.751761 7.59748C0.628966 7.05404 1.51839 7.58846 1.79842 7.49397C1.72336 7.41258 1.6483 7.3312 1.57324 7.24982C1.67508 7.24656 1.77691 7.2433 1.87874 7.24005C1.39361 7.07645 1.86164 7.17811 1.9826 6.73808C2.00976 6.63921 1.69105 6.80877 2.05461 6.53397C1.78647 6.47053 1.872 6.38063 1.62919 6.50467C1.63546 6.32829 2.18175 6.12934 2.39722 6.03883C1.63602 5.84063 2.0701 6.48757 1.41205 6.14528C1.29002 6.36368 1.60412 6.32116 1.57851 6.3572C1.48661 6.48682 1.27119 6.28101 1.01128 6.73515C0.968959 6.80971 1.14803 7.03922 0.883043 7.02813C0.853735 7.02655 0.684887 6.83042 0.687228 6.81621C0.709612 6.6626 0.876699 6.72016 0.883597 6.65604C0.89007 6.59535 0.703658 6.63185 0.703015 6.61503C0.697287 6.42259 0.85855 6.54148 0.835128 6.48123C0.784546 6.35021 0.114023 5.93609 0.989122 6.05739C0.262259 6.27495 0.896061 6.26987 1.17912 6.1863C1.25131 6.16535 1.26959 6.0504 1.37244 6.01051C1.50475 5.95885 1.65961 6.01403 1.72807 5.99293C1.8017 5.96968 1.38333 5.69798 1.98842 5.77906C1.68047 5.50879 1.13652 5.79694 0.83402 5.60717C0.223716 5.22372 1.25955 5.14139 1.36746 5.10423C1.39621 5.09416 1.29982 4.93892 1.31899 4.92941C1.35033 4.91483 1.93821 4.98658 1.99617 4.85812C2.05398 4.72978 1.78084 4.86404 1.76269 4.73019C1.75038 4.64008 2.45957 4.48024 2.07566 4.41865C1.81106 4.37643 1.32332 4.73861 1.24116 4.34931C1.6303 4.31709 2.01944 4.28486 2.40858 4.25263C2.19559 4.10451 1.9826 3.9564 1.76961 3.80828C2.20638 3.7613 2.58397 3.92853 2.99879 3.71648C2.00198 3.24185 3.32245 3.3377 3.33697 3.27994C3.34183 3.24539 2.94947 2.86015 2.88634 2.78969C3.23401 2.64148 4.29045 2.56906 3.67238 2.09337C3.78456 2.20078 4.05623 1.93564 4.05265 1.91563C4.01815 1.70548 3.42562 1.84175 3.52226 1.65195C3.63425 1.43168 3.79118 1.7305 3.96347 1.70664C4.84756 1.58223 4.60501 0.485145 5.49149 0.658745C5.47386 0.619681 5.45623 0.580617 5.43859 0.541553C6.40216 0.60373 7.36573 0.665907 8.32929 0.728084C8.70629 0.393055 9.70963 0.189045 10.2024 0.226112C10.3017 0.23333 10.7888 0.409161 10.8256 0.439987C10.8937 0.499065 10.5193 0.521607 10.6885 0.632377C10.7242 0.655113 11.549 0.728993 11.49 0.541553C11.3976 0.519821 11.1084 0.614041 11.061 0.569875C10.7285 0.25463 13.2713 0.506476 13.3972 0.379438C13.3409 0.318563 13.2846 0.257688 13.2283 0.196814C13.3887 0.226763 13.5492 0.256712 13.7096 0.286661ZM6.33652 15.3409C6.24022 15.529 5.99887 15.3878 5.85626 15.4406C5.65923 15.5145 5.3243 16.2387 5.4685 15.5128C5.75784 15.4555 6.04718 15.3982 6.33652 15.3409ZM10.5652 15.6212C10.3712 15.5202 10.5217 15.1148 10.6807 15.2833C10.6984 15.3025 10.8278 15.7572 10.5652 15.6212ZM8.5312 15.4288C8.53937 15.4235 8.70704 15.4342 8.71289 15.4406C8.86326 15.6033 8.35775 15.5701 8.5312 15.4288ZM18.3572 15.2208C18.1434 15.2383 18.2982 15.6069 18.4311 15.4552C18.4395 15.4456 18.3712 15.22 18.3572 15.2208ZM18.2051 15.2111C18.0391 14.881 17.7047 15.5499 17.9705 15.4825C17.9963 15.4757 18.2128 15.2271 18.2051 15.2111ZM9.87366 15.4601C9.89549 15.3336 10.0956 15.3947 10.1811 15.4249C10.1788 15.5404 9.95747 15.446 9.87366 15.4601ZM14.948 15.4249C14.9565 15.3255 14.2608 15.331 14.2135 15.462C14.3232 15.4064 14.94 15.5143 14.948 15.4249ZM16.7319 15.2853C16.7143 15.2681 16.474 15.2942 16.481 15.382C16.5983 15.4971 16.8113 15.3631 16.7319 15.2853ZM20.2776 15.2911C20.2907 15.2691 20.1107 14.7107 20.5372 15.0782C20.5998 15.132 20.3762 15.2779 20.3984 15.298C20.445 15.337 20.4818 15.3553 20.5114 15.3585C20.3128 15.4048 20.1065 15.4266 20.0865 15.3927C19.9928 15.2327 20.2719 15.3003 20.2776 15.2911ZM22.1391 14.8751C22.1801 14.784 22.4414 14.8327 22.5009 14.8702C22.5111 14.8773 22.4666 15.1166 22.5842 15.0987C22.6787 15.084 22.5376 14.8388 22.7216 14.878C22.9076 14.9174 22.6591 15.0921 22.6753 15.1046C22.6971 15.121 22.9848 15.0109 22.9758 15.1534C22.9692 15.259 22.661 15.1876 22.5848 15.2101C22.4872 15.2389 22.6055 15.4149 22.4424 15.3771C22.3399 15.3535 22.3967 15.0441 22.3751 15.0284C22.357 15.0158 21.9987 15.1939 22.1397 14.8761C22.1395 14.8758 22.1393 14.8754 22.1391 14.8751ZM20.5651 15.3448C20.5502 15.3553 20.5326 15.3609 20.5114 15.3585C20.5294 15.3543 20.5474 15.3494 20.5651 15.3448ZM6.8971 15.2052C6.99795 15.3006 6.6986 15.423 6.58523 15.298C6.58327 15.1972 6.88104 15.1903 6.8971 15.2052ZM20.7493 15.0929C21.0443 15.1704 20.8273 15.277 20.5651 15.3448C20.6484 15.2866 20.6502 15.067 20.7493 15.0929ZM12.373 15.2218C12.3854 15.2449 12.3933 15.2809 12.3943 15.34C12.3616 15.2753 12.3587 15.2406 12.373 15.2218ZM13.0613 15.3273C13.2972 15.1472 12.8178 15.1545 12.8209 15.2833C12.8223 15.332 13.0518 15.3344 13.0613 15.3273ZM18.6313 15.2384C18.6098 15.2208 18.9451 14.6771 18.4582 15.0851C18.7181 15.1492 18.444 15.2084 18.448 15.256C18.4586 15.3928 18.895 15.2613 18.9917 15.3204C19.0674 15.0756 18.7026 15.2965 18.6319 15.2384C18.6317 15.2384 18.6315 15.2384 18.6313 15.2384ZM25.494 15.0069C25.4349 15.1504 25.2473 15.1043 25.1207 15.0958C25.1798 14.9523 25.3674 14.9985 25.494 15.0069ZM58.6229 15.0275C57.7554 15.1601 57.643 14.5758 58.4367 14.8067C58.4523 14.8116 58.6755 14.9682 58.6229 15.0275ZM51.178 14.8761C51.0962 14.6214 51.3668 14.5805 51.5444 14.6856C51.5846 14.7093 51.7333 14.9672 51.5635 15.0177C51.5689 14.709 51.3064 14.5911 51.178 14.8761ZM20.916 14.9298C21.002 14.76 21.2664 14.8809 21.4057 14.9064C21.3207 15.0462 21.0393 14.983 20.916 14.9298ZM55.7723 14.7228C55.6809 14.7035 55.6191 14.925 55.6349 14.9435C55.7056 15.028 55.8765 14.8489 55.7723 14.7228ZM20.0624 14.9034C20.0503 14.8019 20.4006 14.7042 20.425 14.9552C20.3501 14.937 20.0711 14.9671 20.0624 14.9034ZM25.2553 14.9308C25.2009 14.8792 25.4825 14.7868 25.5677 14.838C25.5609 14.946 25.2909 14.9643 25.2553 14.9308ZM54.3002 14.798C54.2183 14.7787 54.0138 14.7728 53.9911 14.8624C53.963 14.9744 54.2629 14.9362 54.3002 14.798ZM69.5351 14.6046C69.5454 14.6448 69.2286 14.9348 69.0878 14.8614C68.8203 14.721 69.5239 14.5762 69.5351 14.6046ZM56.6378 14.6085C56.8961 14.8192 56.6093 14.6151 56.6207 14.837C56.7944 14.845 57.2266 14.856 56.9295 14.6378C56.8716 14.5956 56.7188 14.6229 56.6378 14.6085ZM56.3996 14.5343C56.372 14.6061 56.1858 14.8327 56.3467 14.8165C56.4211 14.8087 56.541 14.5569 56.3996 14.5343ZM67.5722 14.7032C67.3408 14.5068 68.4017 14.6122 68.4322 14.6466C68.4483 14.6648 68.4589 14.6819 68.4649 14.6964C68.5038 14.6341 68.7042 14.6229 68.7274 14.7804C68.6673 14.7674 68.5033 14.7812 68.4843 14.7638C68.476 14.7563 68.4699 14.7494 68.4657 14.7423C68.395 14.879 67.6166 14.7405 67.5722 14.7032ZM65.8143 14.5011C66.0791 14.2113 66.126 14.704 66.1032 14.7198C65.8149 14.9215 66.0029 14.5581 65.994 14.5411C65.9739 14.5128 65.7691 14.6814 65.8151 14.5011C65.8149 14.5011 65.8146 14.5011 65.8143 14.5011ZM67.2119 14.6222C67.2227 14.6157 67.4451 14.631 67.4542 14.6388C67.6364 14.8043 67.0073 14.7619 67.2119 14.6222ZM23.5422 14.5304C23.7014 14.5793 23.5453 14.7606 23.4395 14.6954C23.4308 14.689 23.4018 14.4871 23.5422 14.5304ZM56.2725 14.5831C56.2356 14.5489 55.2915 14.4197 55.3483 14.6935C55.4284 14.6611 56.5015 14.8021 56.2725 14.5831ZM49.2173 14.5167C49.3838 14.5188 49.2023 14.777 49.1135 14.6808C49.0805 14.645 49.1754 14.5163 49.2173 14.5167ZM19.5902 14.669C19.4174 14.8109 19.4531 14.335 19.603 14.4981C19.6088 14.5045 19.597 14.6635 19.5902 14.669ZM50.5473 14.6651C49.9732 14.8216 50.1092 14.003 50.8556 14.2794C50.8322 14.3158 50.8089 14.3523 50.7855 14.3888C51.6471 14.5115 50.8444 14.4465 50.6335 14.4923C50.5533 14.5097 50.6205 14.6463 50.5479 14.6661C50.5477 14.6658 50.5475 14.6655 50.5473 14.6651ZM48.3418 14.5011C47.7889 13.9201 48.8445 14.2984 49.1473 14.2227C48.8537 14.4627 48.4716 14.4263 48.9913 14.672C48.2314 14.7195 48.5478 14.4881 48.5174 14.4688C48.4815 14.4473 48.3654 14.526 48.3418 14.5011ZM49.8004 14.4972C49.8323 14.4802 50.0731 14.5985 50.1599 14.5792C50.0386 14.7777 49.5882 14.6124 49.8004 14.4972ZM63.9714 14.6358C63.9914 14.4803 64.0408 14.3658 64.2309 14.4239C64.1722 14.5021 64.0508 14.5693 63.9714 14.6358ZM6.15372 14.5226C6.02283 14.5114 5.76221 14.4528 5.84213 14.6163C5.85088 14.6302 6.15332 14.6143 6.15372 14.5226ZM53.5305 14.4571C53.5027 14.438 52.7828 14.4252 53.0314 14.5968C53.1064 14.6485 53.7615 14.6265 53.5305 14.4571ZM57.2585 14.4767C57.1983 14.475 56.9535 14.5043 56.9483 14.5411C56.9317 14.6683 57.2322 14.5984 57.2585 14.4767ZM5.49343 14.3634C5.4762 14.3472 5.07641 14.3758 5.12036 14.4513C5.20378 14.5939 5.55251 14.4189 5.49343 14.3634ZM24.1214 14.1661C24.1548 14.1603 24.199 14.3293 24.2106 14.3311C24.2377 14.3336 24.8495 14.2686 24.6158 14.4854C24.5768 14.5218 23.6966 14.4385 23.5821 14.4171C23.5379 14.1852 23.9138 14.4058 24.0053 14.3819C24.0215 14.3774 24.0318 14.1834 24.1211 14.1671C24.1212 14.1667 24.1213 14.1664 24.1214 14.1661ZM64.9615 14.4718C64.9885 14.3243 65.7077 14.2267 65.6994 14.4054C65.4534 14.4275 65.2075 14.4496 64.9615 14.4718ZM64.5962 14.4474C64.4427 14.3431 64.8021 14.3086 64.9081 14.3546C64.9092 14.4538 64.6185 14.4626 64.5962 14.4474ZM55.8945 13.9259C55.8222 13.9619 56.0444 14.177 55.9947 14.2188C55.9629 14.2449 55.8014 14.1642 55.7499 14.2315C55.7353 14.2529 55.9 14.4551 55.9476 14.4464C56.0153 14.4347 55.9497 14.2756 56.0235 14.2745C56.2687 14.2711 56.4861 14.3846 56.7159 14.3819C56.7367 14.3814 56.5757 14.269 56.7528 14.2706C56.7801 14.2706 56.9445 14.438 57.1563 14.4132C57.6241 13.8948 57.9675 14.4038 58.5611 14.2169C58.5387 14.1681 58.0948 14.0371 58.0686 14.0323C57.5725 13.9471 56.6836 13.9377 56.1639 13.9366C56.0306 13.9361 56.0954 14.0459 56.0379 14.0499C55.9925 14.0528 56.0465 13.8497 55.8945 13.9259ZM6.22324 14.4102C6.16086 14.2073 5.94202 14.3358 5.80225 14.3253C5.85145 14.5083 6.08666 14.3653 6.22324 14.4102ZM61.3673 14.2901C61.2972 14.298 61.08 14.2368 61.0621 14.2979C61.039 14.3777 61.3525 14.428 61.3673 14.2901ZM27.5707 14.2237C27.5775 14.2182 27.746 14.229 27.7524 14.2354C27.903 14.3983 27.3975 14.3649 27.5707 14.2237ZM31.6025 14.2628C31.7303 14.2377 31.8593 14.1743 31.9022 14.339C31.8208 14.3137 31.5876 14.3774 31.6025 14.2628ZM37.1649 14.2579C37.1385 14.0423 37.5232 14.1819 37.5958 14.2013C37.5689 14.2971 37.1842 14.4132 37.1649 14.2579ZM63.9437 13.9591C64.1789 13.9718 64.1292 13.6452 64.2785 13.793C64.3029 13.818 64.3816 14.498 64.1231 14.2432C64.0766 14.1974 64.2586 14.0358 63.9437 13.9591ZM50.9772 14.2862C51.037 14.1436 51.2239 14.1859 51.3503 14.1973C51.3219 14.3033 51.0671 14.276 50.9772 14.2862ZM4.77138 14.2003C4.66108 13.9989 4.15144 14.1483 4.27755 14.2813C4.29548 14.2987 4.69988 14.1927 4.77138 14.2003ZM21.514 14.2794C21.7237 14.1208 21.2894 14.0717 21.1523 14.2266C21.2144 14.2165 21.4999 14.2898 21.514 14.2794ZM35.8288 14.1407C35.8388 14.1342 36.0612 14.1495 36.0711 14.1573C36.2533 14.3229 35.6242 14.2805 35.8288 14.1407ZM30.2767 14.001C30.3568 13.8706 30.8835 13.9759 31.0015 14.1065C30.8879 14.2973 30.1773 14.164 30.2767 14.001ZM62.9759 14.0518C63.1437 14.0451 63.3029 14.0853 63.457 14.1417C63.4246 14.2515 62.9937 14.1339 62.9759 14.0518ZM36.645 14.127C36.6569 14.1279 36.6685 14.1403 36.6799 14.1417C36.668 14.137 36.6564 14.1317 36.645 14.127ZM59.2205 13.9747C59.0799 13.9313 59.1091 14.1326 59.1178 14.1387C59.2236 14.2039 59.3797 14.0237 59.2205 13.9747ZM6.0626 14.1114C6.01386 13.9297 5.77737 14.0706 5.64133 14.0274C5.6808 14.1709 5.95302 14.1305 6.0626 14.1114ZM47.7497 14.129C47.573 13.932 48.2918 13.7032 48.4432 13.8301C48.4544 13.9518 47.7756 14.1559 47.7497 14.129ZM20.8629 14.0069C20.8488 13.8646 20.547 14.0363 20.6111 14.1036C20.6517 14.1464 20.8713 14.0953 20.8629 14.0069ZM48.8047 13.9132C48.8722 13.8697 49.0296 14.0102 48.9742 14.0958C48.903 14.2055 48.7872 13.9256 48.8047 13.9132ZM54.8633 13.7989C54.8338 13.7771 54.4367 13.9232 54.6007 14.0684C54.7146 14.1693 54.7327 13.9636 54.7594 13.963C54.7893 13.9636 55.4268 14.2154 54.8633 13.7989ZM43.7243 14.005C43.8741 13.9502 44.0552 14.0138 44.212 14.0098C44.1481 14.0979 43.788 14.1219 43.7243 14.005ZM22.0267 13.9688C21.9903 13.9113 20.9992 13.8766 21.5622 14.0538C21.595 14.0638 22.1372 14.1432 22.0267 13.9688ZM63.9437 13.9591C63.914 13.9574 63.8798 13.9507 63.8401 13.9366C63.8795 13.9421 63.9138 13.9518 63.9437 13.9591ZM61.2726 13.9376C61.3267 13.8339 61.054 13.8062 60.9735 13.8614C60.9487 13.988 61.2651 13.9521 61.2726 13.9376ZM44.2239 13.8653C44.3142 13.806 44.4782 13.8693 44.5901 13.8624C44.5711 13.9587 44.263 13.9632 44.2239 13.8653ZM37.88 13.7569C38.0594 13.8141 38.2801 13.7878 38.2835 13.67C38.2872 13.6884 38.296 13.7079 38.3104 13.7276C38.325 13.7471 38.5171 13.6923 38.6006 13.7325C39.1005 13.9714 36.6703 13.8728 38.0788 13.5401C38.0126 13.6124 37.9463 13.6846 37.88 13.7569ZM29.5641 13.7237C29.4622 13.5803 29.1771 13.76 29.2511 13.8165C29.3026 13.8552 29.666 13.8681 29.5641 13.7237ZM33.482 13.6387C33.4516 13.6131 33.1732 13.7136 33.166 13.7891C33.3261 13.8687 33.6207 13.7577 33.482 13.6387ZM28.7813 13.5557C28.7175 13.5341 28.6359 13.7654 28.6434 13.7755C28.7084 13.8599 28.8887 13.6845 28.7813 13.5557ZM63.4565 13.336C63.3614 13.2698 63.0583 13.4372 62.9923 13.5899C62.98 13.5604 62.9469 13.5219 62.8862 13.4756C62.8864 13.4756 62.8866 13.4756 62.8868 13.4756C62.8048 13.4139 60.355 13.3465 61.9982 13.6407C62.0497 13.6501 61.9794 13.513 62.1888 13.5372C62.2026 13.5389 62.2095 13.6509 62.2522 13.6563C62.3506 13.6681 62.8743 13.7386 62.9795 13.6485C62.9804 13.6692 62.9872 13.689 63.0017 13.7071C63.1308 13.8685 63.5302 13.3871 63.4565 13.336ZM34.034 13.6182C33.978 13.5767 33.8006 13.6161 33.7823 13.7149C33.8702 13.7633 34.1641 13.715 34.034 13.6182ZM21.9959 13.5635C21.8818 13.4823 21.5925 13.6342 21.6799 13.7149C21.7335 13.7646 22.1276 13.6568 21.9959 13.5635ZM32.2576 13.671C32.9121 13.7877 32.4138 13.6615 32.514 13.5167C32.4285 13.5681 32.3431 13.6195 32.2576 13.671ZM66.4859 13.71C66.3816 13.6767 66.5042 13.3909 66.6192 13.546C66.6552 13.5952 66.5443 13.7281 66.4859 13.71ZM71.1991 13.6212C71.11 13.3677 71.5451 13.5166 71.3755 13.6905C71.3676 13.6963 71.2055 13.6308 71.1991 13.6212ZM67.9057 13.5176C67.8348 13.6902 67.7887 13.7107 67.5891 13.668C67.8846 13.6194 67.6105 13.4668 67.9057 13.5176ZM38.2816 13.6514C38.2827 13.6584 38.2837 13.6636 38.2835 13.67C38.2822 13.6636 38.2817 13.6576 38.2816 13.6514ZM28.1659 13.6006C28.084 13.4545 27.8543 13.4652 27.9228 13.6124C27.9294 13.626 28.1323 13.7087 28.1659 13.6006ZM62.9923 13.5899C63.0032 13.6161 62.9976 13.633 62.9795 13.6485C62.9787 13.629 62.9834 13.6105 62.9923 13.5899ZM29.399 13.4815C29.3908 13.5906 29.7403 13.633 29.7543 13.6202C29.9549 13.431 29.5433 13.4749 29.399 13.4815ZM19.6849 13.4102C19.6669 13.4216 19.7832 13.7031 19.8544 13.5928C19.9096 13.5072 19.7525 13.3669 19.6849 13.4102ZM68.5834 13.4473C68.6941 13.4475 68.8499 13.4474 68.8787 13.5811C68.8045 13.5606 68.5811 13.5454 68.5834 13.4473ZM71.0287 13.4376C70.8979 13.5948 70.5991 13.5943 70.4083 13.5684C70.4048 13.3615 70.906 13.4862 71.0287 13.4376ZM63.7567 13.4131C63.7476 13.4047 63.4701 13.343 63.508 13.4815C63.5634 13.6846 63.835 13.4885 63.7567 13.4131ZM20.2239 13.5596C20.348 13.4642 20.0624 13.171 19.9314 13.3975C19.8642 13.5135 20.203 13.5756 20.2239 13.5596ZM27.4489 13.4092C27.2851 13.4894 27.691 13.6322 27.7477 13.4874C27.6723 13.4757 27.507 13.3808 27.4489 13.4092ZM33.0217 13.2627C32.5056 12.845 32.7867 13.6071 32.8782 13.5401C32.8911 13.5305 33.0343 13.2726 33.0217 13.2627ZM3.49069 13.3653C3.41762 13.4233 3.69002 13.6336 3.72528 13.4952C3.74706 13.4085 3.53741 13.3283 3.49069 13.3653ZM40.7937 13.5342C40.7719 13.5356 40.7503 13.5369 40.7289 13.5381C40.7449 13.5313 40.766 13.5291 40.7937 13.5342ZM25.9621 12.8496C26.3254 13.4395 26.2873 12.9849 26.3188 12.9873C26.3871 12.9937 26.5456 13.1532 26.6742 13.127C26.5269 13.1934 26.3797 13.2598 26.2324 13.3262C26.3487 13.3688 27.3593 13.5859 27.3805 13.4903C27.4108 13.3541 27.0928 13.3968 27.0835 13.3848C27.0702 13.3677 27.0205 12.989 26.991 12.9746C26.9425 12.9516 26.0975 12.9438 25.9621 12.8496ZM31.9424 13.3282C32.0254 13.3732 32.049 13.5232 32.0875 13.4874C32.1006 13.4751 32.1028 13.332 32.1476 13.295C32.0792 13.306 32.0108 13.3171 31.9424 13.3282ZM25.3115 13.3799C25.2087 13.2051 25.6698 13.2715 25.6846 13.2911C25.7635 13.4096 25.3956 13.5228 25.3115 13.3799ZM29.2245 13.3545C29.2077 13.3443 28.8536 13.2897 28.8564 13.3868C28.9501 13.4607 29.4236 13.4823 29.2245 13.3545ZM32.203 13.2852C32.3274 13.3019 32.5626 13.446 32.5356 13.2305C32.5355 13.2305 32.5353 13.2305 32.5351 13.2305C32.4244 13.2487 32.3137 13.267 32.203 13.2852ZM20.6488 13.1045C20.4182 12.7613 20.5274 13.195 20.7316 13.3057C20.7934 13.1516 20.6866 13.1604 20.6488 13.1045ZM19.9109 12.8487C19.8468 12.7869 19.1858 12.8546 19.2867 13.0362C19.3225 13.1009 19.7026 12.9377 19.7201 12.9502C19.7466 12.9688 19.6254 13.1697 19.8281 13.1299C19.8163 13.0619 19.9329 12.8693 19.9109 12.8487ZM20.4579 12.8848C20.2288 12.6238 20.1774 13.1052 20.3497 13.1065C20.417 13.1073 20.4906 12.9225 20.4579 12.8848ZM21.3938 12.9258C21.3114 12.8802 21.0918 12.8136 20.9404 12.9737C21.143 12.9873 21.3455 13.001 21.5481 13.0147C21.5714 12.924 21.4659 12.9659 21.3933 12.9258C21.3934 12.9258 21.3936 12.9258 21.3938 12.9258ZM72.4055 12.2041C72.2235 12.0676 72.6429 12.0153 72.6606 12.0488C72.7133 12.1602 72.4869 12.2651 72.4055 12.2041ZM2.06874 8.99207C2.01816 8.93765 1.98509 8.75861 1.87375 8.85242C1.98574 8.98458 2.09773 9.11675 2.20971 9.24891C2.29674 8.94608 2.12402 9.05209 2.06874 8.99207ZM1.6411 7.88558C1.65692 7.87825 1.57051 7.41258 1.77488 7.72347C1.91296 7.93338 1.16206 8.13796 1.02651 7.93148C1.17628 7.83553 1.50493 7.94537 1.6411 7.88558ZM0.325786 5.86988C0.317128 5.83275 0.602414 5.77827 0.635435 5.80445C0.808823 5.94245 0.372629 6.06884 0.325786 5.86988ZM1.2359 5.95875C1.10211 5.86832 1.3985 5.81003 1.48683 5.86207C1.4954 5.94874 1.25657 5.97192 1.2359 5.95875ZM70.5621 5.45971C70.4173 5.14322 70.2878 5.82452 70.5105 5.68726C70.5212 5.6808 70.5682 5.47521 70.5621 5.45971ZM0.604692 5.40014C0.738485 5.49057 0.442091 5.54886 0.35376 5.49682C0.345545 5.41024 0.58432 5.38691 0.604692 5.40014ZM70.4601 4.70577C70.2678 4.47803 70.3356 5.24238 70.3596 5.27318C70.4586 5.39482 70.7979 5.09482 70.8673 5.02024C70.3593 5.13494 70.5507 4.81309 70.4601 4.70577ZM69.5733 5.16478C69.3949 5.24632 69.8508 5.40227 69.9378 5.18919C69.8491 5.19939 69.624 5.14121 69.5733 5.16478ZM68.4906 4.91965C68.3947 4.89228 68.1095 4.82673 68.0616 4.94699C68.1663 4.92522 68.4501 5.0434 68.4906 4.91965ZM68.2735 4.55928C68.1236 4.39587 68.0876 4.872 68.2605 4.73019C68.2672 4.7247 68.279 4.56837 68.2735 4.55928ZM67.4307 4.3874C67.3323 4.19805 67.2201 4.65916 67.3794 4.67159C67.4268 4.67444 67.4411 4.40911 67.4307 4.3874ZM70.2195 3.88348C70.0786 3.80217 69.8972 4.13238 70.1978 4.16864C70.0922 4.2191 69.9866 4.26956 69.881 4.32002C70.2749 4.50511 70.2459 4.04717 70.359 4.0661C70.5171 4.09301 70.5046 4.4709 70.4729 4.58956C70.6024 4.35804 71.1529 4.35433 71.4711 4.31025C71.1915 4.21309 70.7377 4.04465 70.4618 3.98309C70.383 3.96527 70.3066 4.0689 70.2394 4.05731C70.1317 4.03817 70.2273 3.88895 70.22 3.88348C70.2198 3.88348 70.2196 3.88348 70.2195 3.88348ZM66.3228 4.38057C66.0337 4.16607 66.2165 4.62917 66.3799 4.54659C66.3868 4.54023 66.33 4.38581 66.3228 4.38057ZM0.22137 3.99286C0.607586 4.18643 0.326855 4.44298 1.13481 4.05341C0.795367 4.3292 1.11603 4.25174 1.04978 4.36299C0.996625 4.451 0.797465 4.37811 0.913233 4.55538C0.761065 4.36244 0.100429 4.4158 0.0709768 4.38447C0.0712538 4.38447 0.0715308 4.38447 0.0718077 4.38447C0.0541184 4.36591 0.0981289 3.9313 0.22137 3.99286ZM68.4892 3.70867C68.3928 3.14676 68.355 4.03863 68.1655 3.57292C67.9131 4.24919 68.8626 3.57302 68.9775 4.14423C67.9464 4.07786 69.6588 4.71023 68.939 3.85516C69.532 4.1655 69.1333 3.74926 69.2249 3.6403C69.3228 3.52424 69.6582 3.65038 69.6411 3.44108C69.641 3.44108 69.6408 3.44108 69.6406 3.44108C69.4354 3.45573 69.2303 3.47038 69.0252 3.48502C69.226 3.93651 68.8068 3.80113 68.6646 3.43326C68.6061 3.52506 68.5477 3.61687 68.4892 3.70867ZM69.6503 4.13251C69.6301 4.12217 69.1839 4.18545 69.2127 4.27607C69.2723 4.33387 69.9055 4.26457 69.6503 4.13251ZM71.614 4.03387C71.4538 4.03277 71.206 3.94469 71.1188 4.11493C71.279 4.11607 71.5268 4.20421 71.614 4.03387ZM63.3645 4.00165C63.1603 4.14135 63.789 4.18273 63.6071 4.01727C63.5982 4.00948 63.3745 3.99512 63.3645 4.00165ZM68.0248 3.79363C67.8171 3.62191 67.9153 4.1685 68.0691 4.02606C68.078 4.01766 68.0344 3.80146 68.0248 3.79363ZM0.534342 3.92645C0.54823 3.79253 1.10859 3.88659 1.20793 3.88543C1.15149 4.00991 0.51841 4.07997 0.534342 3.92645ZM71.8959 3.53288C71.5772 3.05135 71.1446 3.60753 71.0972 3.59538C71.05 3.583 71.124 3.3725 71.1132 3.36686C71.0887 3.35505 70.5864 3.37271 70.5621 3.38736C70.5447 3.39879 70.6356 3.69459 70.5319 3.78777C70.7341 3.61969 71.6525 3.72484 71.7001 3.69206C71.737 3.66589 71.4587 3.35526 71.8954 3.53288C71.8956 3.53288 71.8957 3.53288 71.8959 3.53288ZM70.9786 3.53092C71.1041 3.65492 70.7522 3.67044 70.667 3.62468C70.4778 3.52229 70.9625 3.51623 70.9786 3.53092ZM70.1322 3.41666C70.092 3.38885 69.7293 3.36359 69.6985 3.50163C69.8702 3.68069 70.2234 3.48146 70.1322 3.41666ZM66.0962 3.43522C66.002 3.4529 65.743 3.34683 65.7282 3.46745C65.8225 3.44985 66.0815 3.55585 66.0962 3.43522ZM2.44624 2.87367C2.28975 2.77274 2.65233 2.73151 2.75811 2.77992C2.76385 2.86038 2.45957 2.88234 2.44624 2.87367ZM67.9896 2.64027C67.9338 2.60359 66.7959 2.69511 66.6363 2.7516C66.7925 2.84282 67.9202 2.84983 67.9713 2.80531C67.9862 2.79198 67.9967 2.64604 67.9896 2.64027ZM70.4504 2.5846C70.5548 2.40697 70.6228 2.62001 70.636 2.62269C70.765 2.64987 71.0326 2.60982 70.9739 2.7809C70.7462 2.71187 70.2428 2.93734 70.4504 2.5846ZM66.0154 2.63148C65.629 2.69739 66.3711 2.88453 66.2738 2.69886C66.2675 2.68764 66.0553 2.62456 66.0154 2.63148ZM68.1167 2.58851C68.2019 2.44498 69.3402 2.56876 69.5229 2.56897C69.3592 2.8337 69.2273 2.63263 69.0074 2.64613C68.9481 2.65008 68.964 2.76021 68.9576 2.76039C68.8549 2.76549 68.9317 2.63829 68.8684 2.63636C68.8284 2.63549 67.9968 2.79073 68.1167 2.58851ZM70.51 2.46155C70.5736 2.35972 71.2843 2.31632 71.3129 2.34338C71.5268 2.54463 70.5652 2.497 70.51 2.46155ZM68.0123 2.35315C68.1347 2.04548 68.7 2.25152 68.3131 2.40491C68.2761 2.41886 68.1197 2.28549 68.0123 2.35315ZM66.0566 2.3385C66.0376 2.32945 65.6349 2.26795 65.6276 2.36584C65.6858 2.40388 66.273 2.43801 66.0566 2.3385ZM66.2655 2.00743C66.2558 2.00978 66.3502 2.19832 66.1613 2.17443C66.1456 2.17218 66.1162 1.96005 65.8788 2.0377C65.8306 2.0537 65.756 2.19403 65.7614 2.20275C66.0086 2.53565 66.7532 1.89806 66.2655 2.00743ZM70.523 2.28967C70.4847 2.20013 70.5771 1.93437 70.6604 2.06896C70.6961 2.12707 70.6295 2.28656 70.523 2.28967ZM64.7793 2.25256C65.0134 2.09138 64.2783 2.06091 64.2408 2.10216C64.2645 2.20255 64.7559 2.2683 64.7793 2.25256ZM2.81267 1.62949C2.81249 1.62949 2.8123 1.62949 2.81212 1.62949C3.0091 1.66601 2.88709 1.80009 2.89631 1.8043C3.3159 2.00123 3.20461 1.69755 3.27022 1.66171C3.41091 1.5842 3.38824 1.9535 3.62557 1.80039C3.23328 2.0265 3.59036 1.93171 3.60147 2.0631C3.64544 2.59926 3.07917 1.81204 2.88357 1.92442C2.85632 1.93998 3.05754 2.1111 2.98771 2.15978C2.7607 2.31751 2.05681 1.48983 2.81267 1.62949ZM70.7246 2.04552C70.816 1.88803 71.5092 2.04078 71.3254 2.17052C71.2958 2.19132 70.5903 2.27507 70.7246 2.04552ZM38.3445 1.81309C38.511 1.67679 38.125 1.51657 38.0534 1.62265C38.0179 1.6755 38.2713 1.8729 38.3445 1.81309ZM35.6374 1.23006C35.4394 1.25772 35.2307 1.82609 35.477 1.73789C35.5032 1.72825 35.6601 1.3089 35.6374 1.23006ZM48.636 1.52206C48.4293 1.31894 48.4416 1.69633 48.5933 1.69101C48.6469 1.68919 48.6425 1.52849 48.636 1.52206ZM40.7469 1.57089C40.7262 1.55772 40.4872 1.58181 40.4959 1.66855C40.5843 1.72059 40.8807 1.66132 40.7469 1.57089ZM48.7016 1.46835C48.5791 1.53636 48.79 1.80932 48.9398 1.54257C48.8637 1.56445 48.7142 1.4614 48.7016 1.46835ZM67.5852 1.51913C67.4826 1.67409 67.1922 1.62727 67.0255 1.6539C67.0075 1.45313 67.4661 1.55553 67.5852 1.51913ZM36.4777 1.45858C36.2903 1.60008 36.6918 1.71592 36.655 1.5289C36.6498 1.51874 36.4851 1.45255 36.4777 1.45858ZM55.3048 1.44784C55.1686 1.5676 55.6011 1.72865 55.482 1.51815C55.4762 1.50957 55.3123 1.44118 55.3048 1.44784ZM57.1934 1.51718C57.0901 1.47678 56.6494 1.48921 56.8209 1.60605C56.8475 1.624 57.1857 1.62687 57.1934 1.51718ZM3.28185 1.51718C3.22617 1.31094 3.54938 1.36003 3.59566 1.39608C3.61383 1.41107 3.35448 1.7855 3.28185 1.51718ZM47.2935 1.48983C47.1866 1.51563 46.9092 1.4666 46.8604 1.5748C46.9912 1.5524 47.3287 1.70536 47.2935 1.48983ZM37.3321 1.4576C37.169 1.2335 36.8901 1.25562 36.9591 1.54843C37.267 1.52881 36.921 1.28524 37.3321 1.4576ZM49.3904 1.22713C49.3047 1.21003 49.2389 1.49123 49.2486 1.50448C49.3416 1.63052 49.4757 1.33653 49.3904 1.22713ZM42.9546 1.45858C42.9496 1.33841 42.6747 1.39295 42.7114 1.4703C42.7234 1.49627 42.9586 1.55583 42.9546 1.45858ZM63.9846 1.45077C63.8587 1.34108 64.2434 1.23385 64.3572 1.3619C64.4125 1.54641 64.0006 1.46337 63.9846 1.45077ZM51.7688 1.29744C51.7815 1.1191 51.3518 1.21993 51.5211 1.36776C51.5635 1.40474 51.7643 1.35707 51.7688 1.29744ZM55.8825 1.08357C55.5943 1.29624 56.8047 1.44722 56.4866 1.1822C56.4639 1.16332 55.9077 1.06561 55.8825 1.08357ZM57.8593 1.21638C57.8095 1.19295 57.8343 0.593682 58.0401 0.824767C58.0671 0.854736 57.9407 1.01315 57.9628 1.04938C57.9758 1.07003 58.4233 1.1542 58.4439 1.14021C58.4661 1.12432 58.44 0.932252 58.4625 0.910708C58.4878 0.88663 58.7633 1.05535 58.9076 1.0572C59.1794 1.06036 59.2088 0.900495 59.2311 0.899965C59.296 0.898906 59.4052 1.01241 59.5368 1.01227C60.2005 1.011 61.2154 0.875488 61.7415 1.21443C61.2733 1.07832 60.8272 1.22273 60.3614 1.26717C60.4978 0.933466 59.6761 1.52428 60.1567 1.13923C59.9354 1.22275 58.0223 1.28955 57.8598 1.21638C57.8596 1.21638 57.8594 1.21638 57.8593 1.21638ZM34.8561 1.06208C34.9777 0.857471 34.3537 0.903496 34.3007 1.14021C34.3831 1.17306 34.841 1.08527 34.8561 1.06208ZM37.7349 0.563038C37.7928 0.52772 37.8478 0.127774 38.1517 0.330608C38.152 0.330608 38.1522 0.330608 38.1525 0.330608C38.2414 0.389843 38.1401 0.487296 38.1564 0.522021C38.1623 0.536201 38.4394 0.735152 38.2093 0.767148C37.8583 0.816236 38.1762 0.469613 37.9891 0.465378C37.9662 0.465051 37.612 0.68154 37.6327 0.72906C37.6348 0.734596 37.7413 0.688799 37.7589 0.708552C37.8254 0.7828 37.7931 0.907693 37.8024 0.913638C37.8331 0.928868 38.3932 0.716094 38.4746 0.901918C38.5011 0.96184 37.5818 1.10007 37.546 1.06892C37.5233 1.04929 37.5329 0.702607 37.5094 0.668511C37.4973 0.651528 37.1275 0.781439 37.0795 0.749569C37.0656 0.740351 37.055 0.730414 37.0471 0.722224C37.1031 0.829481 36.7682 0.821759 36.7785 0.700739C36.7843 0.653173 37.0148 0.680705 37.0231 0.68902C37.0267 0.69254 37.0298 0.697392 37.0327 0.700739C36.985 0.570027 37.7654 0.575922 37.5969 0.381391C37.8231 0.274824 37.5648 0.666762 37.7349 0.563038ZM38.8222 0.349163C38.7989 0.385623 38.7755 0.422083 38.7522 0.458542C39.1482 0.369303 39.6052 0.544814 40.0614 0.543506C40.1771 0.54344 40.044 0.320458 40.1957 0.381391C40.3173 0.430223 40.4518 0.637045 40.3857 0.68316C40.3696 0.694666 40.1221 0.559956 39.9982 0.573781C39.6325 0.614709 39.7249 0.805929 39.7035 0.811095C39.6799 0.816531 39.4498 0.682055 39.3241 0.688043C39.0081 0.703521 38.8637 0.820921 38.432 0.667535C38.6811 0.541509 38.5447 0.267728 38.8222 0.349163ZM53.5837 0.756405C53.5988 0.636046 53.8579 0.742831 53.9521 0.725154C53.9373 0.84581 53.6779 0.738718 53.5837 0.756405ZM14.9646 0.600149C14.885 0.797657 15.4816 0.846562 15.3244 0.682184C15.2896 0.645702 15.0395 0.601554 14.9646 0.600149ZM17.6448 0.720271C17.7246 0.665665 17.4032 0.523462 17.4038 0.676324C17.4043 0.725343 17.6345 0.727372 17.6448 0.720271ZM43.9414 0.543506C43.9565 0.537322 44.176 0.581312 44.1829 0.59136C44.3284 0.801075 43.6058 0.679865 43.9414 0.543506ZM20.903 0.477098C20.6249 0.606556 21.4621 0.662665 21.2063 0.497606C21.1936 0.489566 20.9164 0.470806 20.903 0.477098ZM22.0668 0.440963C22.0002 0.447902 21.704 0.383624 21.7001 0.443893C21.6942 0.541125 22.0332 0.607562 22.0668 0.440963ZM49.4483 0.481004C49.4162 0.258464 49.8067 0.426994 49.9424 0.39897C49.9747 0.621664 49.584 0.452901 49.4483 0.481004ZM46.9836 0.316935C48.6298 0.141505 48.2669 0.616973 46.8856 0.425338C46.8836 0.282571 46.8797 0.327984 46.9836 0.316935ZM49.0916 0.343303C49.0318 0.48587 48.8448 0.443595 48.7185 0.432174C48.7412 0.333054 49.0005 0.368926 49.0916 0.343303ZM14.2542 0.294473C14.3574 0.114378 14.8146 0.336405 14.7333 0.410689C14.7144 0.426731 14.2163 0.393513 14.2542 0.294473ZM44.0793 0.353069C44.041 0.136642 44.5353 0.224924 44.5732 0.272988C44.7257 0.466318 44.1194 0.305301 44.0793 0.353069ZM51.7848 0.290567C51.8721 0.121043 52.12 0.208236 52.2795 0.210486C52.2069 0.355442 51.9201 0.293617 51.7848 0.290567ZM50.6337 0.15775C50.6438 0.151243 50.8661 0.166548 50.8761 0.174352C51.0583 0.339929 50.4292 0.297525 50.6337 0.15775ZM2.53958 0.00149364C2.54699 -0.00396925 2.7154 0.00684018 2.72127 0.0132128C2.87159 0.175972 2.36613 0.142714 2.53958 0.00149364Z" fill="black"/>
</svg>
