<?xml version="1.0" encoding="UTF-8"?>
<!--Generator: Apple Native CoreSVG 232.5-->
<!DOCTYPE svg
PUBLIC "-//W3C//DTD SVG 1.1//EN"
       "http://www.w3.org/Graphics/SVG/1.1/DTD/svg11.dtd">
<svg version="1.1" xmlns="http://www.w3.org/2000/svg" xmlns:xlink="http://www.w3.org/1999/xlink" width="310.275" height="257.629">
 <g>
  <rect height="257.629" opacity="0" width="310.275" x="0" y="0"/>
  <path d="M2.68136 128.793C-2.48854 135.914-0.0315124 142.332 8.74971 142.332L27.072 142.332C33.7419 206.316 88.8532 257.629 155.181 257.629C192.799 257.629 226.685 240.822 249.877 214.767C254.978 209.572 254.603 202.633 250.256 198.709C245.705 194.644 239.396 194.83 234.176 199.916C214.974 221.605 186.806 235.369 155.181 235.369C100.371 235.369 55.9565 194.541 49.6948 142.332L69.7339 142.332C78.3823 142.332 80.812 135.932 75.7847 128.873L46.5035 87.5117C42.4156 81.7207 36.1481 81.6758 31.9977 87.5117ZM60.5484 42.8614C55.3668 48.0567 55.7418 54.916 60.1871 58.8398C64.7203 62.9042 71.0464 62.7362 76.267 57.7128C95.4682 36.121 123.716 22.3573 155.181 22.3573C209.894 22.3573 254.406 63.1854 260.65 115.395L240.541 115.395C231.892 115.395 229.445 121.777 234.472 128.853L263.771 170.215C267.859 176.006 274.109 176.051 278.277 170.215L307.593 128.934C312.683 121.812 310.306 115.395 301.525 115.395L283.291 115.395C276.603 51.4102 221.509 0.0976562 155.181 0.0976562C117.644 0.0976562 83.7574 16.8243 60.5484 42.8614Z" fill="#ffffff" fill-opacity="0.85"/>
 </g>
</svg>
