<?xml version="1.0" encoding="UTF-8"?>
<!--Generator: Apple Native CoreSVG 232.5-->
<!DOCTYPE svg
PUBLIC "-//W3C//DTD SVG 1.1//EN"
       "http://www.w3.org/Graphics/SVG/1.1/DTD/svg11.dtd">
<svg version="1.1" xmlns="http://www.w3.org/2000/svg" xmlns:xlink="http://www.w3.org/1999/xlink" width="104.27" height="211.418">
 <g>
  <rect height="211.418" opacity="0" width="104.27" x="0" y="0"/>
  <path d="M0.000190386 184.922C0.0353452 191.9 4.88881 196.4 12.3985 196.4L91.7911 196.4C99.3008 196.4 104.234 191.9 104.27 184.922C104.305 177.918 99.3887 173.365 91.7911 173.365L67.6836 173.365L67.6836 78.785C67.6836 71.371 62.9004 66.666 55.6817 66.666L16.4669 66.666C8.8693 66.666 3.95333 71.1386 4.00606 78.2225C4.04121 85.2009 8.95718 89.7009 16.4669 89.7009L42.7287 89.7009L42.7287 173.365L12.3985 173.365C4.80093 173.365-0.0349644 177.918 0.000190386 184.922ZM32.2287 18.4452C32.2287 28.6698 40.3341 36.7303 50.5587 36.7303C60.8809 36.7303 68.8887 28.6698 68.8086 18.4452C68.8086 8.04293 60.8809 0 50.5587 0C40.3341 0 32.2287 8.04293 32.2287 18.4452Z" fill="#000000" fill-opacity="0.85"/>
 </g>
</svg>
