<?xml version="1.0" encoding="UTF-8"?>
<!--Generator: Apple Native CoreSVG 232.5-->
<!DOCTYPE svg
PUBLIC "-//W3C//DTD SVG 1.1//EN"
       "http://www.w3.org/Graphics/SVG/1.1/DTD/svg11.dtd">
<svg version="1.1" xmlns="http://www.w3.org/2000/svg" xmlns:xlink="http://www.w3.org/1999/xlink" width="279.847" height="281.359">
 <g>
  <rect height="281.359" opacity="0" width="279.847" x="0" y="0"/>
  <path d="M146.061 180.79L146.061 219.395C146.061 255.112 119.378 269.887 99.3026 269.887C78.0257 269.887 63.0653 256.285 63.0653 236.637C63.0653 217.079 75.2764 204.185 100.53 198.879L120.65 194.676C125.96 193.639 128.847 189.803 128.372 183.807L128.339 163.068ZM216.792 27.9899L216.792 74.6366C216.792 79.1535 213.917 82.5711 209.516 83.5304L153.044 96.0243C147.123 97.288 146.061 98.4557 146.061 104.921L146.061 114.355L128.231 96.5257L128.148 45.0103C128.148 37.7939 132.525 33.3375 140.64 31.5478L204.171 17.7672C211.068 16.3072 216.792 20.9609 216.792 27.9899Z" fill="#ffffff" fill-opacity="0.85"/>
  <path d="M29.8292 18.6592L262.7 251.53L262.7 251.53C266.202 255.032 266.202 260.709 262.7 264.211L262.7 264.211L262.7 264.211C259.198 267.713 253.52 267.713 250.018 264.211L17.1473 31.3411L17.1473 31.3411C13.6453 27.8391 13.6453 22.1612 17.1473 18.6592L17.1473 18.6592L17.1473 18.6592C20.6493 15.1572 26.3272 15.1572 29.8292 18.6592Z" fill="#ffffff" fill-opacity="0.85"/>
 </g>
</svg>
