<?xml version="1.0" encoding="UTF-8"?>
<!--Generator: Apple Native CoreSVG 232.5-->
<!DOCTYPE svg
PUBLIC "-//W3C//DTD SVG 1.1//EN"
       "http://www.w3.org/Graphics/SVG/1.1/DTD/svg11.dtd">
<svg version="1.1" xmlns="http://www.w3.org/2000/svg" xmlns:xlink="http://www.w3.org/1999/xlink" width="153.737" height="258.416">
 <g>
  <rect height="258.416" opacity="0" width="153.737" x="0" y="0"/>
  <path d="M153.737 63.1654L153.737 16.5186C153.737 9.48962 148.013 4.83591 141.116 6.29592L77.5852 20.0765C69.4706 21.8662 65.0931 26.3227 65.0931 33.539L65.3178 172.336C65.792 178.332 62.9058 182.168 57.5956 183.204L37.4752 187.407C12.2217 192.714 0.0105768 205.608 0.0105768 225.166C0.0105768 244.813 14.971 258.416 36.2479 258.416C56.3229 258.416 83.0059 243.64 83.0059 207.924L83.0059 93.4496C83.0059 86.9845 84.0678 85.8167 89.9898 84.5531L146.461 72.0592C150.862 71.0998 153.737 67.6822 153.737 63.1654Z" fill="#ffffff" fill-opacity="0.85"/>
 </g>
</svg>
