<?xml version="1.0" encoding="UTF-8"?>
<!--Generator: Apple Native CoreSVG 232.5-->
<!DOCTYPE svg
PUBLIC "-//W3C//DTD SVG 1.1//EN"
       "http://www.w3.org/Graphics/SVG/1.1/DTD/svg11.dtd">
<svg version="1.1" xmlns="http://www.w3.org/2000/svg" xmlns:xlink="http://www.w3.org/1999/xlink" width="208.484" height="208.644">
 <g>
  <rect height="208.644" opacity="0" width="208.484" x="0" y="0"/>
  <path d="M0 104.291C0 110.943 5.55464 116.4 12.1893 116.4L92.084 116.4L92.084 196.295C92.084 202.93 97.5586 208.484 104.193 208.484C110.926 208.484 116.4 202.93 116.4 196.295L116.4 116.4L196.295 116.4C202.93 116.4 208.484 110.943 208.484 104.291C208.484 97.5586 202.93 92.1016 196.295 92.1016L116.4 92.1016L116.4 12.2069C116.4 5.55464 110.926 0 104.193 0C97.5586 0 92.084 5.55464 92.084 12.2069L92.084 92.1016L12.1893 92.1016C5.55464 92.1016 0 97.5586 0 104.291Z" fill="#000000" fill-opacity="0.85"/>
 </g>
</svg>
