<?xml version="1.0" encoding="UTF-8"?>
<!--Generator: Apple Native CoreSVG 232.5-->
<!DOCTYPE svg
PUBLIC "-//W3C//DTD SVG 1.1//EN"
       "http://www.w3.org/Graphics/SVG/1.1/DTD/svg11.dtd">
<svg version="1.1" xmlns="http://www.w3.org/2000/svg" xmlns:xlink="http://www.w3.org/1999/xlink" width="282.031" height="223.535">
 <g>
  <rect height="223.535" opacity="0" width="282.031" x="0" y="0"/>
  <path d="M0 175.488C0 181.055 4.10156 184.766 10.1562 184.766L38.6719 184.766C58.8867 184.766 70.5078 179.102 85.2539 161.914L159.863 74.5117C170.996 61.5234 180.078 56.7383 193.848 56.7383L218.652 56.7383L218.652 85.7422C218.652 90.2344 221.289 92.7734 225.977 92.7734C228.125 92.7734 230.078 92.0898 231.934 90.625L279.004 52.2461C283.008 49.1211 283.008 44.043 279.004 40.7227L231.934 2.34375C230.078 0.878906 228.125 0.195312 225.977 0.195312C221.289 0.195312 218.652 2.73438 218.652 7.22656L218.652 38.1836L193.555 38.1836C173.242 38.1836 161.523 43.9453 146.875 61.1328L72.3633 148.438C61.2305 161.523 52.3438 166.211 39.3555 166.211L10.1562 166.211C4.19922 166.211 0 170.117 0 175.488ZM0 47.5586C0 53.0273 4.19922 56.8359 10.1562 56.8359L39.3555 56.8359C52.4414 56.8359 61.3281 61.6211 72.3633 74.6094L146.875 161.914C161.523 179.102 173.242 184.863 193.555 184.863L218.652 184.863L218.652 216.504C218.652 220.996 221.289 223.535 225.977 223.535C228.125 223.535 230.078 222.852 231.934 221.387L279.004 183.008C283.008 179.883 283.008 174.902 279.004 171.484L231.934 133.105C230.078 131.641 228.125 130.957 225.977 130.957C221.289 130.957 218.652 133.496 218.652 137.988L218.652 166.309L193.848 166.309C180.078 166.309 170.996 161.523 159.863 148.535L85.2539 61.2305C70.5078 44.043 58.8867 38.2812 38.6719 38.2812L10.1562 38.2812C4.10156 38.2812 0 41.9922 0 47.5586Z" fill="#ffffff" fill-opacity="0.85"/>
 </g>
</svg>
