<?xml version="1.0" encoding="UTF-8"?>
<!--Generator: Apple Native CoreSVG 232.5-->
<!DOCTYPE svg
PUBLIC "-//W3C//DTD SVG 1.1//EN"
       "http://www.w3.org/Graphics/SVG/1.1/DTD/svg11.dtd">
<svg version="1.1" xmlns="http://www.w3.org/2000/svg" xmlns:xlink="http://www.w3.org/1999/xlink" width="299.018" height="240.304">
 <g>
  <rect height="240.304" opacity="0" width="299.018" x="0" y="0"/>
  <path d="M0 187.568C0 194.874 5.65426 200.231 13.3859 200.231L43.2058 200.231C64.7249 200.231 77.495 193.852 91.9616 176.603L168.838 84.5422C180.033 71.1502 188.773 66.4271 203.661 66.4271L228.248 66.4271L228.248 94.282C228.248 100.358 231.91 103.984 238.057 103.984C240.95 103.984 243.369 103.021 245.504 101.277L295.338 60.0096C300.243 56.0151 300.212 49.4774 295.338 45.3808L245.504 4.11383C243.369 2.3695 240.95 1.40642 238.057 1.40642C231.91 1.40642 228.248 5.03237 228.248 11.1083L228.248 41.1337L204.33 41.1337C181.813 41.1337 167.672 47.237 151.533 66.7225L76.5245 156.729C65.547 169.908 56.2566 174.906 41.7466 174.906L13.3859 174.906C5.72087 174.906 0 180.365 0 187.568ZM0 53.8315C0 61.1014 5.72087 66.4937 13.3859 66.4937L40.6597 66.4937C55.2363 66.4937 65.6136 71.5894 76.5245 84.6709L152.558 175.826C167.641 193.883 182.621 200.297 204.237 200.297L228.248 200.297L228.248 230.602C228.248 236.709 231.91 240.304 238.057 240.304C240.95 240.304 243.369 239.341 245.504 237.628L295.338 196.33C300.243 192.335 300.212 185.895 295.338 181.701L245.504 140.434C243.369 138.721 240.95 137.758 238.057 137.758C231.91 137.758 228.248 141.353 228.248 147.46L228.248 174.973L204.623 174.973C189.519 174.973 179.66 169.846 168.714 156.764L91.9616 64.8638C77.495 47.6142 63.6069 41.2003 42.1189 41.2003L13.3859 41.2003C5.65426 41.2003 0 46.5261 0 53.8315Z" fill="#ffffff" fill-opacity="0.85"/>
 </g>
</svg>
