<?xml version="1.0" encoding="UTF-8"?>
<!--Generator: Apple Native CoreSVG 232.5-->
<!DOCTYPE svg
PUBLIC "-//W3C//DTD SVG 1.1//EN"
       "http://www.w3.org/Graphics/SVG/1.1/DTD/svg11.dtd">
<svg version="1.1" xmlns="http://www.w3.org/2000/svg" xmlns:xlink="http://www.w3.org/1999/xlink" width="239.611" height="257.875">
 <g>
  <rect height="257.875" opacity="0" width="239.611" x="0" y="0"/>
  <path d="M239.611 176.77C239.611 128.092 206.588 94.7149 151.398 94.7149L64.7888 94.7149L24.9237 96.3731L28.1853 102.529L58.9783 75.7969L93.9491 41.5721C96.0663 39.455 97.3671 36.7968 97.3671 33.1914C97.3671 26.5723 92.7245 21.6016 85.707 21.6016C82.7305 21.6016 79.4336 23.0196 77.086 25.3672L3.75779 97.8067C1.2578 100.227 0 103.326 0 106.596C0 109.945 1.2578 113.045 3.75779 115.465L77.086 187.887C79.4336 190.217 82.7305 191.635 85.707 191.635C92.7245 191.635 97.3671 186.682 97.3671 179.982C97.3671 176.457 96.0663 173.799 93.9491 171.682L58.9783 137.475L28.1853 110.742L24.9237 116.898L64.7888 118.557L151.992 118.557C192.84 118.557 216.061 142.045 216.061 175.898C216.061 209.752 192.84 234.113 151.992 234.113L120.018 234.113C112.857 234.113 107.924 239.482 107.924 245.994C107.924 252.603 112.938 257.875 120.098 257.875L152.803 257.875C207.201 257.875 239.611 225.676 239.611 176.77Z" fill="#ffffff" fill-opacity="0.85"/>
 </g>
</svg>
